<svg width="359" height="176" viewBox="0 0 359 176" fill="none" xmlns="http://www.w3.org/2000/svg">
<path d="M0 1H327.047" stroke="white" stroke-opacity="0.8" stroke-width="0.476744"/>
<path d="M0 37.2325H327.047" stroke="white" stroke-opacity="0.8" stroke-width="0.476744"/>
<path d="M0 73.465H327.047" stroke="white" stroke-opacity="0.8" stroke-width="0.476744"/>
<path d="M0 108.744H327.047" stroke="white" stroke-opacity="0.8" stroke-width="0.476744"/>
<path d="M0 144.977H327.047" stroke="white" stroke-opacity="0.8" stroke-width="0.476744"/>
<path d="M0.238289 1.23837L0.238281 175.25" stroke="white" stroke-width="0.476744" stroke-linecap="round" stroke-dasharray="3.81 2.86"/>
<path d="M46.9592 1.23837V175.25" stroke="white" stroke-width="0.476744" stroke-linecap="round" stroke-dasharray="3.81 2.86"/>
<path d="M93.6802 1.23837V175.25" stroke="white" stroke-width="0.476744" stroke-linecap="round" stroke-dasharray="3.81 2.86"/>
<path d="M140.401 1.23837V175.25" stroke="white" stroke-width="0.476744" stroke-linecap="round" stroke-dasharray="3.81 2.86"/>
<path d="M187.122 1.23837V175.25" stroke="white" stroke-width="0.476744" stroke-linecap="round" stroke-dasharray="3.81 2.86"/>
<path d="M233.843 1.23837V175.25" stroke="white" stroke-width="0.476744" stroke-linecap="round" stroke-dasharray="3.81 2.86"/>
<path d="M280.564 1.23837V175.25" stroke="white" stroke-width="0.476744" stroke-linecap="round" stroke-dasharray="3.81 2.86"/>
<path d="M327.285 1.23837V175.25" stroke="white" stroke-width="0.476744" stroke-linecap="round" stroke-dasharray="3.81 2.86"/>
<path d="M346.866 147C345.929 147 345.088 146.823 344.344 146.47C343.615 146.117 343.042 145.58 342.625 144.859C342.208 144.123 342 143.203 342 142.099C342 141.231 342.179 140.414 342.536 139.649C342.893 138.869 343.443 138.236 344.187 137.751C344.946 137.25 345.914 137 347.089 137C348.295 137 349.254 137.228 349.969 137.684C350.683 138.141 351.196 138.744 351.509 139.494C351.836 140.23 352 141.047 352 141.945C352 142.813 351.814 143.637 351.442 144.417C351.085 145.182 350.527 145.808 349.768 146.294C349.024 146.765 348.057 147 346.866 147ZM347.112 138.567C346.487 138.567 345.921 138.707 345.415 138.987C344.924 139.266 344.53 139.678 344.232 140.223C343.949 140.753 343.808 141.393 343.808 142.143C343.808 142.747 343.905 143.299 344.098 143.799C344.307 144.299 344.634 144.697 345.08 144.991C345.542 145.286 346.144 145.433 346.888 145.433C347.558 145.433 348.138 145.286 348.629 144.991C349.135 144.682 349.522 144.263 349.79 143.733C350.058 143.188 350.192 142.563 350.192 141.857C350.192 141.18 350.073 140.598 349.835 140.113C349.612 139.612 349.269 139.23 348.808 138.965C348.362 138.7 347.796 138.567 347.112 138.567Z" fill="white"/>
<path d="M342.726 78C342.011 78 341.371 77.8617 340.807 77.5851C340.242 77.3084 339.8 76.9078 339.48 76.3831C339.16 75.849 339 75.2051 339 74.4515C339 73.6884 339.207 72.9921 339.621 72.3625C340.044 71.7234 340.642 71.132 341.413 70.5882C342.185 70.035 343.098 69.5056 344.152 69L344.702 69.7727C344.608 69.8967 344.537 70.0254 344.49 70.159C344.453 70.2925 344.434 70.4308 344.434 70.5739C344.434 70.8506 344.542 71.0747 344.758 71.2464C344.984 71.4086 345.271 71.4897 345.619 71.4897C345.648 71.4897 345.68 71.4897 345.718 71.4897C345.756 71.4897 345.793 71.4849 345.831 71.4754L346.297 72.2766C345.77 72.5723 345.323 72.8537 344.956 73.1208C344.589 73.3879 344.311 73.6598 344.123 73.9364C343.935 74.213 343.841 74.5135 343.841 74.8378C343.841 75.1049 343.94 75.3577 344.137 75.5962C344.335 75.8251 344.707 75.9396 345.252 75.9396C345.346 75.9396 345.436 75.9396 345.521 75.9396C345.615 75.93 345.695 75.9205 345.76 75.911L346.226 77.1272C345.756 77.4038 345.219 77.6184 344.617 77.7711C344.024 77.9237 343.394 78 342.726 78ZM342.825 76.9841C343.126 76.9841 343.38 76.9746 343.587 76.9555C343.794 76.9269 343.992 76.8935 344.18 76.8553C344.368 76.8076 344.575 76.7552 344.801 76.6979L344.773 76.7266C344.086 76.6407 343.578 76.4261 343.248 76.0827C342.928 75.7393 342.768 75.3196 342.768 74.8235C342.768 74.4515 342.848 74.1081 343.008 73.7933C343.178 73.469 343.427 73.1542 343.756 72.849C344.095 72.5437 344.514 72.2289 345.012 71.9046L344.984 72.2623C344.655 72.2242 344.377 72.1335 344.152 71.9905C343.935 71.8378 343.77 71.6518 343.658 71.4324C343.545 71.213 343.488 70.9841 343.488 70.7456C343.488 70.6407 343.498 70.5405 343.516 70.4452C343.535 70.3498 343.563 70.2591 343.601 70.1733L343.728 70.3736C343.022 70.7265 342.401 71.1224 341.865 71.5612C341.329 71.9905 340.905 72.4579 340.595 72.9634C340.294 73.469 340.143 74.0127 340.143 74.5946C340.143 75.186 340.275 75.6582 340.538 76.0111C340.802 76.3641 341.136 76.6169 341.54 76.7695C341.954 76.9126 342.383 76.9841 342.825 76.9841Z" fill="white"/>
<path d="M350.754 76.6979C350.161 76.6979 349.629 76.5835 349.159 76.3545C348.698 76.1256 348.336 75.7774 348.072 75.31C347.809 74.8331 347.677 74.2369 347.677 73.5215C347.677 72.9587 347.79 72.4293 348.016 71.9332C348.242 71.4277 348.59 71.0175 349.06 70.7027C349.54 70.3784 350.152 70.2162 350.895 70.2162C351.657 70.2162 352.264 70.3641 352.716 70.6598C353.167 70.9555 353.492 71.3466 353.689 71.8331C353.896 72.31 354 72.8394 354 73.4213C354 73.9841 353.882 74.5183 353.647 75.0238C353.421 75.5199 353.068 75.9253 352.589 76.2401C352.118 76.5453 351.507 76.6979 350.754 76.6979ZM350.909 71.2321C350.514 71.2321 350.156 71.3227 349.836 71.504C349.526 71.6852 349.277 71.9523 349.088 72.3052C348.91 72.6486 348.82 73.0636 348.82 73.5501C348.82 73.9412 348.881 74.2989 349.004 74.6232C349.135 74.9475 349.342 75.2051 349.625 75.3959C349.916 75.5866 350.298 75.682 350.768 75.682C351.191 75.682 351.558 75.5866 351.869 75.3959C352.189 75.1955 352.433 74.9237 352.603 74.5803C352.772 74.2273 352.857 73.8219 352.857 73.3641C352.857 72.9253 352.782 72.5485 352.631 72.2337C352.49 71.9094 352.273 71.6614 351.982 71.4897C351.699 71.318 351.342 71.2321 350.909 71.2321Z" fill="white"/>
<path d="M336.594 17C335.698 17 335.039 16.8098 334.617 16.4295C334.206 16.0386 334 15.5843 334 15.0666C334 14.6545 334.132 14.2742 334.395 13.9255C334.659 13.5769 335.112 13.3127 335.756 13.1331L336.214 14.3534C335.887 14.4274 335.65 14.5225 335.503 14.6387C335.366 14.7549 335.297 14.9081 335.297 15.0983C335.297 15.3096 335.402 15.4839 335.613 15.6212C335.835 15.748 336.156 15.8114 336.578 15.8114C337.232 15.8114 337.738 15.6529 338.097 15.336C338.455 15.019 338.634 14.6175 338.634 14.1315C338.634 13.8146 338.571 13.5346 338.445 13.2916C338.318 13.038 338.107 12.7739 337.812 12.4992C337.517 12.2245 337.111 11.9076 336.594 11.5483C335.94 11.0835 335.424 10.6926 335.044 10.3756C334.675 10.0586 334.411 9.76809 334.253 9.50396C334.105 9.22927 334.032 8.93344 334.032 8.61648C334.032 8.37348 334.1 8.10935 334.237 7.82409C334.385 7.52826 334.59 7.25357 334.854 7L335.898 7.55468C335.75 7.71315 335.629 7.87163 335.534 8.03011C335.439 8.18859 335.392 8.34707 335.392 8.50555C335.392 8.6429 335.413 8.77496 335.455 8.90174C335.497 9.02853 335.587 9.16587 335.724 9.31379C335.861 9.4617 336.061 9.64131 336.325 9.85261C336.599 10.0534 336.958 10.3069 337.401 10.6133C338.012 11.0254 338.497 11.4057 338.856 11.7544C339.214 12.103 339.467 12.4622 339.615 12.832C339.773 13.1912 339.852 13.6191 339.852 14.1157C339.852 14.7073 339.71 15.2198 339.425 15.6529C339.151 16.0861 338.766 16.4189 338.271 16.6513C337.785 16.8838 337.227 17 336.594 17Z" fill="white"/>
<path d="M346.002 15.5578C345.337 15.5578 344.742 15.4311 344.214 15.1775C343.698 14.9239 343.292 14.5383 342.997 14.0206C342.701 13.4923 342.554 12.832 342.554 12.0396C342.554 11.4163 342.68 10.8299 342.933 10.2805C343.186 9.72055 343.577 9.26624 344.104 8.91759C344.642 8.55837 345.327 8.37876 346.16 8.37876C347.014 8.37876 347.694 8.54253 348.2 8.87005C348.706 9.19757 349.07 9.63075 349.292 10.1696C349.524 10.6978 349.64 11.2842 349.64 11.9287C349.64 12.552 349.508 13.1437 349.244 13.7036C348.991 14.253 348.596 14.7021 348.058 15.0507C347.531 15.3888 346.845 15.5578 346.002 15.5578ZM346.176 9.50396C345.733 9.50396 345.332 9.60433 344.974 9.80507C344.626 10.0058 344.346 10.3016 344.135 10.6926C343.935 11.0729 343.835 11.5325 343.835 12.0713C343.835 12.5045 343.903 12.9007 344.04 13.2599C344.188 13.6191 344.42 13.9044 344.736 14.1157C345.063 14.327 345.49 14.4326 346.018 14.4326C346.492 14.4326 346.903 14.327 347.251 14.1157C347.61 13.8938 347.884 13.5927 348.074 13.2124C348.264 12.8214 348.358 12.3724 348.358 11.8653C348.358 11.3793 348.274 10.962 348.105 10.6133C347.947 10.2541 347.705 9.9794 347.378 9.78922C347.061 9.59905 346.661 9.50396 346.176 9.50396Z" fill="white"/>
<path d="M355.362 15.5578C354.698 15.5578 354.102 15.4311 353.575 15.1775C353.058 14.9239 352.652 14.5383 352.357 14.0206C352.062 13.4923 351.914 12.832 351.914 12.0396C351.914 11.4163 352.041 10.8299 352.294 10.2805C352.547 9.72055 352.937 9.26624 353.464 8.91759C354.002 8.55837 354.687 8.37876 355.52 8.37876C356.374 8.37876 357.055 8.54253 357.561 8.87005C358.067 9.19757 358.431 9.63075 358.652 10.1696C358.884 10.6978 359 11.2842 359 11.9287C359 12.552 358.868 13.1437 358.605 13.7036C358.352 14.253 357.956 14.7021 357.418 15.0507C356.891 15.3888 356.206 15.5578 355.362 15.5578ZM355.536 9.50396C355.093 9.50396 354.693 9.60433 354.334 9.80507C353.986 10.0058 353.707 10.3016 353.496 10.6926C353.295 11.0729 353.195 11.5325 353.195 12.0713C353.195 12.5045 353.264 12.9007 353.401 13.2599C353.548 13.6191 353.78 13.9044 354.097 14.1157C354.424 14.327 354.851 14.4326 355.378 14.4326C355.852 14.4326 356.264 14.327 356.612 14.1157C356.97 13.8938 357.244 13.5927 357.434 13.2124C357.624 12.8214 357.719 12.3724 357.719 11.8653C357.719 11.3793 357.634 10.962 357.466 10.6133C357.308 10.2541 357.065 9.9794 356.738 9.78922C356.422 9.59905 356.021 9.50396 355.536 9.50396Z" fill="white"/>
</svg>
