<svg width="359" height="176" viewBox="0 0 359 176" fill="none" xmlns="http://www.w3.org/2000/svg">
<path d="M0 1H327.047" stroke="white" stroke-opacity="0.8" stroke-width="0.476744"/>
<path opacity="0.8" d="M341.75 139.812V141.329C341.75 142.145 341.677 142.833 341.531 143.394C341.385 143.954 341.175 144.406 340.902 144.747C340.628 145.089 340.298 145.338 339.911 145.493C339.528 145.643 339.095 145.718 338.612 145.718C338.229 145.718 337.876 145.67 337.552 145.575C337.229 145.479 336.937 145.326 336.677 145.117C336.422 144.902 336.203 144.624 336.021 144.283C335.839 143.941 335.7 143.526 335.604 143.038C335.508 142.551 335.46 141.981 335.46 141.329V139.812C335.46 138.996 335.533 138.313 335.679 137.761C335.83 137.21 336.042 136.768 336.315 136.435C336.588 136.098 336.917 135.856 337.299 135.71C337.687 135.564 338.12 135.492 338.598 135.492C338.986 135.492 339.341 135.539 339.665 135.635C339.993 135.726 340.284 135.874 340.54 136.079C340.795 136.28 341.011 136.549 341.189 136.886C341.371 137.219 341.51 137.627 341.606 138.11C341.702 138.593 341.75 139.16 341.75 139.812ZM340.478 141.535V139.6C340.478 139.153 340.451 138.761 340.396 138.424C340.346 138.082 340.271 137.791 340.17 137.549C340.07 137.308 339.943 137.112 339.788 136.961C339.637 136.811 339.462 136.702 339.261 136.633C339.065 136.56 338.844 136.524 338.598 136.524C338.297 136.524 338.031 136.581 337.798 136.695C337.566 136.804 337.37 136.98 337.21 137.221C337.056 137.463 336.937 137.779 336.855 138.171C336.773 138.563 336.732 139.039 336.732 139.6V141.535C336.732 141.981 336.757 142.375 336.807 142.717C336.862 143.059 336.942 143.355 337.046 143.606C337.151 143.852 337.279 144.055 337.429 144.214C337.58 144.374 337.753 144.492 337.949 144.57C338.149 144.643 338.37 144.679 338.612 144.679C338.922 144.679 339.193 144.62 339.425 144.501C339.658 144.383 339.851 144.198 340.006 143.948C340.166 143.692 340.284 143.367 340.362 142.97C340.439 142.569 340.478 142.091 340.478 141.535Z" fill="white"/>
<path opacity="0.8" d="M336.148 74.1L335.136 73.8402L335.635 68.8842H340.741V70.0531H336.708L336.407 72.7601C336.59 72.6553 336.82 72.5573 337.098 72.4662C337.38 72.375 337.704 72.3295 338.069 72.3295C338.529 72.3295 338.941 72.4092 339.306 72.5687C339.67 72.7237 339.98 72.947 340.236 73.2386C340.495 73.5303 340.694 73.8812 340.83 74.2914C340.967 74.7015 341.035 75.1595 341.035 75.6654C341.035 76.1439 340.969 76.5837 340.837 76.9847C340.71 77.3858 340.516 77.7367 340.256 78.0375C339.996 78.3337 339.668 78.5638 339.272 78.7279C338.88 78.892 338.417 78.974 337.884 78.974C337.483 78.974 337.102 78.9193 336.742 78.8099C336.387 78.696 336.068 78.5251 335.785 78.2972C335.507 78.0648 335.28 77.7777 335.102 77.4359C334.929 77.0896 334.819 76.684 334.774 76.2191H335.977C336.031 76.5928 336.141 76.9073 336.305 77.1625C336.469 77.4177 336.683 77.6114 336.948 77.7435C337.216 77.8711 337.529 77.9349 337.884 77.9349C338.185 77.9349 338.451 77.8825 338.684 77.7777C338.916 77.6729 339.112 77.5225 339.272 77.3265C339.431 77.1306 339.552 76.8936 339.634 76.6156C339.721 76.3376 339.764 76.0254 339.764 75.6791C339.764 75.3646 339.721 75.073 339.634 74.8041C339.547 74.5352 339.418 74.3005 339.244 74.1C339.076 73.8995 338.868 73.7445 338.622 73.6351C338.376 73.5212 338.094 73.4642 337.775 73.4642C337.351 73.4642 337.03 73.5212 336.811 73.6351C336.597 73.7491 336.376 73.904 336.148 74.1ZM348.671 73.0677V74.5853C348.671 75.4011 348.598 76.0892 348.452 76.6498C348.307 77.2103 348.097 77.6615 347.823 78.0033C347.55 78.3451 347.22 78.5935 346.832 78.7484C346.449 78.8988 346.017 78.974 345.533 78.974C345.151 78.974 344.797 78.9261 344.474 78.8304C344.15 78.7347 343.859 78.5821 343.599 78.3724C343.344 78.1582 343.125 77.8802 342.943 77.5385C342.76 77.1967 342.621 76.7819 342.526 76.2943C342.43 75.8067 342.382 75.237 342.382 74.5853V73.0677C342.382 72.252 342.455 71.5684 342.601 71.017C342.751 70.4655 342.963 70.0235 343.237 69.6908C343.51 69.3536 343.838 69.112 344.221 68.9662C344.608 68.8204 345.041 68.7474 345.52 68.7474C345.907 68.7474 346.263 68.7953 346.586 68.891C346.914 68.9821 347.206 69.1302 347.461 69.3353C347.716 69.5358 347.933 69.8047 348.111 70.142C348.293 70.4747 348.432 70.8825 348.528 71.3656C348.623 71.8487 348.671 72.4161 348.671 73.0677ZM347.4 74.7904V72.8558C347.4 72.4092 347.372 72.0173 347.318 71.6801C347.267 71.3383 347.192 71.0466 347.092 70.8051C346.992 70.5635 346.864 70.3676 346.709 70.2172C346.559 70.0668 346.383 69.9574 346.183 69.889C345.987 69.8161 345.766 69.7797 345.52 69.7797C345.219 69.7797 344.952 69.8366 344.72 69.9506C344.488 70.0599 344.292 70.2354 344.132 70.4769C343.977 70.7185 343.859 71.0352 343.777 71.4271C343.695 71.8191 343.654 72.2953 343.654 72.8558V74.7904C343.654 75.237 343.679 75.6312 343.729 75.973C343.783 76.3148 343.863 76.611 343.968 76.8617C344.073 77.1078 344.2 77.3106 344.351 77.4701C344.501 77.6296 344.674 77.7481 344.87 77.8256C345.071 77.8985 345.292 77.9349 345.533 77.9349C345.843 77.9349 346.115 77.8757 346.347 77.7572C346.579 77.6387 346.773 77.4541 346.928 77.2035C347.087 76.9483 347.206 76.6224 347.283 76.226C347.361 75.8249 347.4 75.3464 347.4 74.7904Z" fill="white"/>
<path opacity="0.8" d="M339.658 3.99219V14H338.393V5.57129L335.843 6.50098V5.35938L339.459 3.99219H339.658ZM349.625 8.23047V9.74805C349.625 10.5638 349.552 11.252 349.406 11.8125C349.26 12.373 349.05 12.8242 348.777 13.166C348.503 13.5078 348.173 13.7562 347.786 13.9111C347.403 14.0615 346.97 14.1367 346.487 14.1367C346.104 14.1367 345.751 14.0889 345.427 13.9932C345.104 13.8975 344.812 13.7448 344.552 13.5352C344.297 13.321 344.078 13.043 343.896 12.7012C343.714 12.3594 343.575 11.9447 343.479 11.457C343.383 10.9694 343.335 10.3997 343.335 9.74805V8.23047C343.335 7.41471 343.408 6.73112 343.554 6.17969C343.705 5.62826 343.917 5.1862 344.19 4.85352C344.463 4.51628 344.792 4.27474 345.174 4.12891C345.562 3.98307 345.995 3.91016 346.473 3.91016C346.861 3.91016 347.216 3.95801 347.54 4.05371C347.868 4.14486 348.159 4.29297 348.415 4.49805C348.67 4.69857 348.886 4.96745 349.064 5.30469C349.246 5.63737 349.385 6.04525 349.481 6.52832C349.577 7.01139 349.625 7.57878 349.625 8.23047ZM348.353 9.95312V8.01855C348.353 7.57194 348.326 7.18001 348.271 6.84277C348.221 6.50098 348.146 6.20931 348.045 5.96777C347.945 5.72624 347.818 5.53027 347.663 5.37988C347.512 5.22949 347.337 5.12012 347.136 5.05176C346.94 4.97884 346.719 4.94238 346.473 4.94238C346.172 4.94238 345.906 4.99935 345.673 5.11328C345.441 5.22266 345.245 5.39811 345.085 5.63965C344.931 5.88118 344.812 6.19792 344.73 6.58984C344.648 6.98177 344.607 7.45801 344.607 8.01855V9.95312C344.607 10.3997 344.632 10.7939 344.682 11.1357C344.737 11.4775 344.817 11.7738 344.921 12.0244C345.026 12.2705 345.154 12.4733 345.304 12.6328C345.455 12.7923 345.628 12.9108 345.824 12.9883C346.024 13.0612 346.245 13.0977 346.487 13.0977C346.797 13.0977 347.068 13.0384 347.3 12.9199C347.533 12.8014 347.726 12.6169 347.881 12.3662C348.041 12.111 348.159 11.7852 348.237 11.3887C348.314 10.9876 348.353 10.5091 348.353 9.95312ZM357.5 8.23047V9.74805C357.5 10.5638 357.427 11.252 357.281 11.8125C357.135 12.373 356.925 12.8242 356.652 13.166C356.378 13.5078 356.048 13.7562 355.661 13.9111C355.278 14.0615 354.845 14.1367 354.362 14.1367C353.979 14.1367 353.626 14.0889 353.302 13.9932C352.979 13.8975 352.687 13.7448 352.427 13.5352C352.172 13.321 351.953 13.043 351.771 12.7012C351.589 12.3594 351.45 11.9447 351.354 11.457C351.258 10.9694 351.21 10.3997 351.21 9.74805V8.23047C351.21 7.41471 351.283 6.73112 351.429 6.17969C351.58 5.62826 351.792 5.1862 352.065 4.85352C352.338 4.51628 352.667 4.27474 353.049 4.12891C353.437 3.98307 353.87 3.91016 354.348 3.91016C354.736 3.91016 355.091 3.95801 355.415 4.05371C355.743 4.14486 356.034 4.29297 356.29 4.49805C356.545 4.69857 356.761 4.96745 356.939 5.30469C357.121 5.63737 357.26 6.04525 357.356 6.52832C357.452 7.01139 357.5 7.57878 357.5 8.23047ZM356.228 9.95312V8.01855C356.228 7.57194 356.201 7.18001 356.146 6.84277C356.096 6.50098 356.021 6.20931 355.92 5.96777C355.82 5.72624 355.693 5.53027 355.538 5.37988C355.387 5.22949 355.212 5.12012 355.011 5.05176C354.815 4.97884 354.594 4.94238 354.348 4.94238C354.047 4.94238 353.781 4.99935 353.548 5.11328C353.316 5.22266 353.12 5.39811 352.96 5.63965C352.806 5.88118 352.687 6.19792 352.605 6.58984C352.523 6.98177 352.482 7.45801 352.482 8.01855V9.95312C352.482 10.3997 352.507 10.7939 352.557 11.1357C352.612 11.4775 352.692 11.7738 352.796 12.0244C352.901 12.2705 353.029 12.4733 353.179 12.6328C353.33 12.7923 353.503 12.9108 353.699 12.9883C353.899 13.0612 354.12 13.0977 354.362 13.0977C354.672 13.0977 354.943 13.0384 355.175 12.9199C355.408 12.8014 355.601 12.6169 355.756 12.3662C355.916 12.111 356.034 11.7852 356.112 11.3887C356.189 10.9876 356.228 10.5091 356.228 9.95312Z" fill="white"/>
<path d="M0 37.2325H327.047" stroke="white" stroke-opacity="0.8" stroke-width="0.476744"/>
<path d="M0 73.465H327.047" stroke="white" stroke-opacity="0.8" stroke-width="0.476744"/>
<path d="M0 108.744H327.047" stroke="white" stroke-opacity="0.8" stroke-width="0.476744"/>
<path d="M0 144.977H327.047" stroke="white" stroke-opacity="0.8" stroke-width="0.476744"/>
<line x1="0.238372" y1="1.23837" x2="0.238364" y2="175.25" stroke="white" stroke-width="0.476744" stroke-linecap="round" stroke-dasharray="3.81 2.86"/>
<line x1="46.9593" y1="1.23837" x2="46.9593" y2="175.25" stroke="white" stroke-width="0.476744" stroke-linecap="round" stroke-dasharray="3.81 2.86"/>
<line x1="93.6803" y1="1.23837" x2="93.6803" y2="175.25" stroke="white" stroke-width="0.476744" stroke-linecap="round" stroke-dasharray="3.81 2.86"/>
<line x1="140.401" y1="1.23837" x2="140.401" y2="175.25" stroke="white" stroke-width="0.476744" stroke-linecap="round" stroke-dasharray="3.81 2.86"/>
<line x1="187.122" y1="1.23837" x2="187.122" y2="175.25" stroke="white" stroke-width="0.476744" stroke-linecap="round" stroke-dasharray="3.81 2.86"/>
<line x1="233.843" y1="1.23837" x2="233.843" y2="175.25" stroke="white" stroke-width="0.476744" stroke-linecap="round" stroke-dasharray="3.81 2.86"/>
<line x1="280.564" y1="1.23837" x2="280.564" y2="175.25" stroke="white" stroke-width="0.476744" stroke-linecap="round" stroke-dasharray="3.81 2.86"/>
<line x1="327.285" y1="1.23837" x2="327.285" y2="175.25" stroke="white" stroke-width="0.476744" stroke-linecap="round" stroke-dasharray="3.81 2.86"/>
</svg>
