<svg width="361" height="361" viewBox="0 0 361 361" fill="none" xmlns="http://www.w3.org/2000/svg">
<path d="M180.393 310.612C252.312 310.612 310.614 252.31 310.614 180.391C310.614 108.472 252.312 50.1699 180.393 50.1699C108.474 50.1699 50.1719 108.472 50.1719 180.391C50.1719 252.31 108.474 310.612 180.393 310.612Z" stroke="#EFEFEF" stroke-opacity="0.5" stroke-width="100" stroke-miterlimit="10"/>
<path d="M180.393 310.612C252.312 310.612 310.614 252.31 310.614 180.391C310.614 108.472 252.312 50.1699 180.393 50.1699C108.474 50.1699 50.1719 108.472 50.1719 180.391C50.1719 252.31 108.474 310.612 180.393 310.612Z" stroke="#131313" stroke-width="2" stroke-miterlimit="10"/>
<path d="M174.342 87.0288V70.7294H177.276L184.471 84.2812V70.7294H186.567V87.0288H183.68L176.438 73.5701V87.0288H174.342Z" fill="#131313"/>
<path d="M180.392 23.2558C177.114 23.2558 175.172 20.5082 175.172 16.1498C175.172 11.8199 177.133 9.07225 180.392 9.07225C183.661 9.07225 185.594 11.8104 185.594 16.1403C185.594 20.4987 183.671 23.2558 180.392 23.2558ZM180.392 21.4746C182.344 21.4746 183.453 19.4565 183.453 16.1498C183.453 12.8905 182.325 10.8535 180.392 10.8535C178.46 10.8535 177.323 12.9 177.323 16.1498C177.323 19.447 178.441 21.4746 180.392 21.4746Z" fill="#131313"/>
<path d="M86.6897 45.6041L85.8559 44.16L87.2836 43.3357C88.5636 42.5967 88.9773 41.2857 88.333 40.1698C87.6982 39.0703 86.5217 38.7759 85.1187 39.586C83.8387 40.325 83.4117 41.5562 83.9777 42.7829L82.2465 43.7824C81.1874 41.626 81.9824 39.3838 84.3291 38.0289C86.569 36.7356 88.9361 37.0647 89.9878 38.8862C90.8405 40.3631 90.4834 41.9805 89.1663 43.0911L89.1853 43.1239C91.0368 42.219 92.8156 42.647 93.7726 44.3044C94.9664 46.3721 93.907 48.8764 91.4372 50.3024C88.8855 51.7757 86.4344 51.3201 85.1399 49.3434L86.904 48.3248C87.6726 49.3908 89.058 49.6302 90.5514 48.768C91.9955 47.9343 92.5556 46.5169 91.8876 45.3599C91.1486 44.08 89.7256 43.8513 88.1666 44.7514L86.6897 45.6041ZM96.864 39.7298L96.0302 38.2857L97.4579 37.4614C98.7379 36.7224 99.1516 35.4114 98.5073 34.2955C97.8725 33.196 96.696 32.9016 95.2929 33.7117C94.0129 34.4507 93.586 35.6819 94.152 36.9086L92.4208 37.9081C91.3617 35.7517 92.1567 33.5095 94.5033 32.1546C96.7433 30.8613 99.1104 31.1904 100.162 33.0119C101.015 34.4888 100.658 36.1063 99.3406 37.2168L99.3596 37.2496C101.211 36.3447 102.99 36.7727 103.947 38.4302C105.141 40.4978 104.081 43.0022 101.612 44.4281C99.0597 45.9014 96.6086 45.4458 95.3142 43.4691L97.0783 42.4505C97.8469 43.5165 99.2323 43.7559 100.726 42.8937C102.17 42.06 102.73 40.6426 102.062 39.4857C101.323 38.2057 99.8999 37.977 98.3409 38.8771L96.864 39.7298ZM111.999 38.4306C109.16 40.0697 106.104 38.6614 103.925 34.8871C101.76 31.1374 102.085 27.7773 104.907 26.1477C107.738 24.5133 110.781 25.9181 112.946 29.6678C115.125 33.4422 114.838 36.7915 111.999 38.4306ZM111.108 36.8881C112.799 35.9122 112.75 33.6103 111.096 30.7467C109.467 27.9241 107.472 26.7238 105.798 27.6902C104.124 28.6566 104.163 30.9974 105.788 33.8117C107.436 36.6671 109.418 37.864 111.108 36.8881Z" fill="#131313"/>
<path d="M31.7675 110.656L30.3234 109.823L31.1477 108.395C31.8867 107.115 31.5895 105.773 30.4736 105.128C29.3742 104.494 28.2081 104.827 27.398 106.23C26.659 107.51 26.9047 108.79 28.0083 109.569L27.0087 111.3C25.0133 109.962 24.5808 107.623 25.9356 105.276C27.2289 103.036 29.4434 102.138 31.265 103.189C32.7419 104.042 33.2413 105.621 32.6559 107.242L32.6887 107.261C33.8398 105.551 35.5943 105.033 37.2517 105.989C39.3194 107.183 39.654 109.882 38.2281 112.352C36.7548 114.903 34.4042 115.734 32.2948 114.67L33.3134 112.905C34.512 113.444 35.8315 112.959 36.6937 111.466C37.5275 110.022 37.3039 108.514 36.147 107.846C34.867 107.107 33.5203 107.62 32.6202 109.179L31.7675 110.656ZM44.2255 101.964C42.5864 104.803 39.2358 105.111 35.4615 102.932C31.7118 100.767 30.3129 97.6947 31.9426 94.8722C33.5769 92.0414 36.9146 91.7367 40.6643 93.9016C44.4387 96.0808 45.8646 99.125 44.2255 101.964ZM42.683 101.073C43.6589 99.3831 42.4655 97.414 39.6019 95.7607C36.7794 94.1311 34.4515 94.0889 33.4851 95.7628C32.5187 97.4366 33.7225 99.4445 36.5368 101.069C39.3922 102.718 41.7071 102.764 42.683 101.073ZM50.2704 91.4943C48.6312 94.3332 45.2806 94.6414 41.5063 92.4623C37.7566 90.2973 36.3578 87.225 37.9874 84.4025C39.6218 81.5718 42.9594 81.267 46.7092 83.432C50.4835 85.6111 51.9095 88.6553 50.2704 91.4943ZM48.7278 90.6037C49.7037 88.9134 48.5103 86.9444 45.6467 85.2911C42.8242 83.6614 40.4964 83.6193 39.5299 85.2931C38.5635 86.967 39.7673 88.9748 42.5817 90.5997C45.437 92.2483 47.7519 92.2939 48.7278 90.6037Z" fill="#131313"/>
<path d="M13.3358 196.497C10.8724 196.497 9.07225 194.517 9.07225 191.798C9.07225 189.192 10.7303 187.25 12.9 187.25C14.4918 187.25 15.6761 188.103 17.7226 190.102L21.1619 193.522L21.2093 193.522L21.2093 187.032L23 187.032L23 196.384L21.5599 196.384L16.5288 191.447C14.7949 189.78 14.0749 189.344 13.0042 189.344C11.7915 189.344 10.8251 190.443 10.8251 191.864C10.8251 193.361 11.9052 194.489 13.3264 194.489L13.3548 194.489L13.3548 196.497L13.3358 196.497ZM23 184.389L11.1662 178.315L11.1188 178.315L11.1188 185.526L9.32807 185.526L9.32807 176.222L11.1662 176.222L23 182.162L23 184.389ZM23.2558 169.532C23.2558 172.811 20.5082 174.753 16.1498 174.753C11.8199 174.753 9.07225 172.792 9.07225 169.532C9.07225 166.264 11.8104 164.331 16.1403 164.331C20.4987 164.331 23.2558 166.254 23.2558 169.532ZM21.4746 169.532C21.4746 167.581 19.4565 166.472 16.1498 166.472C12.8905 166.472 10.8535 167.6 10.8535 169.532C10.8535 171.465 12.9 172.602 16.1498 172.602C19.447 172.602 21.4746 171.484 21.4746 169.532Z" fill="#131313"/>
<path d="M44.0832 278.406C41.9499 279.638 39.4009 278.823 38.0413 276.468C36.7385 274.212 37.2032 271.701 39.0822 270.616C40.4606 269.82 41.9126 269.966 44.6845 270.674L49.3731 271.917L49.4141 271.893L46.1691 266.273L47.7198 265.377L52.3956 273.476L51.1484 274.196L44.3234 272.436C41.9881 271.859 41.1466 271.842 40.2194 272.377C39.1691 272.983 38.8818 274.418 39.5924 275.649C40.3409 276.946 41.84 277.382 43.0707 276.671L43.0953 276.657L44.0997 278.397L44.0832 278.406ZM43.7262 258.46L41.3878 259.81L44.8082 265.735L43.2 266.663C40.7008 266.749 37.7987 266.631 32.4027 266.191L30.8678 263.532L38.8267 258.937L37.8887 257.312L39.4313 256.422L40.3693 258.046L42.7077 256.696L43.7262 258.46ZM42.2591 264.92L42.3001 264.896L39.8604 260.67L33.2963 264.46L33.3153 264.493C37.4617 264.834 39.9994 264.966 42.2591 264.92ZM38.6799 249.208C40.319 252.047 38.9107 255.103 35.1363 257.282C31.3866 259.447 28.0265 259.123 26.3969 256.3C24.7625 253.469 26.1674 250.427 29.9171 248.262C33.6914 246.082 37.0408 246.369 38.6799 249.208ZM37.1373 250.099C36.1614 248.409 33.8595 248.458 30.9959 250.111C28.1734 251.741 26.973 253.736 27.9395 255.41C28.9059 257.083 31.2466 257.045 34.061 255.42C36.9163 253.771 38.1132 251.789 37.1373 250.099Z" fill="#131313"/>
<path d="M109.975 332.63C108.743 334.763 106.128 335.332 103.773 333.972C101.517 332.669 100.664 330.262 101.749 328.383C102.545 327.005 103.875 326.406 106.63 325.633L111.312 324.365L111.335 324.324L105.715 321.079L106.61 319.528L114.708 324.204L113.988 325.451L107.198 327.34C104.887 328.007 104.15 328.413 103.614 329.34C103.008 330.39 103.476 331.777 104.707 332.487C106.004 333.236 107.52 332.864 108.231 331.634L108.245 331.609L109.984 332.613L109.975 332.63ZM101.982 316.856L96.1982 326.874L96.2392 326.898L100.602 326.485L99.5599 328.29L95.1629 328.705L93.3496 327.659L100.186 315.819L101.982 316.856ZM93.1094 311.438C95.9483 313.077 96.2566 316.427 94.0774 320.202C91.9124 323.951 88.8402 325.35 86.0176 323.721C83.1869 322.086 82.8821 318.749 85.0471 314.999C87.2263 311.225 90.2705 309.799 93.1094 311.438ZM92.2188 312.98C90.5285 312.004 88.5595 313.198 86.9062 316.061C85.2765 318.884 85.2344 321.212 86.9082 322.178C88.5821 323.145 90.5899 321.941 92.2148 319.126C93.8634 316.271 93.909 313.956 92.2188 312.98Z" fill="#131313"/>
<path d="M192.333 337.776V349.344H192.381L195.952 346.805V348.89L192.352 351.448H190.258V337.776H192.333ZM181.987 337.52C185.038 337.52 187.16 339.159 187.16 341.471C187.16 343.214 185.928 344.607 184.119 344.986V345.033C185.635 345.45 186.61 346.635 186.61 348.103C186.61 350.178 184.668 351.704 181.987 351.704C179.296 351.704 177.373 350.188 177.373 348.094C177.373 346.644 178.339 345.469 179.855 345.033V344.986C178.036 344.607 176.814 343.205 176.814 341.471C176.814 339.15 178.955 337.52 181.987 337.52ZM181.987 339.226C180.243 339.226 179.012 340.23 179.012 341.623C179.012 343.034 180.243 344.039 181.987 344.039C183.73 344.039 184.971 343.025 184.971 341.623C184.971 340.23 183.73 339.226 181.987 339.226ZM181.987 345.744C180.518 345.744 179.467 346.635 179.467 347.876C179.467 349.127 180.509 350.017 181.987 350.017C183.474 350.017 184.507 349.127 184.507 347.876C184.507 346.635 183.474 345.744 181.987 345.744ZM169.945 337.52C173.223 337.52 175.165 340.268 175.165 344.626C175.165 348.956 173.204 351.704 169.945 351.704C166.676 351.704 164.743 348.965 164.743 344.636C164.743 340.277 166.666 337.52 169.945 337.52ZM169.945 339.301C167.993 339.301 166.884 341.319 166.884 344.626C166.884 347.885 168.012 349.922 169.945 349.922C171.877 349.922 173.014 347.876 173.014 344.626C173.014 341.329 171.896 339.301 169.945 339.301Z" fill="#131313"/>
<path d="M269.269 310.806L275.053 320.825L275.094 320.801L276.918 316.816L277.96 318.621L276.121 322.637L274.308 323.684L267.472 311.844L269.269 310.806ZM260.214 315.739C262.577 314.375 265.142 314.819 266.443 316.825L264.687 317.839C263.878 316.742 262.405 316.52 261.084 317.283C259.59 318.145 259.158 319.784 260.015 321.269C260.873 322.754 262.523 323.224 264 322.371C265.025 321.779 265.641 320.8 265.651 319.755L267.333 318.784L270.575 325.839L263.527 329.909L262.631 328.358L268.203 325.141L266.432 321.317L266.391 321.341C266.305 322.386 265.598 323.396 264.441 324.064C262.168 325.376 259.573 324.653 258.247 322.356C256.845 319.927 257.662 317.212 260.214 315.739ZM250.064 321.599C252.903 319.96 255.959 321.368 258.138 325.143C260.303 328.892 259.979 332.253 257.156 333.882C254.325 335.517 251.283 334.112 249.118 330.362C246.938 326.588 247.225 323.238 250.064 321.599ZM250.955 323.142C249.265 324.118 249.314 326.42 250.967 329.283C252.597 332.106 254.592 333.306 256.266 332.34C257.939 331.373 257.901 329.032 256.276 326.218C254.627 323.363 252.645 322.166 250.955 323.142Z" fill="#131313"/>
<path d="M322.469 249.063L332.488 254.848L332.511 254.806L332.099 250.444L333.904 251.486L334.319 255.883L333.272 257.696L321.432 250.86L322.469 249.063ZM328.19 258.482C330.324 259.714 330.893 262.329 329.533 264.683C328.23 266.94 325.823 267.793 323.944 266.708C322.566 265.912 321.966 264.581 321.194 261.827L319.926 257.145L319.884 257.122L316.639 262.742L315.089 261.847L319.764 253.748L321.012 254.468L322.9 261.259C323.568 263.57 323.974 264.307 324.901 264.843C325.951 265.449 327.338 264.98 328.048 263.75C328.797 262.453 328.425 260.937 327.194 260.226L327.17 260.212L328.174 258.472L328.19 258.482ZM311.433 267.667C313.072 264.829 316.422 264.52 320.197 266.699C323.946 268.864 325.345 271.937 323.716 274.759C322.081 277.59 318.743 277.895 314.994 275.73C311.219 273.551 309.793 270.506 311.433 267.667ZM312.975 268.558C311.999 270.248 313.193 272.217 316.056 273.871C318.879 275.5 321.207 275.542 322.173 273.869C323.139 272.195 321.936 270.187 319.121 268.562C316.266 266.913 313.951 266.868 312.975 268.558Z" fill="#131313"/>
<path d="M337.516 174.029C337.516 171.594 338.975 169.708 341.145 169.301L341.145 171.433C340.027 171.755 339.279 172.797 339.279 174.057C339.279 176.189 341.249 177.44 344.698 177.44C344.698 177.44 344.698 177.43 344.698 177.421L344.698 177.411L344.698 177.402C343.353 176.852 342.462 175.412 342.462 173.65C342.462 171.054 344.386 169.111 346.982 169.111C349.72 169.111 351.709 171.215 351.709 174.105C351.709 176.132 350.677 177.762 348.839 178.643C347.749 179.202 346.404 179.486 344.802 179.486C340.226 179.486 337.516 177.459 337.516 174.029ZM344.196 174.105C344.196 175.782 345.399 177.032 347.01 177.032C348.63 177.032 349.9 175.763 349.9 174.133C349.9 172.503 348.64 171.224 347.048 171.224C345.409 171.224 344.196 172.446 344.196 174.105ZM337.516 186.365C337.516 183.087 340.264 181.144 344.622 181.144C348.952 181.144 351.7 183.105 351.7 186.365C351.7 189.633 348.962 191.566 344.632 191.566C340.274 191.566 337.516 189.643 337.516 186.365ZM339.298 186.365C339.298 188.317 341.316 189.425 344.622 189.425C347.882 189.425 349.919 188.298 349.919 186.365C349.919 184.432 347.872 183.295 344.622 183.295C341.325 183.295 339.298 184.413 339.298 186.365Z" fill="#131313"/>
<path d="M313.56 96.8077C312.551 95.0601 312.635 93.1406 313.79 91.4456C314.454 90.4167 315.477 89.4978 316.863 88.6972C320.827 86.4091 324.196 86.8265 325.907 89.7885C327.115 91.8808 326.797 94.2302 325.119 95.6808L324.057 93.8429C324.86 92.9967 324.98 91.7458 324.355 90.6627C323.279 88.8002 320.964 88.693 317.98 90.4045L317.999 90.4373C319.447 90.291 320.943 91.101 321.795 92.5779C323.098 94.8343 322.399 97.4698 320.151 98.7679C317.78 100.137 315.009 99.3185 313.56 96.8077ZM315.101 95.896C315.906 97.2908 317.65 97.7719 319.037 96.9713C320.473 96.1423 320.905 94.5033 320.066 93.051C319.233 91.6069 317.578 91.129 316.175 91.9391C314.772 92.7492 314.286 94.4847 315.101 95.896ZM319.457 107.002C317.817 104.163 319.226 101.107 323 98.9279C326.75 96.7629 330.11 97.0876 331.74 99.9101C333.374 102.741 331.969 105.784 328.219 107.949C324.445 110.128 321.096 109.841 319.457 107.002ZM320.999 106.111C321.975 107.802 324.277 107.752 327.141 106.099C329.963 104.469 331.163 102.475 330.197 100.801C329.231 99.1269 326.89 99.1655 324.075 100.79C321.22 102.439 320.023 104.421 320.999 106.111Z" fill="#131313"/>
<path d="M255.354 34.7921L256.187 33.3481L257.615 34.1724C258.895 34.9114 260.237 34.6142 260.882 33.4983C261.516 32.3988 261.183 31.2327 259.78 30.4226C258.5 29.6836 257.22 29.9294 256.441 31.0329L254.71 30.0333C256.048 28.038 258.387 27.6054 260.734 28.9603C262.974 30.2536 263.872 32.4681 262.821 34.2896C261.968 35.7665 260.389 36.266 258.768 35.6805L258.749 35.7134C260.459 36.8644 260.977 38.6189 260.021 40.2764C258.827 42.344 256.128 42.6787 253.658 41.2527C251.107 39.7794 250.276 37.4289 251.341 35.3195L253.105 36.338C252.566 37.5367 253.051 38.8562 254.544 39.7184C255.988 40.5522 257.496 40.3286 258.164 39.1716C258.903 37.8916 258.39 36.545 256.831 35.6449L255.354 34.7921ZM264.046 47.2502C261.207 45.6111 260.899 42.2605 263.078 38.4861C265.243 34.7364 268.315 33.3376 271.138 34.9672C273.969 36.6016 274.273 39.9393 272.108 43.689C269.929 47.4633 266.885 48.8893 264.046 47.2502ZM264.937 45.7076C266.627 46.6835 268.596 45.4901 270.249 42.6266C271.879 39.804 271.921 37.4762 270.247 36.5098C268.573 35.5434 266.566 36.7472 264.941 39.5615C263.292 42.4169 263.246 44.7317 264.937 45.7076Z" fill="#131313"/>
<path d="M179.622 286.386C178.489 286.386 177.456 286.238 176.525 285.943C175.594 285.633 174.81 285.229 174.173 284.733L175.291 282.87C175.85 283.336 176.478 283.716 177.177 284.011C177.875 284.306 178.69 284.453 179.622 284.453C180.74 284.453 181.624 284.22 182.276 283.755C182.928 283.289 183.254 282.66 183.254 281.869C183.254 281.418 183.161 281.023 182.975 280.681C182.789 280.324 182.424 279.983 181.88 279.657C181.353 279.315 180.569 278.95 179.529 278.562C178.411 278.127 177.518 277.693 176.851 277.258C176.183 276.808 175.702 276.303 175.407 275.745C175.128 275.17 174.988 274.495 174.988 273.719C174.988 272.943 175.198 272.244 175.617 271.623C176.051 270.987 176.68 270.482 177.503 270.11C178.341 269.722 179.35 269.528 180.53 269.528C181.492 269.528 182.354 269.628 183.115 269.83C183.891 270.017 184.644 270.288 185.373 270.645L184.558 272.531C184.03 272.221 183.41 271.965 182.695 271.763C181.997 271.546 181.26 271.437 180.483 271.437C179.459 271.437 178.652 271.639 178.062 272.042C177.472 272.446 177.177 272.966 177.177 273.602C177.177 274.006 177.262 274.363 177.433 274.674C177.604 274.984 177.938 275.287 178.434 275.582C178.947 275.877 179.707 276.21 180.716 276.583C181.927 277.033 182.882 277.507 183.58 278.003C184.294 278.5 184.799 279.043 185.094 279.633C185.389 280.208 185.536 280.867 185.536 281.612C185.536 282.621 185.28 283.483 184.768 284.197C184.271 284.911 183.573 285.454 182.672 285.827C181.787 286.2 180.771 286.386 179.622 286.386Z" fill="#131313"/>
<path d="M283.096 188V171.701H292.875V173.61H285.308V178.57H291.827V180.432H285.308V186.091H292.875V188H283.096Z" fill="#131313"/>
<path d="M75.7734 188L71.3493 172.236L73.5381 171.538L77.2171 185.648L80.6865 173.4H83.4574L86.9036 185.648L90.5593 171.607L92.6084 172.236L88.2076 188H85.4599L82.0138 175.752L78.521 188H75.7734Z" fill="#131313"/>
<path d="M180.393 40.9336V59.4257" stroke="#131313" stroke-width="3.88082" stroke-miterlimit="10"/>
<path d="M110.655 59.6196L119.91 75.628" stroke="#131313" stroke-width="3.88082" stroke-miterlimit="10"/>
<path d="M59.6021 110.653L75.6299 119.909" stroke="#131313" stroke-width="3.88082" stroke-miterlimit="10"/>
<path d="M40.9355 180.391H59.4277" stroke="#131313" stroke-width="3.88082" stroke-miterlimit="10"/>
<path d="M59.6021 250.11L75.6299 240.874" stroke="#131313" stroke-width="3.88082" stroke-miterlimit="10"/>
<path d="M110.655 301.162L119.91 285.153" stroke="#131313" stroke-width="3.88082" stroke-miterlimit="10"/>
<path d="M180.393 319.848V301.355" stroke="#131313" stroke-width="3.88082" stroke-miterlimit="10"/>
<path d="M250.112 301.162L240.875 285.153" stroke="#131313" stroke-width="3.88082" stroke-miterlimit="10"/>
<path d="M301.163 250.11L285.155 240.874" stroke="#131313" stroke-width="3.88082" stroke-miterlimit="10"/>
<path d="M319.85 180.391H301.358" stroke="#131313" stroke-width="3.88082" stroke-miterlimit="10"/>
<path d="M301.163 110.653L285.155 119.909" stroke="#131313" stroke-width="3.88082" stroke-miterlimit="10"/>
<path d="M250.112 59.6196L240.875 75.628" stroke="#131313" stroke-width="3.88082" stroke-miterlimit="10"/>
<path d="M180.393 40.9336V59.4257" stroke="#131313" stroke-width="0.970205" stroke-miterlimit="10"/>
<path d="M168.227 41.4575L169.837 59.8914" stroke="#131313" stroke-width="0.970205" stroke-miterlimit="10"/>
<path d="M156.177 43.0483L159.378 61.2688" stroke="#131313" stroke-width="0.970205" stroke-miterlimit="10"/>
<path d="M144.301 45.6875L149.075 63.5393" stroke="#131313" stroke-width="0.970205" stroke-miterlimit="10"/>
<path d="M132.698 49.3354L139.023 66.7216" stroke="#131313" stroke-width="0.970205" stroke-miterlimit="10"/>
<path d="M121.443 53.9922L129.263 70.7574" stroke="#131313" stroke-width="0.970205" stroke-miterlimit="10"/>
<path d="M110.655 59.6196L119.91 75.628" stroke="#131313" stroke-width="0.970205" stroke-miterlimit="10"/>
<path d="M100.39 66.1392L111.004 81.2938" stroke="#131313" stroke-width="0.970205" stroke-miterlimit="10"/>
<path d="M90.7458 73.5518L102.641 87.7167" stroke="#131313" stroke-width="0.970205" stroke-miterlimit="10"/>
<path d="M81.7812 81.7788L94.8596 94.8572" stroke="#131313" stroke-width="0.970205" stroke-miterlimit="10"/>
<path d="M73.554 90.7437L87.7188 102.638" stroke="#131313" stroke-width="0.970205" stroke-miterlimit="10"/>
<path d="M66.1414 100.388L81.2961 111.002" stroke="#131313" stroke-width="0.970205" stroke-miterlimit="10"/>
<path d="M59.6021 110.653L75.6299 119.909" stroke="#131313" stroke-width="0.970205" stroke-miterlimit="10"/>
<path d="M53.9944 121.441L70.7596 129.261" stroke="#131313" stroke-width="0.970205" stroke-miterlimit="10"/>
<path d="M49.3376 132.695L66.7236 139.021" stroke="#131313" stroke-width="0.970205" stroke-miterlimit="10"/>
<path d="M45.6702 144.299L63.5413 149.073" stroke="#131313" stroke-width="0.970205" stroke-miterlimit="10"/>
<path d="M43.0505 156.174L61.2516 159.376" stroke="#131313" stroke-width="0.970205" stroke-miterlimit="10"/>
<path d="M41.4595 168.225L59.8739 169.855" stroke="#131313" stroke-width="0.970205" stroke-miterlimit="10"/>
<path d="M40.9355 180.391H59.4277" stroke="#131313" stroke-width="0.970205" stroke-miterlimit="10"/>
<path d="M41.4595 192.538L59.8739 190.927" stroke="#131313" stroke-width="0.970205" stroke-miterlimit="10"/>
<path d="M43.0505 204.607L61.2516 201.386" stroke="#131313" stroke-width="0.970205" stroke-miterlimit="10"/>
<path d="M45.6702 216.482L63.5413 211.689" stroke="#131313" stroke-width="0.970205" stroke-miterlimit="10"/>
<path d="M49.3376 228.086L66.7236 221.76" stroke="#131313" stroke-width="0.970205" stroke-miterlimit="10"/>
<path d="M53.9944 239.321L70.7596 231.501" stroke="#131313" stroke-width="0.970205" stroke-miterlimit="10"/>
<path d="M59.6021 250.11L75.6299 240.874" stroke="#131313" stroke-width="0.970205" stroke-miterlimit="10"/>
<path d="M66.1414 260.374L81.2961 249.78" stroke="#131313" stroke-width="0.970205" stroke-miterlimit="10"/>
<path d="M73.554 270.038L87.7188 258.143" stroke="#131313" stroke-width="0.970205" stroke-miterlimit="10"/>
<path d="M81.7812 279.002L94.8596 265.924" stroke="#131313" stroke-width="0.970205" stroke-miterlimit="10"/>
<path d="M90.7458 287.23L102.641 273.045" stroke="#131313" stroke-width="0.970205" stroke-miterlimit="10"/>
<path d="M100.39 294.623L111.004 279.487" stroke="#131313" stroke-width="0.970205" stroke-miterlimit="10"/>
<path d="M110.655 301.162L119.91 285.153" stroke="#131313" stroke-width="0.970205" stroke-miterlimit="10"/>
<path d="M121.443 306.789L129.263 290.024" stroke="#131313" stroke-width="0.970205" stroke-miterlimit="10"/>
<path d="M132.698 311.446L139.023 294.06" stroke="#131313" stroke-width="0.970205" stroke-miterlimit="10"/>
<path d="M144.301 315.094L149.075 297.223" stroke="#131313" stroke-width="0.970205" stroke-miterlimit="10"/>
<path d="M156.177 317.733L159.378 299.513" stroke="#131313" stroke-width="0.970205" stroke-miterlimit="10"/>
<path d="M168.227 319.324L169.837 300.89" stroke="#131313" stroke-width="0.970205" stroke-miterlimit="10"/>
<path d="M180.393 319.848V301.355" stroke="#131313" stroke-width="0.970205" stroke-miterlimit="10"/>
<path d="M192.54 319.324L190.929 300.89" stroke="#131313" stroke-width="0.970205" stroke-miterlimit="10"/>
<path d="M204.609 317.733L201.388 299.513" stroke="#131313" stroke-width="0.970205" stroke-miterlimit="10"/>
<path d="M216.485 315.094L211.692 297.223" stroke="#131313" stroke-width="0.970205" stroke-miterlimit="10"/>
<path d="M228.088 311.446L221.762 294.06" stroke="#131313" stroke-width="0.970205" stroke-miterlimit="10"/>
<path d="M239.323 306.789L231.503 290.024" stroke="#131313" stroke-width="0.970205" stroke-miterlimit="10"/>
<path d="M250.112 301.162L240.875 285.153" stroke="#131313" stroke-width="0.970205" stroke-miterlimit="10"/>
<path d="M260.377 294.623L249.763 279.487" stroke="#131313" stroke-width="0.970205" stroke-miterlimit="10"/>
<path d="M270.039 287.23L258.145 273.045" stroke="#131313" stroke-width="0.970205" stroke-miterlimit="10"/>
<path d="M279.005 279.002L265.926 265.924" stroke="#131313" stroke-width="0.970205" stroke-miterlimit="10"/>
<path d="M287.213 270.038L273.048 258.143" stroke="#131313" stroke-width="0.970205" stroke-miterlimit="10"/>
<path d="M294.625 260.374L279.47 249.78" stroke="#131313" stroke-width="0.970205" stroke-miterlimit="10"/>
<path d="M301.163 250.11L285.155 240.874" stroke="#131313" stroke-width="0.970205" stroke-miterlimit="10"/>
<path d="M306.791 239.321L290.026 231.501" stroke="#131313" stroke-width="0.970205" stroke-miterlimit="10"/>
<path d="M311.448 228.086L294.062 221.76" stroke="#131313" stroke-width="0.970205" stroke-miterlimit="10"/>
<path d="M315.096 216.482L297.225 211.689" stroke="#131313" stroke-width="0.970205" stroke-miterlimit="10"/>
<path d="M317.735 204.607L299.515 201.386" stroke="#131313" stroke-width="0.970205" stroke-miterlimit="10"/>
<path d="M319.326 192.538L300.893 190.927" stroke="#131313" stroke-width="0.970205" stroke-miterlimit="10"/>
<path d="M319.85 180.391H301.358" stroke="#131313" stroke-width="0.970205" stroke-miterlimit="10"/>
<path d="M319.326 168.225L300.893 169.855" stroke="#131313" stroke-width="0.970205" stroke-miterlimit="10"/>
<path d="M317.735 156.174L299.515 159.376" stroke="#131313" stroke-width="0.970205" stroke-miterlimit="10"/>
<path d="M315.096 144.299L297.225 149.073" stroke="#131313" stroke-width="0.970205" stroke-miterlimit="10"/>
<path d="M311.448 132.695L294.062 139.021" stroke="#131313" stroke-width="0.970205" stroke-miterlimit="10"/>
<path d="M306.791 121.441L290.026 129.261" stroke="#131313" stroke-width="0.970205" stroke-miterlimit="10"/>
<path d="M301.163 110.653L285.155 119.909" stroke="#131313" stroke-width="0.970205" stroke-miterlimit="10"/>
<path d="M294.625 100.388L279.47 111.002" stroke="#131313" stroke-width="0.970205" stroke-miterlimit="10"/>
<path d="M287.213 90.7437L273.048 102.638" stroke="#131313" stroke-width="0.970205" stroke-miterlimit="10"/>
<path d="M279.005 81.7788L265.926 94.8572" stroke="#131313" stroke-width="0.970205" stroke-miterlimit="10"/>
<path d="M270.039 73.5518L258.145 87.7167" stroke="#131313" stroke-width="0.970205" stroke-miterlimit="10"/>
<path d="M260.377 66.1392L249.763 81.2938" stroke="#131313" stroke-width="0.970205" stroke-miterlimit="10"/>
<path d="M250.112 59.6196L240.875 75.628" stroke="#131313" stroke-width="0.970205" stroke-miterlimit="10"/>
<path d="M239.323 53.9922L231.503 70.7574" stroke="#131313" stroke-width="0.970205" stroke-miterlimit="10"/>
<path d="M228.088 49.3354L221.762 66.7216" stroke="#131313" stroke-width="0.970205" stroke-miterlimit="10"/>
<path d="M216.485 45.6875L211.692 63.5393" stroke="#131313" stroke-width="0.970205" stroke-miterlimit="10"/>
<path d="M204.609 43.0483L201.388 61.2688" stroke="#131313" stroke-width="0.970205" stroke-miterlimit="10"/>
<path d="M192.54 41.4575L190.929 59.8914" stroke="#131313" stroke-width="0.970205" stroke-miterlimit="10"/>
</svg>
