<svg width="351" height="351" viewBox="0 0 351 351" fill="none" xmlns="http://www.w3.org/2000/svg">
<path d="M175.393 305.612C247.312 305.612 305.614 247.31 305.614 175.391C305.614 103.472 247.312 45.1697 175.393 45.1697C103.474 45.1697 45.1718 103.472 45.1718 175.391C45.1718 247.31 103.474 305.612 175.393 305.612Z" stroke="black" stroke-width="3.88082" stroke-miterlimit="10"/>
<path d="M170.862 82.0288H168.839V65.6225H170.828L179.81 78.5042H179.913V65.6225H181.936V82.0288H179.947L170.965 69.1925H170.862V82.0288Z" fill="#131313"/>
<path d="M175.392 18.2558C172.114 18.2558 170.172 15.5082 170.172 11.1498C170.172 6.8199 172.133 4.07225 175.392 4.07225C178.661 4.07225 180.594 6.81043 180.594 11.1403C180.594 15.4987 178.671 18.2558 175.392 18.2558ZM175.392 16.4746C177.344 16.4746 178.453 14.4565 178.453 11.1498C178.453 7.89054 177.325 5.85349 175.392 5.85349C173.46 5.85349 172.323 7.90001 172.323 11.1498C172.323 14.447 173.441 16.4746 175.392 16.4746Z" fill="#131313"/>
<path d="M81.6897 40.6043L80.8559 39.1602L82.2836 38.3359C83.5636 37.5969 83.9773 36.2859 83.333 35.17C82.6982 34.0706 81.5217 33.7762 80.1187 34.5862C78.8387 35.3253 78.4117 36.5564 78.9777 37.7831L77.2465 38.7827C76.1874 36.6263 76.9824 34.384 79.3291 33.0291C81.569 31.7358 83.9361 32.0649 84.9878 33.8864C85.8405 35.3633 85.4834 36.9808 84.1663 38.0913L84.1853 38.1241C86.0368 37.2192 87.8156 37.6473 88.7726 39.3047C89.9664 41.3724 88.907 43.8767 86.4372 45.3026C83.8855 46.7759 81.4344 46.3203 80.1399 44.3436L81.904 43.3251C82.6726 44.391 84.058 44.6305 85.5514 43.7683C86.9955 42.9345 87.5556 41.5171 86.8876 40.3602C86.1486 39.0802 84.7256 38.8515 83.1666 39.7516L81.6897 40.6043ZM91.864 34.73L91.0302 33.286L92.4579 32.4617C93.7379 31.7226 94.1516 30.4116 93.5073 29.2958C92.8725 28.1963 91.696 27.9019 90.2929 28.7119C89.0129 29.451 88.586 30.6821 89.152 31.9088L87.4208 32.9084C86.3617 30.752 87.1567 28.5097 89.5033 27.1548C91.7433 25.8616 94.1104 26.1906 95.1621 28.0121C96.0148 29.489 95.6577 31.1065 94.3406 32.217L94.3596 32.2499C96.2111 31.3449 97.9899 31.773 98.9468 33.4304C100.141 35.4981 99.0812 38.0024 96.6115 39.4283C94.0597 40.9016 91.6086 40.446 90.3142 38.4693L92.0783 37.4508C92.8469 38.5168 94.2323 38.7562 95.7256 37.894C97.1697 37.0602 97.7298 35.6428 97.0619 34.4859C96.3228 33.2059 94.8999 32.9772 93.3409 33.8773L91.864 34.73ZM106.999 33.4309C104.16 35.07 101.104 33.6617 98.9251 29.8874C96.7602 26.1376 97.0848 22.7776 99.9073 21.1479C102.738 19.5135 105.781 20.9184 107.946 24.6681C110.125 28.4424 109.838 31.7918 106.999 33.4309ZM106.108 31.8883C107.799 30.9124 107.75 28.6105 106.096 25.7469C104.467 22.9244 102.472 21.724 100.798 22.6905C99.1241 23.6569 99.1628 25.9976 100.788 28.812C102.436 31.6673 104.418 32.8642 106.108 31.8883Z" fill="#131313"/>
<path d="M26.7675 105.656L25.3234 104.823L26.1477 103.395C26.8867 102.115 26.5895 100.773 25.4736 100.128C24.3742 99.4936 23.2081 99.8268 22.398 101.23C21.659 102.51 21.9047 103.79 23.0083 104.569L22.0087 106.3C20.0133 104.962 19.5808 102.623 20.9356 100.276C22.2289 98.0362 24.4434 97.1377 26.265 98.1893C27.7419 99.0421 28.2413 100.621 27.6559 102.242L27.6887 102.261C28.8398 100.551 30.5943 100.033 32.2517 100.989C34.3194 102.183 34.654 104.882 33.2281 107.352C31.7548 109.903 29.4042 110.734 27.2948 109.67L28.3134 107.905C29.512 108.444 30.8315 107.959 31.6937 106.466C32.5275 105.022 32.3039 103.514 31.147 102.846C29.867 102.107 28.5203 102.62 27.6202 104.179L26.7675 105.656ZM39.2255 96.9639C37.5864 99.8029 34.2358 100.111 30.4615 97.9319C26.7118 95.767 25.3129 92.6947 26.9426 89.8722C28.5769 87.0414 31.9146 86.7367 35.6643 88.9016C39.4387 91.0808 40.8646 94.125 39.2255 96.9639ZM37.683 96.0733C38.6589 94.3831 37.4655 92.414 34.6019 90.7607C31.7794 89.1311 29.4515 89.0889 28.4851 90.7628C27.5187 92.4366 28.7225 94.4445 31.5368 96.0694C34.3922 97.718 36.7071 97.7636 37.683 96.0733ZM45.2704 86.4943C43.6312 89.3332 40.2806 89.6414 36.5063 87.4623C32.7566 85.2973 31.3578 82.225 32.9874 79.4025C34.6218 76.5718 37.9594 76.267 41.7092 78.432C45.4835 80.6111 46.9095 83.6553 45.2704 86.4943ZM43.7278 85.6037C44.7037 83.9134 43.5103 81.9444 40.6467 80.2911C37.8242 78.6614 35.4964 78.6193 34.5299 80.2931C33.5635 81.967 34.7673 83.9748 37.5817 85.5997C40.437 87.2483 42.7519 87.2939 43.7278 85.6037Z" fill="#131313"/>
<path d="M8.33585 191.497C5.87244 191.497 4.07225 189.517 4.07225 186.798C4.07225 184.192 5.73032 182.25 7.90001 182.25C9.49176 182.25 10.6761 183.103 12.7226 185.102L16.1619 188.522L16.2093 188.522L16.2093 182.032L18 182.032L18 191.384L16.5599 191.384L11.5288 186.447C9.79495 184.78 9.07487 184.344 8.00424 184.344C6.79148 184.344 5.82506 185.443 5.82506 186.864C5.82506 188.361 6.90518 189.489 8.32637 189.489L8.3548 189.489L8.3548 191.497L8.33585 191.497ZM18 179.389L6.16615 173.315L6.11878 173.315L6.11878 180.526L4.32807 180.526L4.32807 171.222L6.16615 171.222L18 177.162L18 179.389ZM18.2558 164.532C18.2558 167.811 15.5082 169.753 11.1498 169.753C6.8199 169.753 4.07225 167.792 4.07225 164.532C4.07225 161.264 6.81043 159.331 11.1403 159.331C15.4987 159.331 18.2558 161.254 18.2558 164.532ZM16.4746 164.532C16.4746 162.581 14.4565 161.472 11.1498 161.472C7.89054 161.472 5.85349 162.6 5.85349 164.532C5.85349 166.465 7.90001 167.602 11.1498 167.602C14.447 167.602 16.4746 166.484 16.4746 164.532Z" fill="#131313"/>
<path d="M39.0831 273.406C36.9498 274.638 34.4007 273.823 33.0411 271.468C31.7384 269.212 32.2031 266.701 34.0821 265.616C35.4605 264.82 36.9125 264.967 39.6844 265.675L44.373 266.917L44.414 266.893L41.1689 261.273L42.7197 260.377L47.3954 268.476L46.1483 269.196L39.3232 267.437C36.9879 266.859 36.1464 266.842 35.2193 267.377C34.169 267.984 33.8816 269.419 34.5922 270.649C35.3407 271.946 36.8398 272.382 38.0706 271.672L38.0952 271.657L39.0995 273.397L39.0831 273.406ZM38.7261 253.461L36.3877 254.811L39.808 260.735L38.1998 261.663C35.7006 261.75 32.7986 261.631 27.4026 261.191L25.8677 258.532L33.8266 253.937L32.8886 252.313L34.4312 251.422L35.3692 253.047L37.7076 251.696L38.7261 253.461ZM37.259 259.92L37.3 259.896L34.8603 255.671L28.2962 259.461L28.3152 259.493C32.4615 259.834 34.9993 259.967 37.259 259.92ZM33.6797 244.209C35.3189 247.048 33.9105 250.103 30.1362 252.283C26.3865 254.448 23.0264 254.123 21.3968 251.3C19.7624 248.47 21.1672 245.427 24.917 243.262C28.6913 241.083 32.0406 241.37 33.6797 244.209ZM32.1372 245.099C31.1613 243.409 28.8594 243.458 25.9958 245.111C23.1733 246.741 21.9729 248.736 22.9393 250.41C23.9057 252.084 26.2465 252.045 29.0609 250.42C31.9162 248.771 33.1131 246.789 32.1372 245.099Z" fill="#131313"/>
<path d="M104.975 327.63C103.743 329.763 101.128 330.332 98.7732 328.972C96.5168 327.669 95.6638 325.262 96.7487 323.383C97.5446 322.005 98.8752 321.406 101.63 320.633L106.311 319.365L106.335 319.324L100.715 316.079L101.61 314.528L109.708 319.204L108.988 320.451L102.198 322.34C99.8869 323.007 99.1494 323.413 98.6141 324.34C98.0077 325.39 98.4763 326.777 99.7071 327.487C101.003 328.236 102.52 327.864 103.231 326.634L103.245 326.609L104.984 327.613L104.975 327.63ZM96.9823 311.856L91.198 321.874L91.2391 321.898L95.602 321.485L94.5598 323.29L90.1628 323.705L88.3494 322.659L95.1854 310.819L96.9823 311.856ZM88.1093 306.438C90.9482 308.077 91.2564 311.427 89.0773 315.202C86.9123 318.951 83.84 320.35 81.0175 318.721C78.1868 317.086 77.882 313.749 80.047 309.999C82.2261 306.225 85.2703 304.799 88.1093 306.438ZM87.2187 307.98C85.5284 307.004 83.5594 308.198 81.906 311.061C80.2764 313.884 80.2343 316.212 81.9081 317.178C83.5819 318.145 85.5898 316.941 87.2147 314.126C88.8633 311.271 88.9089 308.956 87.2187 307.98Z" fill="#131313"/>
<path d="M187.333 332.776V344.344H187.381L190.952 341.805V343.89L187.352 346.448H185.258V332.776H187.333ZM176.987 332.52C180.038 332.52 182.16 334.159 182.16 336.471C182.16 338.214 180.928 339.607 179.119 339.986V340.033C180.635 340.45 181.61 341.635 181.61 343.103C181.61 345.178 179.668 346.704 176.987 346.704C174.296 346.704 172.373 345.188 172.373 343.094C172.373 341.644 173.339 340.469 174.855 340.033V339.986C173.036 339.607 171.814 338.205 171.814 336.471C171.814 334.15 173.955 332.52 176.987 332.52ZM176.987 334.226C175.243 334.226 174.012 335.23 174.012 336.623C174.012 338.034 175.243 339.039 176.987 339.039C178.73 339.039 179.971 338.025 179.971 336.623C179.971 335.23 178.73 334.226 176.987 334.226ZM176.987 340.744C175.518 340.744 174.467 341.635 174.467 342.876C174.467 344.127 175.509 345.017 176.987 345.017C178.474 345.017 179.507 344.127 179.507 342.876C179.507 341.635 178.474 340.744 176.987 340.744ZM164.945 332.52C168.223 332.52 170.165 335.268 170.165 339.626C170.165 343.956 168.204 346.704 164.945 346.704C161.676 346.704 159.743 343.965 159.743 339.636C159.743 335.277 161.666 332.52 164.945 332.52ZM164.945 334.301C162.993 334.301 161.884 336.319 161.884 339.626C161.884 342.885 163.012 344.922 164.945 344.922C166.877 344.922 168.014 342.876 168.014 339.626C168.014 336.329 166.896 334.301 164.945 334.301Z" fill="#131313"/>
<path d="M264.269 305.806L270.053 315.825L270.094 315.801L271.918 311.816L272.96 313.621L271.121 317.637L269.308 318.684L262.472 306.844L264.269 305.806ZM255.214 310.739C257.577 309.375 260.142 309.819 261.443 311.825L259.687 312.839C258.878 311.742 257.405 311.52 256.084 312.283C254.59 313.145 254.158 314.784 255.015 316.269C255.873 317.754 257.523 318.224 259 317.371C260.025 316.779 260.641 315.8 260.651 314.755L262.333 313.784L265.575 320.839L258.527 324.909L257.631 323.358L263.203 320.141L261.432 316.317L261.391 316.341C261.305 317.386 260.598 318.396 259.441 319.064C257.168 320.376 254.573 319.653 253.247 317.356C251.845 314.927 252.662 312.212 255.214 310.739ZM245.064 316.599C247.903 314.96 250.959 316.368 253.138 320.143C255.303 323.892 254.979 327.253 252.156 328.882C249.325 330.517 246.283 329.112 244.118 325.362C241.938 321.588 242.225 318.238 245.064 316.599ZM245.955 318.142C244.265 319.118 244.314 321.42 245.967 324.283C247.597 327.106 249.592 328.306 251.266 327.34C252.939 326.373 252.901 324.032 251.276 321.218C249.627 318.363 247.645 317.166 245.955 318.142Z" fill="#131313"/>
<path d="M317.469 244.063L327.488 249.848L327.511 249.807L327.099 245.444L328.904 246.486L329.319 250.883L328.272 252.696L316.432 245.86L317.469 244.063ZM323.19 253.482C325.324 254.714 325.893 257.329 324.533 259.684C323.23 261.94 320.823 262.793 318.944 261.708C317.566 260.912 316.966 259.582 316.194 256.827L314.926 252.146L314.884 252.122L311.639 257.742L310.089 256.847L314.764 248.749L316.012 249.469L317.9 256.259C318.568 258.57 318.974 259.307 319.901 259.843C320.951 260.449 322.338 259.981 323.048 258.75C323.797 257.453 323.425 255.937 322.194 255.226L322.17 255.212L323.174 253.473L323.19 253.482ZM306.433 262.668C308.072 259.829 311.422 259.521 315.197 261.7C318.946 263.865 320.345 266.937 318.716 269.759C317.081 272.59 313.743 272.895 309.994 270.73C306.219 268.551 304.793 265.507 306.433 262.668ZM307.975 263.558C306.999 265.249 308.193 267.218 311.056 268.871C313.879 270.501 316.207 270.543 317.173 268.869C318.139 267.195 316.936 265.187 314.121 263.562C311.266 261.914 308.951 261.868 307.975 263.558Z" fill="#131313"/>
<path d="M332.516 169.029C332.516 166.594 333.975 164.708 336.145 164.301L336.145 166.433C335.027 166.755 334.279 167.797 334.279 169.057C334.279 171.189 336.249 172.44 339.698 172.44C339.698 172.44 339.698 172.43 339.698 172.421L339.698 172.411L339.698 172.402C338.353 171.852 337.462 170.412 337.462 168.65C337.462 166.054 339.386 164.111 341.982 164.111C344.72 164.111 346.709 166.215 346.709 169.105C346.709 171.132 345.677 172.762 343.839 173.643C342.749 174.202 341.404 174.486 339.802 174.486C335.226 174.486 332.516 172.459 332.516 169.029ZM339.196 169.105C339.196 170.782 340.399 172.032 342.01 172.032C343.63 172.032 344.9 170.763 344.9 169.133C344.9 167.503 343.64 166.224 342.048 166.224C340.409 166.224 339.196 167.446 339.196 169.105ZM332.516 181.365C332.516 178.087 335.264 176.144 339.622 176.144C343.952 176.144 346.7 178.105 346.7 181.365C346.7 184.633 343.962 186.566 339.632 186.566C335.274 186.566 332.516 184.643 332.516 181.365ZM334.298 181.365C334.298 183.317 336.316 184.425 339.622 184.425C342.882 184.425 344.919 183.298 344.919 181.365C344.919 179.432 342.872 178.295 339.622 178.295C336.325 178.295 334.298 179.413 334.298 181.365Z" fill="#131313"/>
<path d="M308.56 91.8077C307.551 90.0601 307.635 88.1406 308.79 86.4456C309.454 85.4167 310.477 84.4978 311.863 83.6972C315.827 81.4091 319.196 81.8265 320.907 84.7885C322.115 86.8808 321.797 89.2302 320.119 90.6808L319.057 88.8429C319.86 87.9967 319.98 86.7458 319.355 85.6627C318.279 83.8002 315.964 83.693 312.98 85.4045L312.999 85.4373C314.447 85.291 315.943 86.101 316.795 87.5779C318.098 89.8343 317.399 92.4698 315.151 93.7679C312.78 95.137 310.009 94.3185 308.56 91.8077ZM310.101 90.896C310.906 92.2908 312.65 92.7719 314.037 91.9713C315.473 91.1423 315.905 89.5033 315.066 88.051C314.233 86.6069 312.578 86.129 311.175 86.9391C309.772 87.7492 309.286 89.4847 310.101 90.896ZM314.457 102.002C312.817 99.1629 314.226 96.1071 318 93.9279C321.75 91.7629 325.11 92.0876 326.74 94.9101C328.374 97.7408 326.969 100.784 323.219 102.949C319.445 105.128 316.096 104.841 314.457 102.002ZM315.999 101.111C316.975 102.802 319.277 102.752 322.141 101.099C324.963 99.4695 326.163 97.4745 325.197 95.8007C324.231 94.1269 321.89 94.1655 319.075 95.7904C316.22 97.439 315.023 99.421 315.999 101.111Z" fill="#131313"/>
<path d="M250.354 29.7921L251.187 28.3481L252.615 29.1724C253.895 29.9114 255.237 29.6142 255.882 28.4983C256.516 27.3988 256.183 26.2327 254.78 25.4226C253.5 24.6836 252.22 24.9294 251.441 26.0329L249.71 25.0333C251.048 23.038 253.387 22.6054 255.734 23.9603C257.974 25.2536 258.872 27.4681 257.821 29.2896C256.968 30.7665 255.389 31.266 253.768 30.6805L253.749 30.7134C255.459 31.8644 255.977 33.6189 255.021 35.2764C253.827 37.344 251.128 37.6787 248.658 36.2527C246.107 34.7794 245.276 32.4289 246.341 30.3195L248.105 31.338C247.566 32.5367 248.051 33.8562 249.544 34.7184C250.988 35.5522 252.496 35.3286 253.164 34.1716C253.903 32.8916 253.39 31.545 251.831 30.6449L250.354 29.7921ZM259.046 42.2502C256.207 40.6111 255.899 37.2605 258.078 33.4861C260.243 29.7364 263.315 28.3376 266.138 29.9672C268.969 31.6016 269.273 34.9393 267.108 38.689C264.929 42.4633 261.885 43.8893 259.046 42.2502ZM259.937 40.7076C261.627 41.6835 263.596 40.4901 265.249 37.6266C266.879 34.804 266.921 32.4762 265.247 31.5098C263.573 30.5434 261.566 31.7472 259.941 34.5615C258.292 37.4169 258.246 39.7317 259.937 40.7076Z" fill="#131313"/>
<path d="M175.393 35.9336V54.4257" stroke="#131313" stroke-width="3.88082" stroke-miterlimit="10"/>
<path d="M105.654 54.6199L114.91 70.6283" stroke="#131313" stroke-width="3.88082" stroke-miterlimit="10"/>
<path d="M54.6022 105.653L70.63 114.908" stroke="#131313" stroke-width="3.88082" stroke-miterlimit="10"/>
<path d="M35.9355 175.391H54.4277" stroke="#131313" stroke-width="3.88082" stroke-miterlimit="10"/>
<path d="M54.6022 245.11L70.63 235.874" stroke="#131313" stroke-width="3.88082" stroke-miterlimit="10"/>
<path d="M105.654 296.162L114.91 280.154" stroke="#131313" stroke-width="3.88082" stroke-miterlimit="10"/>
<path d="M175.393 314.848V296.356" stroke="#131313" stroke-width="3.88082" stroke-miterlimit="10"/>
<path d="M245.112 296.162L235.875 280.154" stroke="#131313" stroke-width="3.88082" stroke-miterlimit="10"/>
<path d="M296.163 245.11L280.155 235.874" stroke="#131313" stroke-width="3.88082" stroke-miterlimit="10"/>
<path d="M314.85 175.391H296.358" stroke="#131313" stroke-width="3.88082" stroke-miterlimit="10"/>
<path d="M296.163 105.653L280.155 114.908" stroke="#131313" stroke-width="3.88082" stroke-miterlimit="10"/>
<path d="M245.112 54.6199L235.875 70.6283" stroke="#131313" stroke-width="3.88082" stroke-miterlimit="10"/>
<path d="M175.393 35.9336V54.4257" stroke="#131313" stroke-width="0.970205" stroke-miterlimit="10"/>
<path d="M163.227 36.4573L164.837 54.8912" stroke="#131313" stroke-width="0.970205" stroke-miterlimit="10"/>
<path d="M151.177 38.0486L154.378 56.269" stroke="#131313" stroke-width="0.970205" stroke-miterlimit="10"/>
<path d="M139.301 40.6873L144.074 58.5391" stroke="#131313" stroke-width="0.970205" stroke-miterlimit="10"/>
<path d="M127.698 44.3354L134.023 61.7216" stroke="#131313" stroke-width="0.970205" stroke-miterlimit="10"/>
<path d="M116.443 48.9924L124.263 65.7576" stroke="#131313" stroke-width="0.970205" stroke-miterlimit="10"/>
<path d="M105.654 54.6199L114.91 70.6283" stroke="#131313" stroke-width="0.970205" stroke-miterlimit="10"/>
<path d="M95.3898 61.1392L106.004 76.2938" stroke="#131313" stroke-width="0.970205" stroke-miterlimit="10"/>
<path d="M85.7458 68.5518L97.6406 82.7167" stroke="#131313" stroke-width="0.970205" stroke-miterlimit="10"/>
<path d="M76.7811 76.7791L89.8595 89.8575" stroke="#131313" stroke-width="0.970205" stroke-miterlimit="10"/>
<path d="M68.554 85.7434L82.7188 97.6381" stroke="#131313" stroke-width="0.970205" stroke-miterlimit="10"/>
<path d="M61.1414 95.3877L76.2961 106.002" stroke="#131313" stroke-width="0.970205" stroke-miterlimit="10"/>
<path d="M54.6022 105.653L70.63 114.908" stroke="#131313" stroke-width="0.970205" stroke-miterlimit="10"/>
<path d="M48.9945 116.441L65.7597 124.261" stroke="#131313" stroke-width="0.970205" stroke-miterlimit="10"/>
<path d="M44.3375 127.695L61.7235 134.021" stroke="#131313" stroke-width="0.970205" stroke-miterlimit="10"/>
<path d="M40.6702 139.299L58.5413 144.073" stroke="#131313" stroke-width="0.970205" stroke-miterlimit="10"/>
<path d="M38.0507 151.175L56.2517 154.376" stroke="#131313" stroke-width="0.970205" stroke-miterlimit="10"/>
<path d="M36.4595 163.225L54.8739 164.855" stroke="#131313" stroke-width="0.970205" stroke-miterlimit="10"/>
<path d="M35.9355 175.391H54.4277" stroke="#131313" stroke-width="0.970205" stroke-miterlimit="10"/>
<path d="M36.4595 187.538L54.8739 185.927" stroke="#131313" stroke-width="0.970205" stroke-miterlimit="10"/>
<path d="M38.0507 199.607L56.2517 196.386" stroke="#131313" stroke-width="0.970205" stroke-miterlimit="10"/>
<path d="M40.6702 211.482L58.5413 206.689" stroke="#131313" stroke-width="0.970205" stroke-miterlimit="10"/>
<path d="M44.3375 223.086L61.7235 216.76" stroke="#131313" stroke-width="0.970205" stroke-miterlimit="10"/>
<path d="M48.9945 234.321L65.7597 226.501" stroke="#131313" stroke-width="0.970205" stroke-miterlimit="10"/>
<path d="M54.6022 245.11L70.63 235.874" stroke="#131313" stroke-width="0.970205" stroke-miterlimit="10"/>
<path d="M61.1414 255.374L76.2961 244.78" stroke="#131313" stroke-width="0.970205" stroke-miterlimit="10"/>
<path d="M68.554 265.038L82.7188 253.143" stroke="#131313" stroke-width="0.970205" stroke-miterlimit="10"/>
<path d="M76.7811 274.002L89.8595 260.924" stroke="#131313" stroke-width="0.970205" stroke-miterlimit="10"/>
<path d="M85.7458 282.23L97.6406 268.045" stroke="#131313" stroke-width="0.970205" stroke-miterlimit="10"/>
<path d="M95.3898 289.623L106.004 274.487" stroke="#131313" stroke-width="0.970205" stroke-miterlimit="10"/>
<path d="M105.654 296.162L114.91 280.154" stroke="#131313" stroke-width="0.970205" stroke-miterlimit="10"/>
<path d="M116.443 301.789L124.263 285.024" stroke="#131313" stroke-width="0.970205" stroke-miterlimit="10"/>
<path d="M127.698 306.446L134.023 289.06" stroke="#131313" stroke-width="0.970205" stroke-miterlimit="10"/>
<path d="M139.301 310.094L144.074 292.223" stroke="#131313" stroke-width="0.970205" stroke-miterlimit="10"/>
<path d="M151.177 312.733L154.378 294.512" stroke="#131313" stroke-width="0.970205" stroke-miterlimit="10"/>
<path d="M163.227 314.324L164.837 295.89" stroke="#131313" stroke-width="0.970205" stroke-miterlimit="10"/>
<path d="M175.393 314.848V296.356" stroke="#131313" stroke-width="0.970205" stroke-miterlimit="10"/>
<path d="M187.54 314.324L185.929 295.89" stroke="#131313" stroke-width="0.970205" stroke-miterlimit="10"/>
<path d="M199.609 312.733L196.388 294.512" stroke="#131313" stroke-width="0.970205" stroke-miterlimit="10"/>
<path d="M211.485 310.094L206.692 292.223" stroke="#131313" stroke-width="0.970205" stroke-miterlimit="10"/>
<path d="M223.088 306.446L216.762 289.06" stroke="#131313" stroke-width="0.970205" stroke-miterlimit="10"/>
<path d="M234.323 301.789L226.503 285.024" stroke="#131313" stroke-width="0.970205" stroke-miterlimit="10"/>
<path d="M245.112 296.162L235.875 280.154" stroke="#131313" stroke-width="0.970205" stroke-miterlimit="10"/>
<path d="M255.377 289.623L244.763 274.487" stroke="#131313" stroke-width="0.970205" stroke-miterlimit="10"/>
<path d="M265.039 282.23L253.145 268.045" stroke="#131313" stroke-width="0.970205" stroke-miterlimit="10"/>
<path d="M274.005 274.002L260.926 260.924" stroke="#131313" stroke-width="0.970205" stroke-miterlimit="10"/>
<path d="M282.213 265.038L268.048 253.143" stroke="#131313" stroke-width="0.970205" stroke-miterlimit="10"/>
<path d="M289.625 255.374L274.47 244.78" stroke="#131313" stroke-width="0.970205" stroke-miterlimit="10"/>
<path d="M296.163 245.11L280.155 235.874" stroke="#131313" stroke-width="0.970205" stroke-miterlimit="10"/>
<path d="M301.791 234.321L285.026 226.501" stroke="#131313" stroke-width="0.970205" stroke-miterlimit="10"/>
<path d="M306.448 223.086L289.062 216.76" stroke="#131313" stroke-width="0.970205" stroke-miterlimit="10"/>
<path d="M310.096 211.482L292.225 206.689" stroke="#131313" stroke-width="0.970205" stroke-miterlimit="10"/>
<path d="M312.735 199.607L294.515 196.386" stroke="#131313" stroke-width="0.970205" stroke-miterlimit="10"/>
<path d="M314.326 187.538L295.893 185.927" stroke="#131313" stroke-width="0.970205" stroke-miterlimit="10"/>
<path d="M314.85 175.391H296.358" stroke="#131313" stroke-width="0.970205" stroke-miterlimit="10"/>
<path d="M314.326 163.225L295.893 164.855" stroke="#131313" stroke-width="0.970205" stroke-miterlimit="10"/>
<path d="M312.735 151.175L294.515 154.376" stroke="#131313" stroke-width="0.970205" stroke-miterlimit="10"/>
<path d="M310.096 139.299L292.225 144.073" stroke="#131313" stroke-width="0.970205" stroke-miterlimit="10"/>
<path d="M306.448 127.695L289.062 134.021" stroke="#131313" stroke-width="0.970205" stroke-miterlimit="10"/>
<path d="M301.791 116.441L285.026 124.261" stroke="#131313" stroke-width="0.970205" stroke-miterlimit="10"/>
<path d="M296.163 105.653L280.155 114.908" stroke="#131313" stroke-width="0.970205" stroke-miterlimit="10"/>
<path d="M289.625 95.3877L274.47 106.002" stroke="#131313" stroke-width="0.970205" stroke-miterlimit="10"/>
<path d="M282.213 85.7434L268.048 97.6381" stroke="#131313" stroke-width="0.970205" stroke-miterlimit="10"/>
<path d="M274.005 76.7791L260.926 89.8575" stroke="#131313" stroke-width="0.970205" stroke-miterlimit="10"/>
<path d="M265.039 68.5518L253.145 82.7167" stroke="#131313" stroke-width="0.970205" stroke-miterlimit="10"/>
<path d="M255.377 61.1392L244.763 76.2938" stroke="#131313" stroke-width="0.970205" stroke-miterlimit="10"/>
<path d="M245.112 54.6199L235.875 70.6283" stroke="#131313" stroke-width="0.970205" stroke-miterlimit="10"/>
<path d="M234.323 48.9924L226.503 65.7576" stroke="#131313" stroke-width="0.970205" stroke-miterlimit="10"/>
<path d="M223.088 44.3354L216.762 61.7216" stroke="#131313" stroke-width="0.970205" stroke-miterlimit="10"/>
<path d="M211.485 40.6873L206.692 58.5391" stroke="#131313" stroke-width="0.970205" stroke-miterlimit="10"/>
<path d="M199.609 38.0486L196.388 56.269" stroke="#131313" stroke-width="0.970205" stroke-miterlimit="10"/>
<path d="M187.54 36.4573L185.929 54.8912" stroke="#131313" stroke-width="0.970205" stroke-miterlimit="10"/>
</svg>
