<svg width="34" height="34" viewBox="0 0 34 34" fill="none" xmlns="http://www.w3.org/2000/svg">
<path d="M34 0L0 0L24.5 9.5L34 34V0Z" fill="#EFEFEF"/>
<mask id="mask0_2002_1847" style="mask-type:luminance" maskUnits="userSpaceOnUse" x="2" y="0" width="32" height="32">
<path d="M34 0L2 0V32H34V0Z" fill="white"/>
</mask>
<g mask="url(#mask0_2002_1847)">
<path d="M24.43 9.5699C24.254 9.51131 24.088 9.45272 23.922 9.38436C22.555 8.7887 21.559 7.62666 21.305 6.34744C21.188 5.71271 21.237 5.08775 21.452 4.54091C21.657 3.99407 22.038 3.53511 22.467 3.25193C22.897 2.95898 23.395 2.8125 23.854 2.8125C24.323 2.8125 24.752 2.96874 25.075 3.19334C25.739 3.64253 26.022 4.36514 25.963 4.93151C25.905 5.49788 25.612 5.87872 25.348 6.10331C25.085 6.32791 24.831 6.40603 24.674 6.43533C24.518 6.46462 24.44 6.46462 24.44 6.46462C24.42 6.44509 24.801 6.46462 25.241 5.98613C25.446 5.75177 25.651 5.3807 25.641 4.91198C25.641 4.46279 25.348 3.92571 24.801 3.61323C24.274 3.29099 23.493 3.32028 22.868 3.80853C22.243 4.26749 21.911 5.20493 22.135 6.1619C22.36 7.10911 23.171 8.01726 24.294 8.48598C24.586 8.60316 24.909 8.70081 25.231 8.7594C25.29 9.09141 25.377 9.4039 25.495 9.69685C25.963 10.8198 26.872 11.6303 27.819 11.8549C28.776 12.0893 29.703 11.7573 30.172 11.1225C30.66 10.4976 30.69 9.71638 30.367 9.18906C30.065 8.64222 29.528 8.35904 29.069 8.34927C28.6 8.33951 28.229 8.54457 27.994 8.74964C27.526 9.18906 27.536 9.5699 27.516 9.55037C27.516 9.55037 27.506 9.47225 27.545 9.31601C27.575 9.15977 27.653 8.90588 27.877 8.64222C28.102 8.37857 28.483 8.08562 29.049 8.02703C29.615 7.96844 30.338 8.25162 30.787 8.91564C31.012 9.23789 31.178 9.66755 31.168 10.1363C31.168 10.605 31.022 11.0932 30.729 11.5229C30.446 11.9526 29.987 12.3334 29.44 12.5385C28.893 12.7533 28.268 12.8021 27.633 12.6849C26.354 12.4311 25.202 11.4448 24.606 10.0777C24.547 9.92144 24.489 9.74567 24.43 9.5699Z" fill="#068A48"/>
<path d="M26.998 7.0112C26.803 7.06979 26.627 7.10885 26.461 7.13815C25.915 7.2358 25.514 7.22603 25.26 7.2065C25.006 7.17721 24.889 7.15768 24.889 7.15768C24.889 7.15768 25.016 7.14791 25.26 7.13815C25.504 7.11862 25.895 7.07956 26.413 6.93308C26.715 6.8452 27.067 6.72802 27.457 6.54248C27.282 6.93308 27.155 7.28462 27.077 7.58734C26.93 8.10489 26.891 8.49549 26.872 8.74938C26.862 8.9935 26.852 9.12045 26.852 9.12045C26.852 9.12045 26.832 9.00327 26.803 8.74938C26.784 8.49549 26.774 8.09512 26.872 7.54828C26.901 7.38227 26.94 7.2065 26.998 7.0112Z" fill="#068A48"/>
<path d="M24.44 4.62842C24.44 4.62842 24.362 4.61865 24.342 4.60889H24.352C24.411 4.62842 24.44 4.62842 24.44 4.62842Z" fill="#068A48"/>
<path d="M29.371 9.56006C29.371 9.56006 29.381 9.63818 29.391 9.65771V9.64794C29.381 9.59912 29.371 9.56006 29.371 9.56006Z" fill="#068A48"/>
<path d="M23.053 4.13044C23.141 4.06209 23.278 3.95467 23.512 3.86678C23.747 3.78866 24.088 3.72031 24.489 3.85702C24.87 3.99373 25.348 4.3648 25.397 5.02882C25.407 5.35107 25.29 5.65378 25.085 5.87838C24.879 6.10298 24.577 6.24945 24.274 6.22016C23.688 6.17133 23.278 5.63425 23.385 5.1753C23.503 4.73587 23.874 4.56987 24.088 4.5601C24.254 4.55034 24.284 4.5894 24.333 4.60893C24.274 4.59916 24.196 4.59916 24.098 4.61869C23.903 4.66752 23.62 4.88235 23.581 5.20459C23.542 5.52684 23.893 5.87838 24.284 5.86862C24.665 5.87838 25.006 5.44872 24.987 5.02882C24.958 4.60893 24.645 4.29645 24.352 4.15974C24.059 4.02303 23.766 4.02303 23.551 4.05232C23.346 4.10115 23.19 4.14997 23.092 4.18903C23.005 4.22809 22.946 4.24762 22.946 4.24762C22.946 4.24762 22.975 4.20856 23.053 4.13044Z" fill="#068A48"/>
<path d="M29.869 10.9467C29.947 10.8588 30.045 10.7221 30.133 10.4878C30.211 10.2534 30.289 9.92138 30.143 9.51125C30.006 9.13042 29.635 8.65193 28.971 8.6031C28.649 8.59334 28.346 8.71052 28.121 8.91559C27.897 9.12065 27.75 9.42337 27.78 9.72608C27.828 10.312 28.366 10.7221 28.825 10.6147C29.264 10.4975 29.43 10.1264 29.44 9.91162C29.449 9.74561 29.41 9.71632 29.391 9.66749C29.401 9.72608 29.401 9.8042 29.381 9.89209C29.332 10.0874 29.117 10.3706 28.795 10.4096C28.473 10.4487 28.121 10.0972 28.131 9.70655C28.121 9.32572 28.551 8.98394 28.971 9.00347C29.391 9.03277 29.703 9.35501 29.84 9.6382C29.977 9.93115 29.977 10.2241 29.947 10.4389C29.918 10.6538 29.86 10.8198 29.83 10.9174C29.791 11.0053 29.772 11.0639 29.772 11.0639C29.772 11.0639 29.801 11.0346 29.869 10.9467Z" fill="#068A48"/>
<path d="M29.0491 4.96066C29.1571 4.62865 29.557 3.68144 30.787 2.23622C31.188 1.77726 31.6471 1.33784 32.1541 1.01559C32.6131 0.712875 33.102 0.52734 33.541 0.458984C33.463 0.898411 33.2771 1.38666 32.9841 1.84562C32.6621 2.3534 32.2331 2.81236 31.7641 3.21272C30.3281 4.45288 29.3811 4.85325 29.0491 4.96066Z" fill="#068A48"/>
<path d="M29.43 3.43734C28.942 4.38455 28.297 5.32199 27.653 5.83954C27.331 6.10319 27.038 6.27896 26.823 6.37661C26.608 6.47426 26.481 6.51332 26.481 6.51332C26.481 6.51332 26.579 6.42544 26.725 6.24967C26.872 6.08366 27.067 5.82977 27.262 5.50753C27.672 4.86303 28.024 3.93536 28.532 2.95885C29.039 1.98235 29.635 1.37692 30.074 1.1035C30.299 0.966788 30.475 0.888668 30.592 0.859373C30.709 0.820313 30.768 0.820312 30.768 0.820312C30.768 0.820312 30.67 1.04491 30.446 1.45504C30.172 1.98235 29.85 2.60731 29.43 3.43734Z" fill="#068A48"/>
<path d="M30.572 4.57023C29.625 5.05848 28.688 5.70298 28.17 6.35723C27.907 6.66971 27.731 6.97243 27.633 7.18726C27.536 7.40209 27.496 7.52904 27.496 7.52904C27.496 7.52904 27.584 7.43139 27.76 7.28491C27.926 7.13843 28.18 6.94313 28.502 6.74783C29.147 6.3377 30.074 5.98616 31.051 5.47838C32.027 4.9706 32.633 4.37493 32.906 3.9355C33.043 3.71091 33.121 3.5449 33.15 3.41796C33.189 3.30078 33.189 3.24219 33.189 3.24219C33.189 3.24219 32.965 3.33984 32.555 3.56443C32.018 3.82809 31.393 4.15034 30.572 4.57023Z" fill="#068A48"/>
<path d="M27.331 4.38454C27.233 4.48219 27.1641 4.53101 27.1641 4.53101C27.1641 4.53101 27.233 4.20877 27.145 3.8084C27.077 3.39827 26.8621 2.94908 26.6471 2.40224C26.4421 1.83586 26.393 1.38667 26.413 1.08396C26.432 0.78124 26.5001 0.625 26.5001 0.625C26.5001 0.625 26.6661 0.68359 26.8811 0.898421C27.0961 1.11325 27.3701 1.44526 27.6041 2.04093C27.8481 2.6366 27.8681 3.39827 27.6531 3.87675C27.5551 4.11112 27.428 4.27712 27.331 4.38454Z" fill="#068A48"/>
<path d="M29.625 6.66963C29.518 6.77705 29.479 6.83564 29.479 6.83564C29.479 6.83564 29.801 6.76728 30.201 6.8454C30.612 6.91376 31.061 7.12859 31.608 7.34342C32.164 7.55825 32.623 7.60708 32.916 7.58755C33.219 7.56802 33.375 7.49966 33.375 7.49966C33.375 7.49966 33.307 7.33366 33.102 7.11883C32.887 6.89423 32.555 6.62081 31.959 6.39621C31.363 6.15209 30.612 6.14232 30.133 6.34739C29.899 6.44504 29.723 6.57198 29.625 6.66963Z" fill="#068A48"/>
<path d="M15.788 0.732472C15.437 0.869182 14.939 1.06448 14.275 1.47461C13.62 1.88475 12.995 2.43159 12.517 2.86125C12.038 3.29091 11.697 3.56433 11.697 3.56433C11.697 3.56433 11.824 3.14443 12.107 2.54877C12.39 1.96287 12.868 1.15237 13.728 0.605527C14.577 0.078215 15.359 0.0879801 15.778 0.214925C15.993 0.283281 16.14 0.361401 16.218 0.419991C16.306 0.478581 16.335 0.517641 16.335 0.517641C16.335 0.517641 16.286 0.537171 16.189 0.576231C16.101 0.625057 15.954 0.673882 15.788 0.732472Z" fill="#068A48"/>
<path d="M33.268 18.2119C33.131 18.5634 32.936 19.0614 32.526 19.7255C32.115 20.3797 31.569 21.0047 31.139 21.4832C30.709 21.9617 30.436 22.3034 30.436 22.3034C30.436 22.3034 30.856 22.1765 31.451 21.8933C32.037 21.6101 32.848 21.1316 33.395 20.2723C33.922 19.4227 33.912 18.6415 33.785 18.2216C33.727 18.0068 33.639 17.8603 33.58 17.7822C33.512 17.6943 33.482 17.665 33.482 17.665C33.482 17.665 33.453 17.7139 33.424 17.8115C33.375 17.9092 33.326 18.0556 33.268 18.2119Z" fill="#068A48"/>
<path d="M2 0.566314L2.02899 0.595609C2.02899 0.615139 2.04901 0.683494 2.15601 0.82997C2.20501 0.90809 2.36101 0.976445 2.44901 1.06433C2.46901 1.08386 2.47799 1.09363 2.49799 1.11316C2.84999 1.48423 3.37701 2.06036 4.21701 2.77321C4.69501 3.17358 5.33001 3.63253 6.06201 4.07196C6.63801 4.49186 7.341 4.91175 8.298 5.27306C9.49 5.70272 11.033 6.00544 12.829 5.80037C13.718 5.69295 14.597 5.46836 15.407 5.14611C16.228 4.82387 16.96 4.38444 17.653 3.96454C19.02 3.09546 20.3 2.32402 21.53 2.0506C22.751 1.74788 23.835 2.00177 24.469 2.33378C24.801 2.49979 25.016 2.68533 25.163 2.81227C25.309 2.94898 25.377 3.0271 25.377 3.0271C25.377 3.0271 25.319 2.93922 25.182 2.80251C25.045 2.65603 24.831 2.46073 24.508 2.27519C23.883 1.89436 22.78 1.59164 21.501 1.84553C18.864 2.23613 16.345 5.11682 12.79 5.39024C11.745 5.50742 10.828 5.43906 9.98801 5.29259C10.3 5.30235 10.603 5.33165 10.935 5.29259C12.038 5.17541 13.181 4.78481 14.304 4.23797C15.437 3.70089 16.482 3.0564 17.507 2.49979C18.532 1.93342 19.548 1.45493 20.583 1.19128C22.614 0.644434 24.782 1.13269 25.836 2.43143C26.354 3.04663 26.54 3.8376 26.52 4.51139C26.5 5.19494 26.295 5.78084 26.022 6.18121C25.749 6.59134 25.426 6.83546 25.192 6.96241C24.948 7.07959 24.811 7.12841 24.811 7.12841C24.811 7.12841 24.948 7.09912 25.211 7.00147C25.465 6.89405 25.827 6.68899 26.149 6.27886C26.481 5.87849 26.764 5.27306 26.842 4.54068C26.93 3.8083 26.803 2.90992 26.237 2.11895C25.69 1.34752 24.792 0.742085 23.756 0.449134C22.702 0.136653 21.53 0.107358 20.368 0.361248C19.909 0.458899 19.46 0.615139 19.011 0.781145C18.884 0.742085 18.796 0.703024 18.601 0.683494C17.907 0.585844 16.726 0.683494 15.3 1.41587C13.884 2.14825 12.722 3.12475 11.765 3.70089C11.287 3.99384 10.886 4.1989 10.593 4.33562C10.525 4.34538 10.457 4.33562 10.388 4.34538C10.564 4.26726 10.74 4.24773 10.906 4.12078C11.306 3.82783 11.667 3.34935 11.765 2.74392C11.863 2.15801 11.706 1.54282 11.374 1.0741C11.042 0.595609 10.564 0.273363 10.056 0.107358C9.539 -0.0488829 9.002 -0.0391178 8.552 0.136653C8.084 0.312423 7.74201 0.663964 7.56601 1.03504C7.38101 1.41587 7.36101 1.81624 7.45901 2.12872C7.53701 2.36308 7.673 2.49002 7.81 2.62674C7.42 2.42167 6.83401 2.23613 5.98401 2.17754C5.09601 2.12872 4.285 2.04083 3.689 1.78694C3.494 1.65023 3.31799 1.52329 3.16199 1.40611C3.42599 1.48423 3.689 1.57211 3.992 1.56235C4.422 1.56235 4.84198 1.49399 5.22198 1.47446C5.60298 1.44517 5.85701 1.45493 6.10101 1.51352C6.32601 1.56235 6.51099 1.6307 6.65799 1.70882C6.80399 1.78694 6.902 1.87483 6.97 1.94318C7.029 2.01154 7.06799 2.0506 7.06799 2.0506C7.05799 2.06036 7.23401 1.86506 7.05801 1.39634C6.96101 1.17175 6.76501 0.917855 6.43301 0.722555C6.12101 0.517489 5.62301 0.410074 5.14401 0.458899C4.65601 0.497959 4.24601 0.624904 3.88501 0.71279C3.53301 0.81044 3.21101 0.859265 2.92801 0.8495C2.64401 0.8495 2.41 0.781145 2.254 0.71279C2.098 0.634669 2.01001 0.566314 2.01001 0.566314V0.576079L2 0.566314ZM10.769 4.32585C11.072 4.2282 11.423 4.10125 11.863 3.87666C12.888 3.38841 14.128 2.48026 15.486 1.77718C16.853 1.08386 17.917 0.898325 18.591 0.88856C18.63 0.88856 18.63 0.88856 18.669 0.88856C17.009 1.55258 15.456 2.55838 13.855 3.32982C12.781 3.8376 11.765 4.1989 10.798 4.32585C10.798 4.32585 10.779 4.32585 10.769 4.32585ZM4.52899 2.37284C4.54899 2.37284 4.55799 2.38261 4.56799 2.39237C4.99799 2.49979 5.47601 2.54861 5.94501 2.58768C6.88301 2.65603 7.498 2.76345 7.888 2.89039C8.279 3.00757 8.45499 3.09546 8.45499 3.09546C8.45499 3.09546 8.41601 3.0564 8.40601 3.03687C8.52301 3.06616 8.60101 3.0564 8.60101 3.0564C8.60101 3.0564 8.504 3.03687 8.367 2.98804C8.289 2.90992 8.17099 2.80251 7.98599 2.69509C7.96599 2.69509 7.93701 2.68533 7.93701 2.68533C7.79101 2.52908 7.644 2.35331 7.586 2.08966C7.507 1.79671 7.556 1.44517 7.742 1.12292C7.927 0.81044 8.24001 0.527254 8.64001 0.400309C9.04101 0.273363 9.509 0.283128 9.939 0.439369C10.378 0.585844 10.789 0.88856 11.052 1.28893C11.326 1.68929 11.443 2.19707 11.355 2.67556C11.277 3.16381 10.994 3.54465 10.662 3.8083C10.33 4.07196 9.94898 4.2282 9.59698 4.31609C9.46998 4.34538 9.36299 4.32585 9.23599 4.34538C8.86499 4.30632 8.49399 4.24773 8.16199 4.15984C6.57999 3.72042 5.41799 2.95875 4.52899 2.37284Z" fill="#068A48"/>
<path d="M33.4431 31.9999L33.4141 31.9706C33.3951 31.9706 33.3161 31.9413 33.1801 31.8436C33.1021 31.7948 33.0231 31.6386 32.9451 31.5409C32.9261 31.5214 32.9161 31.5116 32.8871 31.4921C32.5161 31.1405 31.9401 30.6132 31.2271 29.7734C30.8261 29.2949 30.3671 28.6602 29.9281 27.9278C29.5181 27.3517 29.0981 26.6486 28.7371 25.6917C28.3071 24.5003 28.0041 22.9574 28.2091 21.1607C28.3071 20.2623 28.5321 19.3932 28.8541 18.5729C29.1761 17.7527 29.6151 17.0203 30.0351 16.327C30.9041 14.9599 31.6761 13.6807 31.9491 12.4503C32.2421 11.2296 31.998 10.1457 31.666 9.511C31.5 9.18875 31.315 8.96415 31.188 8.81768C31.051 8.6712 30.9731 8.60285 30.9731 8.60285C30.9731 8.60285 31.0611 8.66144 31.1971 8.79815C31.3341 8.93486 31.5391 9.14969 31.7151 9.47194C32.0961 10.0969 32.3991 11.2003 32.1451 12.4796C31.7541 15.1161 28.8731 17.6355 28.6001 21.19C28.4831 22.2348 28.5611 23.1527 28.6981 23.9925C28.6881 23.6801 28.6591 23.3773 28.6981 23.0453C28.8151 21.9419 29.2051 20.7994 29.7421 19.6764C30.2891 18.5436 30.924 17.4988 31.481 16.4735C32.047 15.4481 32.5251 14.4326 32.7891 13.3975C33.3361 11.3761 32.8481 9.19852 31.5491 8.14389C30.9341 7.62635 30.1431 7.44081 29.4691 7.46034C28.7851 7.47987 28.2091 7.68494 27.7991 7.96812C27.3891 8.24154 27.1451 8.56379 27.0181 8.79815C26.9011 9.04228 26.8521 9.17899 26.8521 9.17899C26.8521 9.17899 26.901 9.08134 26.998 8.82744C27.106 8.57355 27.3111 8.22201 27.7211 7.89C28.1211 7.55799 28.7271 7.2748 29.4591 7.19668C30.1921 7.1088 31.0901 7.23574 31.8811 7.80212C32.6521 8.34896 33.2581 9.24734 33.5511 10.2824C33.8541 11.3175 33.8931 12.4893 33.6391 13.6514C33.5411 14.1103 33.3851 14.5595 33.2191 15.0087C33.2581 15.1454 33.2971 15.2333 33.3161 15.4286C33.4141 16.1317 33.3161 17.3035 32.5941 18.7292C31.8611 20.1549 30.8751 21.3072 30.3091 22.2739C30.0161 22.7426 29.8011 23.1527 29.6741 23.4457C29.6641 23.514 29.6741 23.5824 29.6641 23.6508C29.7421 23.475 29.7621 23.2992 29.8791 23.1332C30.1721 22.7328 30.6511 22.3715 31.2561 22.2739C31.8521 22.1762 32.4671 22.3227 32.9361 22.6645C33.4041 22.9965 33.7361 23.475 33.8931 23.9828C34.0491 24.4906 34.0391 25.0374 33.8631 25.4866C33.6881 25.9455 33.3461 26.2873 32.9751 26.4729C32.6041 26.6584 32.1931 26.6779 31.8811 26.5803C31.6471 26.5021 31.51 26.3654 31.373 26.2287C31.578 26.6193 31.7641 27.2052 31.8221 28.0548C31.8811 28.9434 31.9591 29.7539 32.2231 30.3496C32.3591 30.5449 32.4861 30.7206 32.5941 30.8769C32.5161 30.6132 32.438 30.3496 32.438 30.0566C32.438 29.627 32.5061 29.2071 32.5351 28.8262C32.5651 28.4454 32.5551 28.1915 32.4961 27.9474C32.4471 27.713 32.369 27.5275 32.291 27.3908C32.213 27.2443 32.1251 27.1466 32.0571 27.0783C31.9881 27.0099 31.9491 26.9709 31.9491 26.9709C31.9401 26.9904 32.1451 26.8146 32.6041 26.9904C32.8281 27.0783 33.0821 27.2834 33.2771 27.6154C33.4821 27.9376 33.58 28.4259 33.541 28.9043C33.502 29.3926 33.375 29.8027 33.287 30.164C33.189 30.5156 33.1411 30.8378 33.1501 31.121C33.1501 31.4042 33.219 31.6386 33.287 31.7948C33.365 31.951 33.4341 32.0389 33.4341 32.0389H33.4241L33.4431 31.9999ZM29.6741 23.2309C29.7811 22.9281 29.9081 22.5766 30.1331 22.1372C30.6211 21.1119 31.5291 19.8717 32.2331 18.5144C32.9261 17.1472 33.1111 16.0829 33.1211 15.4091C33.1211 15.37 33.1211 15.3602 33.1211 15.331C32.4571 16.991 31.4511 18.5436 30.6801 20.1451C30.1621 21.2193 29.8111 22.2348 29.6741 23.2016V23.2309ZM31.6271 29.4707C31.6171 29.461 31.6171 29.4414 31.6171 29.4414C31.5101 28.9922 31.4611 28.5137 31.4221 28.045C31.3541 27.1076 31.2561 26.4924 31.1291 26.1018C31.0021 25.7112 30.9241 25.5452 30.9241 25.5452C30.9241 25.5452 30.9631 25.5745 30.9731 25.594C30.9441 25.4768 30.9531 25.3987 30.9531 25.3987C30.9531 25.3987 30.9731 25.4964 31.0221 25.6331C31.1001 25.7112 31.1971 25.8284 31.3151 26.0139L31.3241 26.053C31.4811 26.2092 31.6561 26.3459 31.9201 26.4045C32.2131 26.4826 32.5651 26.4338 32.8871 26.2483C33.2091 26.0627 33.4821 25.7502 33.6091 25.3499C33.7361 24.9495 33.7271 24.4808 33.5701 24.0511C33.4141 23.6117 33.1211 23.2113 32.7111 22.9379C32.3111 22.6743 31.8031 22.5473 31.3241 22.6352C30.8361 22.7133 30.455 22.9965 30.192 23.3285C29.928 23.6605 29.7811 24.0414 29.6941 24.3929C29.6641 24.5198 29.6741 24.637 29.6641 24.764C29.7031 25.135 29.7621 25.4963 29.8501 25.8381C30.2801 27.4201 31.0511 28.5919 31.6271 29.4707Z" fill="#068A48"/>
<path d="M22.223 2.46074C22.301 2.43145 22.389 2.48027 22.409 2.55839C22.428 2.63651 22.389 2.7244 22.311 2.74393C22.233 2.76346 22.155 2.7244 22.126 2.64628C22.106 2.56816 22.145 2.49004 22.223 2.46074Z" fill="#068A48"/>
<path d="M31.5391 11.7765C31.5681 11.6983 31.5201 11.6202 31.4421 11.5909C31.3631 11.5714 31.2851 11.6104 31.2561 11.6886C31.2361 11.7667 31.2761 11.8448 31.3541 11.8741C31.4321 11.9034 31.5201 11.8546 31.5391 11.7765Z" fill="#068A48"/>
<path d="M21.481 2.87094C21.511 2.95883 21.4711 3.04671 21.3841 3.07601C21.2961 3.1053 21.2081 3.06624 21.1691 2.97836C21.1391 2.90024 21.179 2.80258 21.266 2.77329C21.354 2.74399 21.452 2.78305 21.481 2.87094Z" fill="#068A48"/>
<path d="M31.139 12.5189C31.051 12.4896 30.963 12.5287 30.934 12.6165C30.904 12.6947 30.944 12.7923 31.031 12.8216C31.11 12.8509 31.207 12.8118 31.236 12.724C31.266 12.6458 31.217 12.5482 31.139 12.5189Z" fill="#068A48"/>
<path d="M20.583 3.23242C20.622 3.32031 20.583 3.42772 20.495 3.46678C20.407 3.50584 20.3 3.46678 20.261 3.3789C20.222 3.29101 20.261 3.1836 20.349 3.14454C20.436 3.10548 20.534 3.14454 20.583 3.23242Z" fill="#068A48"/>
<path d="M30.7679 13.4268C30.6799 13.3877 30.5719 13.4268 30.5329 13.5146C30.4939 13.6025 30.5329 13.7099 30.6209 13.749C30.7089 13.7881 30.8169 13.749 30.8559 13.6611C30.9039 13.5732 30.8649 13.4658 30.7679 13.4268Z" fill="#068A48"/>
<path d="M19.6941 3.6426C19.7431 3.74025 19.7041 3.84766 19.6061 3.89649C19.5091 3.94531 19.3921 3.90625 19.3521 3.8086C19.3041 3.71095 19.3431 3.60354 19.4401 3.55471C19.5381 3.50589 19.6451 3.54495 19.6941 3.6426Z" fill="#068A48"/>
<path d="M30.358 14.3155C30.26 14.2666 30.153 14.3057 30.104 14.4033C30.055 14.501 30.094 14.6084 30.192 14.6572C30.289 14.7061 30.397 14.667 30.446 14.5693C30.494 14.4717 30.455 14.3545 30.358 14.3155Z" fill="#068A48"/>
<path d="M18.815 4.08181C18.864 4.17946 18.825 4.30641 18.727 4.35523C18.63 4.40406 18.503 4.365 18.454 4.26735C18.405 4.15993 18.444 4.04275 18.542 3.98416C18.64 3.93534 18.767 3.9744 18.815 4.08181Z" fill="#068A48"/>
<path d="M29.928 15.1846C29.821 15.1358 29.7029 15.1748 29.6549 15.2725C29.6059 15.3701 29.645 15.4971 29.742 15.5459C29.84 15.5947 29.9669 15.5557 30.0159 15.458C30.0739 15.3604 30.026 15.2432 29.928 15.1846Z" fill="#068A48"/>
<path d="M17.9461 4.52115C18.0051 4.62857 17.9561 4.76528 17.8491 4.8141C17.7411 4.87269 17.6051 4.82387 17.5561 4.71645C17.4971 4.60904 17.5461 4.47233 17.6531 4.4235C17.7611 4.36491 17.8881 4.41374 17.9461 4.52115Z" fill="#068A48"/>
<path d="M29.479 16.0539C29.371 15.9953 29.235 16.0441 29.186 16.1515C29.127 16.2589 29.1759 16.3956 29.2829 16.4445C29.3909 16.5031 29.5279 16.4542 29.5759 16.3468C29.6349 16.2492 29.596 16.1125 29.479 16.0539Z" fill="#068A48"/>
<path d="M17.077 4.96068C17.136 5.07786 17.087 5.22434 16.97 5.27316C16.853 5.33175 16.706 5.27316 16.657 5.15598C16.599 5.0388 16.648 4.90209 16.765 4.8435C16.882 4.79468 17.019 4.8435 17.077 4.96068Z" fill="#068A48"/>
<path d="M29.049 16.9325C28.932 16.874 28.795 16.9228 28.737 17.04C28.678 17.1571 28.727 17.3036 28.844 17.3524C28.961 17.411 29.098 17.3524 29.157 17.245C29.215 17.1278 29.166 16.9911 29.049 16.9325Z" fill="#068A48"/>
<path d="M16.189 5.37094C16.247 5.49788 16.189 5.64436 16.062 5.70295C15.935 5.76154 15.788 5.70295 15.73 5.576C15.681 5.44906 15.739 5.30258 15.857 5.24399C15.983 5.1854 16.14 5.24399 16.189 5.37094Z" fill="#068A48"/>
<path d="M28.639 17.8114C28.512 17.7528 28.366 17.8114 28.307 17.9383C28.248 18.0653 28.307 18.2117 28.434 18.2703C28.561 18.3192 28.707 18.2606 28.766 18.1434C28.825 18.0164 28.756 17.87 28.639 17.8114Z" fill="#068A48"/>
<path d="M15.29 5.7418C15.339 5.87851 15.271 6.03475 15.134 6.08357C14.987 6.1324 14.841 6.05428 14.802 5.91757C14.753 5.78086 14.821 5.63438 14.958 5.58556C15.085 5.53673 15.232 5.60509 15.29 5.7418Z" fill="#068A48"/>
<path d="M28.258 18.7198C28.121 18.671 27.965 18.7394 27.916 18.8761C27.868 19.0225 27.946 19.169 28.082 19.2178C28.219 19.2667 28.366 19.1886 28.414 19.0616C28.463 18.9151 28.405 18.7687 28.258 18.7198Z" fill="#068A48"/>
<path d="M14.3631 6.05419C14.4111 6.20066 14.3231 6.35691 14.1671 6.39597C14.0111 6.43503 13.8641 6.35691 13.8251 6.20067C13.7961 6.05419 13.8741 5.89795 14.0211 5.85889C14.1671 5.81983 14.3231 5.90771 14.3631 6.05419Z" fill="#068A48"/>
<path d="M27.946 19.6375C27.799 19.5887 27.643 19.6766 27.604 19.8328C27.565 19.9793 27.653 20.1355 27.799 20.1746C27.946 20.2137 28.102 20.1258 28.141 19.9793C28.18 19.8426 28.092 19.6863 27.946 19.6375Z" fill="#068A48"/>
<path d="M13.415 6.28881C13.445 6.44505 13.3469 6.61105 13.1709 6.63058C13.0049 6.65011 12.859 6.5427 12.829 6.37669C12.81 6.22045 12.917 6.06421 13.074 6.04468C13.24 6.03492 13.386 6.1228 13.415 6.28881Z" fill="#068A48"/>
<path d="M27.711 20.5849C27.555 20.5556 27.389 20.663 27.37 20.829C27.35 20.995 27.4569 21.1513 27.6229 21.1708C27.7799 21.1903 27.9359 21.0829 27.9549 20.9267C27.9749 20.7704 27.877 20.6239 27.711 20.5849Z" fill="#068A48"/>
<path d="M12.449 6.42527C12.458 6.59128 12.331 6.74752 12.156 6.74752C11.98 6.74752 11.833 6.62058 11.833 6.4448C11.833 6.2788 11.97 6.13232 12.126 6.13232C12.292 6.13232 12.439 6.25927 12.449 6.42527Z" fill="#068A48"/>
<path d="M27.584 21.5513C27.418 21.5415 27.262 21.6685 27.262 21.8443C27.252 22.02 27.389 22.1665 27.565 22.1665C27.731 22.1665 27.877 22.0396 27.877 21.8736C27.877 21.7075 27.75 21.5708 27.584 21.5513Z" fill="#068A48"/>
<path d="M2.67401 1.98241C2.61501 2.041 2.52699 2.041 2.46899 1.98241C2.40999 1.93358 2.40001 1.83593 2.45901 1.77734C2.51801 1.71875 2.605 1.71875 2.664 1.77734C2.732 1.83593 2.73201 1.92382 2.67401 1.98241Z" fill="#068A48"/>
<path d="M32.018 31.326C31.959 31.3846 31.959 31.4725 32.018 31.5311C32.076 31.5897 32.164 31.5897 32.223 31.5311C32.281 31.4725 32.281 31.3749 32.223 31.3163C32.174 31.2772 32.086 31.2772 32.018 31.326Z" fill="#068A48"/>
<path d="M3.41597 2.66583C3.35697 2.73418 3.24998 2.74395 3.18198 2.67559C3.11298 2.617 3.11297 2.51935 3.17197 2.451C3.22997 2.38264 3.33798 2.38264 3.39598 2.44123C3.46498 2.49982 3.47497 2.59747 3.41597 2.66583Z" fill="#068A48"/>
<path d="M31.3341 30.5941C31.2661 30.6527 31.2661 30.7601 31.3241 30.8187C31.3831 30.887 31.4901 30.887 31.5491 30.8284C31.6171 30.7698 31.617 30.6624 31.559 30.6038C31.51 30.5355 31.4031 30.5355 31.3341 30.5941Z" fill="#068A48"/>
<path d="M4.17808 3.32011C4.11908 3.39823 4.00208 3.408 3.92408 3.33964C3.84608 3.27129 3.84606 3.16387 3.90406 3.09551C3.97306 3.01739 4.08006 3.00763 4.15806 3.07598C4.22606 3.13457 4.23608 3.24199 4.17808 3.32011Z" fill="#068A48"/>
<path d="M30.6801 29.8323C30.6021 29.8909 30.5921 30.0081 30.6601 30.0862C30.7291 30.1643 30.8361 30.1741 30.9141 30.1058C30.9921 30.0374 31.0021 29.93 30.9341 29.8519C30.8651 29.7737 30.7581 29.764 30.6801 29.8323Z" fill="#068A48"/>
<path d="M4.96902 3.93513C4.91002 4.02302 4.78301 4.04255 4.70501 3.97419C4.61701 3.9156 4.59801 3.78866 4.66601 3.71054C4.72401 3.62265 4.85101 3.60312 4.93001 3.67148C5.01701 3.73007 5.03702 3.84725 4.96902 3.93513Z" fill="#068A48"/>
<path d="M30.0651 29.0315C29.9771 29.0901 29.9571 29.2171 30.0261 29.305C30.0941 29.3928 30.2111 29.4026 30.2891 29.344C30.3771 29.2757 30.3871 29.1585 30.3281 29.0804C30.2701 28.9925 30.1531 28.9729 30.0651 29.0315Z" fill="#068A48"/>
<path d="M5.79899 4.51142C5.73999 4.59931 5.61299 4.6286 5.51499 4.57001C5.41799 4.50166 5.39798 4.37471 5.45698 4.28683C5.52498 4.19894 5.65197 4.16965 5.73997 4.22824C5.82797 4.28683 5.85699 4.41377 5.79899 4.51142Z" fill="#068A48"/>
<path d="M29.498 28.2111C29.401 28.2697 29.381 28.3966 29.44 28.4943C29.498 28.5919 29.635 28.6114 29.723 28.5529C29.811 28.4943 29.84 28.3673 29.782 28.2697C29.723 28.172 29.596 28.1427 29.498 28.2111Z" fill="#068A48"/>
<path d="M6.65793 5.02916C6.59893 5.13658 6.46295 5.17564 6.35495 5.10728C6.24795 5.04869 6.20895 4.91198 6.27695 4.80456C6.34495 4.69715 6.47193 4.66785 6.57993 4.72644C6.67693 4.78503 6.71693 4.92175 6.65793 5.02916Z" fill="#068A48"/>
<path d="M28.981 27.342C28.873 27.4006 28.834 27.5373 28.903 27.6447C28.961 27.7521 29.098 27.7912 29.205 27.7228C29.313 27.6545 29.342 27.5275 29.283 27.4201C29.225 27.3225 29.088 27.2834 28.981 27.342Z" fill="#068A48"/>
<path d="M7.55601 5.47842C7.49801 5.5956 7.36099 5.64443 7.24399 5.5956C7.12699 5.52725 7.07799 5.39054 7.13599 5.27336C7.19499 5.15617 7.33201 5.10735 7.44901 5.16594C7.55601 5.22453 7.61501 5.36124 7.55601 5.47842Z" fill="#068A48"/>
<path d="M28.5319 26.4438C28.4139 26.4926 28.3659 26.6391 28.4139 26.7563C28.4729 26.8734 28.6099 26.9223 28.7269 26.8637C28.8439 26.8051 28.8929 26.6684 28.8339 26.5512C28.7849 26.4438 28.6489 26.395 28.5319 26.4438Z" fill="#068A48"/>
<path d="M8.49394 5.84935C8.44494 5.98606 8.29794 6.05441 8.16194 5.99582C8.02494 5.947 7.96597 5.80052 8.01497 5.67358C8.06397 5.54663 8.21096 5.48804 8.33696 5.5271C8.46396 5.58569 8.53294 5.7224 8.49394 5.84935Z" fill="#068A48"/>
<path d="M28.151 25.5158C28.024 25.5647 27.955 25.7111 28.004 25.8381C28.053 25.965 28.2 26.0334 28.327 25.9846C28.453 25.9357 28.512 25.7893 28.473 25.6623C28.414 25.5354 28.278 25.467 28.151 25.5158Z" fill="#068A48"/>
<path d="M9.45101 6.15213C9.41201 6.28884 9.26501 6.37672 9.11901 6.3279C8.98201 6.28884 8.89402 6.14236 8.94302 6.00565C8.98202 5.86894 9.12804 5.79082 9.26504 5.82988C9.40204 5.86894 9.48001 6.00565 9.45101 6.15213Z" fill="#068A48"/>
<path d="M27.858 24.5593C27.711 24.5984 27.633 24.7449 27.672 24.8816C27.711 25.028 27.858 25.1062 28.004 25.0671C28.141 25.028 28.219 24.8816 28.19 24.7449C28.141 24.5984 27.994 24.5203 27.858 24.5593Z" fill="#068A48"/>
<path d="M10.437 6.3474C10.408 6.50364 10.271 6.60129 10.105 6.58176C9.94904 6.55247 9.85104 6.39623 9.89004 6.24975C9.91904 6.09351 10.066 6.00562 10.212 6.02515C10.359 6.05445 10.457 6.20092 10.437 6.3474Z" fill="#068A48"/>
<path d="M27.6531 23.5728C27.4971 23.5923 27.399 23.7388 27.428 23.895C27.457 24.0513 27.604 24.1489 27.76 24.1196C27.916 24.0903 28.004 23.9439 27.985 23.7974C27.946 23.6509 27.8091 23.5533 27.6531 23.5728Z" fill="#068A48"/>
<path d="M11.433 6.44484C11.433 6.61085 11.287 6.72803 11.121 6.71826C10.955 6.7085 10.828 6.56202 10.847 6.39602C10.867 6.23978 11.003 6.11283 11.16 6.13236C11.316 6.14213 11.443 6.2886 11.433 6.44484Z" fill="#068A48"/>
<path d="M27.5549 22.5669C27.3889 22.5767 27.272 22.7134 27.282 22.8794C27.301 23.0454 27.438 23.1723 27.604 23.1528C27.76 23.1333 27.877 22.9966 27.868 22.8403C27.858 22.6841 27.7209 22.5669 27.5549 22.5669Z" fill="#068A48"/>
<path d="M22.819 4.49218C22.799 4.53124 22.751 4.541 22.712 4.52147C22.673 4.50194 22.653 4.44335 22.682 4.40429C22.712 4.36523 22.76 4.35547 22.799 4.375C22.829 4.40429 22.839 4.46288 22.819 4.49218Z" fill="#068A48"/>
<path d="M29.508 11.1908C29.479 11.2104 29.459 11.2592 29.479 11.2982C29.508 11.3373 29.557 11.3471 29.596 11.3275C29.635 11.2982 29.645 11.2494 29.625 11.2104C29.596 11.1811 29.547 11.1713 29.508 11.1908Z" fill="#068A48"/>
<path d="M22.624 4.98038C22.614 5.02921 22.565 5.0585 22.516 5.04874C22.468 5.03897 22.438 4.99015 22.448 4.94132C22.458 4.89249 22.507 4.8632 22.555 4.87296C22.614 4.88273 22.634 4.93156 22.624 4.98038Z" fill="#068A48"/>
<path d="M29.03 11.3764C28.981 11.3862 28.951 11.435 28.961 11.4838C28.971 11.5326 29.02 11.5619 29.069 11.5522C29.117 11.5424 29.147 11.4838 29.137 11.435C29.117 11.3959 29.069 11.3666 29.03 11.3764Z" fill="#068A48"/>
<path d="M22.487 5.60497C22.438 5.60497 22.389 5.56591 22.38 5.50732C22.38 5.44873 22.419 5.3999 22.477 5.3999C22.526 5.3999 22.575 5.43896 22.575 5.49755C22.585 5.54638 22.546 5.5952 22.487 5.60497Z" fill="#068A48"/>
<path d="M28.405 11.5132C28.405 11.5718 28.444 11.6109 28.502 11.6206C28.561 11.6206 28.61 11.5816 28.61 11.523C28.61 11.4644 28.561 11.4253 28.512 11.4253C28.453 11.4156 28.414 11.4546 28.405 11.5132Z" fill="#068A48"/>
<path d="M22.614 6.142C22.555 6.16153 22.4969 6.13223 22.4769 6.07364C22.4579 6.01505 22.497 5.95646 22.546 5.93693C22.604 5.92716 22.663 5.95646 22.673 6.00528C22.702 6.06388 22.673 6.12247 22.614 6.142Z" fill="#068A48"/>
<path d="M27.858 11.3958C27.838 11.4544 27.868 11.5129 27.926 11.5325C27.985 11.552 28.043 11.5129 28.063 11.4641C28.073 11.4055 28.043 11.3469 27.994 11.3372C27.936 11.3079 27.877 11.3372 27.858 11.3958Z" fill="#068A48"/>
<path d="M22.858 6.65017C22.8 6.67946 22.731 6.65993 22.702 6.61111C22.673 6.55252 22.692 6.48416 22.751 6.45487C22.809 6.42557 22.878 6.4451 22.907 6.50369C22.926 6.54275 22.907 6.61111 22.858 6.65017Z" fill="#068A48"/>
<path d="M27.36 11.1517C27.33 11.2103 27.35 11.2787 27.399 11.308C27.457 11.3373 27.526 11.3177 27.555 11.2591C27.584 11.2005 27.565 11.1322 27.506 11.1029C27.457 11.0834 27.389 11.0931 27.36 11.1517Z" fill="#068A48"/>
<path d="M23.18 7.08952C23.132 7.13835 23.053 7.12858 23.005 7.06999C22.956 7.02116 22.966 6.94304 23.024 6.89422C23.083 6.85516 23.151 6.86492 23.2 6.91375C23.239 6.97234 23.239 7.05046 23.18 7.08952Z" fill="#068A48"/>
<path d="M26.911 10.8195C26.872 10.8683 26.872 10.9465 26.93 10.9953C26.979 11.0441 27.057 11.0343 27.106 10.9758C27.145 10.9172 27.135 10.8488 27.086 10.8C27.028 10.7609 26.95 10.7707 26.911 10.8195Z" fill="#068A48"/>
<path d="M23.5809 7.47984C23.5319 7.53843 23.4539 7.5482 23.3949 7.48961C23.3369 7.44078 23.3369 7.3529 23.3849 7.30407C23.4339 7.25525 23.512 7.24548 23.571 7.29431C23.62 7.34313 23.6299 7.42125 23.5809 7.47984Z" fill="#068A48"/>
<path d="M26.52 10.4193C26.461 10.4681 26.452 10.5463 26.51 10.6048C26.559 10.6634 26.647 10.6634 26.696 10.6146C26.745 10.5658 26.754 10.4779 26.706 10.4291C26.657 10.3802 26.579 10.3705 26.52 10.4193Z" fill="#068A48"/>
<path d="M23.854 7.84111C23.786 7.80205 23.766 7.71416 23.815 7.64581C23.854 7.58722 23.942 7.56769 24.001 7.60675C24.059 7.64581 24.089 7.72393 24.049 7.79228C24.01 7.86064 23.923 7.88017 23.854 7.84111Z" fill="#068A48"/>
<path d="M26.168 10.1457C26.208 10.2141 26.295 10.2336 26.364 10.1848C26.422 10.1457 26.442 10.0578 26.403 9.99923C26.364 9.94064 26.286 9.91134 26.217 9.9504C26.149 9.99923 26.12 10.0871 26.168 10.1457Z" fill="#068A48"/>
<path d="M24.547 8.02698C24.518 8.1051 24.43 8.14416 24.352 8.1051C24.274 8.07581 24.245 7.97816 24.274 7.9098C24.313 7.83168 24.391 7.80238 24.46 7.84144C24.547 7.87074 24.577 7.95863 24.547 8.02698Z" fill="#068A48"/>
<path d="M25.9729 9.4526C25.8949 9.48189 25.8559 9.56978 25.8949 9.6479C25.9239 9.72602 26.0219 9.75531 26.0899 9.72602C26.1589 9.68696 26.1879 9.60884 26.1589 9.54048C26.1289 9.46236 26.0509 9.4233 25.9729 9.4526Z" fill="#068A48"/>
<path d="M24.899 8.30019C24.811 8.28066 24.762 8.19277 24.792 8.10489C24.821 8.02677 24.899 7.97794 24.977 7.99747C25.055 8.017 25.104 8.10489 25.094 8.18301C25.065 8.27089 24.987 8.32948 24.899 8.30019Z" fill="#068A48"/>
<path d="M25.7 9.1106C25.719 9.19849 25.807 9.24731 25.885 9.21802C25.963 9.18872 26.012 9.1106 25.993 9.03248C25.973 8.95436 25.885 8.90554 25.807 8.9153C25.729 8.93483 25.68 9.02272 25.7 9.1106Z" fill="#068A48"/>
<path d="M25.456 8.40765C25.358 8.39788 25.299 8.31976 25.309 8.23188C25.319 8.14399 25.397 8.07564 25.485 8.0854C25.573 8.09517 25.631 8.17329 25.631 8.26117C25.631 8.34906 25.553 8.42718 25.456 8.40765Z" fill="#068A48"/>
<path d="M25.592 8.54442C25.602 8.64207 25.68 8.70066 25.768 8.6909C25.856 8.68113 25.924 8.60301 25.915 8.51513C25.905 8.42724 25.827 8.36865 25.739 8.36865C25.651 8.36865 25.583 8.44677 25.592 8.54442Z" fill="#068A48"/>
<path d="M9.84106 2.70513C9.85106 2.74419 9.82207 2.79301 9.77307 2.80278C9.72407 2.81254 9.68505 2.77348 9.67505 2.73442C9.67505 2.6856 9.70505 2.64654 9.74405 2.63677C9.79205 2.62701 9.83206 2.66607 9.84106 2.70513Z" fill="#068A48"/>
<path d="M31.305 24.1586C31.256 24.1488 31.217 24.1781 31.207 24.227C31.197 24.2758 31.237 24.3148 31.276 24.3246C31.324 24.3246 31.363 24.2953 31.373 24.2563C31.373 24.2172 31.344 24.1684 31.305 24.1586Z" fill="#068A48"/>
<path d="M9.29405 2.72452C9.29405 2.77335 9.23605 2.81241 9.18705 2.80264C9.13805 2.79288 9.10903 2.74405 9.11903 2.69523C9.13803 2.6464 9.17705 2.61711 9.22605 2.62687C9.27505 2.63664 9.30405 2.6757 9.29405 2.72452Z" fill="#068A48"/>
<path d="M31.276 24.7056C31.227 24.7154 31.188 24.7642 31.197 24.813C31.207 24.8619 31.256 24.9009 31.305 24.8814C31.354 24.8716 31.383 24.8228 31.373 24.774C31.373 24.7349 31.324 24.6959 31.276 24.7056Z" fill="#068A48"/>
<path d="M8.78702 2.54871C8.75702 2.59753 8.68902 2.6073 8.65002 2.56824C8.60102 2.52918 8.59104 2.46082 8.63004 2.42176C8.66904 2.3827 8.72803 2.3827 8.76703 2.412C8.80603 2.44129 8.81602 2.49988 8.78702 2.54871Z" fill="#068A48"/>
<path d="M31.4611 25.223C31.4121 25.2522 31.4031 25.3206 31.4421 25.3694C31.4811 25.4183 31.5491 25.4183 31.5881 25.3792C31.6271 25.3401 31.6271 25.2815 31.5981 25.2425C31.5591 25.2034 31.5101 25.1839 31.4611 25.223Z" fill="#068A48"/>
<path d="M8.50304 2.00187C8.51304 2.05069 8.49405 2.10928 8.43505 2.13858C8.37705 2.16787 8.31805 2.13858 8.28905 2.07022C8.27905 2.00187 8.30805 1.94328 8.36705 1.93351C8.42505 1.92375 8.48404 1.95304 8.50304 2.00187Z" fill="#068A48"/>
<path d="M32.008 25.5061C31.959 25.4866 31.901 25.5159 31.871 25.5647C31.842 25.6233 31.871 25.6819 31.94 25.7112C32.008 25.7307 32.067 25.6917 32.076 25.6331C32.086 25.5745 32.047 25.5159 32.008 25.5061Z" fill="#068A48"/>
<path d="M8.29801 1.44523C8.32801 1.37687 8.40599 1.34758 8.45499 1.38664C8.51299 1.4257 8.52301 1.48429 8.51301 1.53311C8.49401 1.58194 8.43502 1.61123 8.37702 1.60147C8.30802 1.5917 8.26901 1.52335 8.29801 1.44523Z" fill="#068A48"/>
<path d="M32.5549 25.7014C32.6229 25.6721 32.652 25.594 32.613 25.5452C32.574 25.4964 32.516 25.4671 32.467 25.4866C32.418 25.5061 32.3889 25.5647 32.3989 25.6233C32.4179 25.6917 32.4859 25.7307 32.5549 25.7014Z" fill="#068A48"/>
<path d="M8.67893 1.16199C8.63993 1.1034 8.65994 1.02528 8.72794 0.98622C8.79594 0.94716 8.87495 0.98622 8.89395 1.05458C8.91395 1.12293 8.89394 1.19129 8.83594 1.21082C8.78694 1.24011 8.71793 1.22058 8.67893 1.16199Z" fill="#068A48"/>
<path d="M32.838 25.3303C32.897 25.3694 32.975 25.3499 33.014 25.2815C33.053 25.2131 33.014 25.135 32.945 25.1155C32.877 25.096 32.809 25.1253 32.789 25.1741C32.77 25.2229 32.789 25.2913 32.838 25.3303Z" fill="#068A48"/>
<path d="M9.18701 0.996085C9.18701 0.917965 9.24601 0.859375 9.32401 0.859375C9.40201 0.859375 9.45999 0.92773 9.45099 0.996085C9.44099 1.06444 9.38201 1.12303 9.32401 1.12303C9.25501 1.12303 9.19701 1.06444 9.18701 0.996085Z" fill="#068A48"/>
<path d="M33.014 24.8131C33.092 24.8228 33.15 24.7642 33.15 24.6764C33.15 24.5982 33.082 24.5396 33.014 24.5494C32.936 24.5592 32.887 24.6178 32.887 24.6861C32.887 24.7447 32.936 24.8033 33.014 24.8131Z" fill="#068A48"/>
<path d="M9.734 1.04488C9.753 0.966757 9.83199 0.927697 9.91899 0.956992C9.99799 0.986287 10.027 1.07417 9.99797 1.14253C9.95897 1.21088 9.87998 1.24994 9.82198 1.22065C9.75298 1.20112 9.714 1.123 9.734 1.04488Z" fill="#068A48"/>
<path d="M32.955 24.2761C33.033 24.2565 33.072 24.1784 33.043 24.0905C33.014 24.0124 32.926 23.9733 32.857 24.0124C32.789 24.0417 32.75 24.1296 32.779 24.1882C32.809 24.2565 32.887 24.2956 32.955 24.2761Z" fill="#068A48"/>
<path d="M10.457 1.46485C10.398 1.52345 10.31 1.52345 10.251 1.47462C10.193 1.43556 10.183 1.34767 10.232 1.27932C10.281 1.21096 10.378 1.19143 10.447 1.25002C10.505 1.30861 10.515 1.40626 10.457 1.46485Z" fill="#068A48"/>
<path d="M32.5449 23.5535C32.4859 23.6121 32.4859 23.7 32.5249 23.7586C32.5739 23.8172 32.6619 23.8269 32.7309 23.7879C32.7989 23.7391 32.8089 23.6414 32.7599 23.5731C32.6909 23.4949 32.5939 23.4852 32.5449 23.5535Z" fill="#068A48"/>
<path d="M10.5639 1.86501C10.5249 1.79666 10.5439 1.70877 10.6129 1.65995C10.6909 1.61112 10.7889 1.63065 10.8369 1.71854C10.8859 1.80642 10.8469 1.90407 10.7589 1.93337C10.6809 1.96266 10.5929 1.9236 10.5639 1.86501Z" fill="#068A48"/>
<path d="M32.145 23.4461C32.213 23.4754 32.301 23.4558 32.35 23.3875C32.399 23.3191 32.379 23.2117 32.291 23.1726C32.203 23.1238 32.106 23.1629 32.076 23.2508C32.047 23.3386 32.076 23.407 32.145 23.4461Z" fill="#068A48"/>
<path d="M10.671 2.32428C10.671 2.24616 10.73 2.17781 10.818 2.15828C10.906 2.13875 10.994 2.21687 10.994 2.32428C10.994 2.4317 10.906 2.50005 10.818 2.49029C10.73 2.47076 10.671 2.4024 10.671 2.32428Z" fill="#068A48"/>
<path d="M31.686 23.3384C31.764 23.3384 31.832 23.2798 31.852 23.1919C31.871 23.104 31.793 23.0161 31.686 23.0161C31.578 23.0161 31.51 23.104 31.52 23.1919C31.529 23.27 31.608 23.3384 31.686 23.3384Z" fill="#068A48"/>
<path d="M10.876 2.92963C10.828 3.02728 10.72 3.06634 10.642 3.01752C10.554 2.96869 10.5249 2.86128 10.5539 2.79292C10.5929 2.7148 10.681 2.67574 10.779 2.70504C10.867 2.72457 10.915 2.83198 10.876 2.92963Z" fill="#068A48"/>
<path d="M31.07 23.1334C30.973 23.1725 30.944 23.2897 30.992 23.3678C31.041 23.4459 31.139 23.4752 31.217 23.4459C31.295 23.4068 31.3339 23.3189 31.3049 23.2311C31.2759 23.1334 31.168 23.0846 31.07 23.1334Z" fill="#068A48"/>
<path d="M5.28104 2.70507C5.25204 2.74413 5.20303 2.7539 5.16403 2.73437C5.12503 2.71484 5.11504 2.65625 5.13504 2.61719C5.15404 2.57812 5.20304 2.56836 5.25204 2.58789C5.29104 2.61719 5.30104 2.66601 5.28104 2.70507Z" fill="#068A48"/>
<path d="M31.305 28.7289C31.266 28.7485 31.256 28.7973 31.276 28.8461C31.295 28.8852 31.354 28.9047 31.393 28.8754C31.432 28.8559 31.442 28.7973 31.422 28.7582C31.393 28.7192 31.344 28.6997 31.305 28.7289Z" fill="#068A48"/>
<path d="M5.77899 2.96841C5.74999 3.00747 5.70101 3.027 5.65201 3.00747C5.60301 2.98794 5.59401 2.92935 5.61301 2.89029C5.63301 2.84146 5.69101 2.8317 5.73001 2.85123C5.77901 2.87076 5.79899 2.91958 5.77899 2.96841Z" fill="#068A48"/>
<path d="M31.0409 28.2306C30.9919 28.2502 30.973 28.3087 31.002 28.3576C31.022 28.4064 31.0799 28.4259 31.1189 28.3966C31.1679 28.3771 31.1779 28.3185 31.1579 28.2697C31.1389 28.2209 31.0799 28.2111 31.0409 28.2306Z" fill="#068A48"/>
<path d="M6.28694 3.20279C6.26694 3.25161 6.20896 3.28091 6.15996 3.25161C6.10096 3.23208 6.08197 3.17349 6.10097 3.12467C6.12097 3.07584 6.17895 3.05631 6.22795 3.07584C6.28695 3.09537 6.30594 3.15396 6.28694 3.20279Z" fill="#068A48"/>
<path d="M30.797 27.7231C30.748 27.7426 30.719 27.8012 30.748 27.8501C30.768 27.8989 30.826 27.9184 30.875 27.8989C30.924 27.8794 30.944 27.8208 30.924 27.7719C30.914 27.7231 30.856 27.6938 30.797 27.7231Z" fill="#068A48"/>
<path d="M6.81406 3.4082C6.79506 3.46679 6.72606 3.49608 6.67706 3.47655C6.61906 3.45702 6.59007 3.38867 6.60907 3.33984C6.62907 3.28125 6.69706 3.26172 6.74606 3.28125C6.80406 3.29101 6.83406 3.35937 6.81406 3.4082Z" fill="#068A48"/>
<path d="M30.592 27.1958C30.533 27.2153 30.504 27.2739 30.524 27.3325C30.543 27.3911 30.612 27.4204 30.66 27.3911C30.719 27.3716 30.738 27.313 30.719 27.2544C30.709 27.1958 30.651 27.1763 30.592 27.1958Z" fill="#068A48"/>
<path d="M7.34101 3.58368C7.32201 3.64227 7.26302 3.68133 7.19502 3.6618C7.13602 3.64227 7.10702 3.58368 7.12702 3.51533C7.14602 3.45674 7.21502 3.41768 7.27302 3.43721C7.33202 3.45674 7.37101 3.52509 7.34101 3.58368Z" fill="#068A48"/>
<path d="M30.416 26.6584C30.358 26.6779 30.319 26.7365 30.338 26.8049C30.358 26.8635 30.426 26.9025 30.485 26.883C30.543 26.8635 30.572 26.7951 30.563 26.7365C30.543 26.6779 30.475 26.6389 30.416 26.6584Z" fill="#068A48"/>
<path d="M7.88792 3.73049C7.87892 3.79885 7.80993 3.83791 7.74193 3.82814C7.67293 3.80861 7.63392 3.74026 7.65392 3.6719C7.66392 3.61331 7.73191 3.57425 7.79991 3.58401C7.86891 3.60355 7.90792 3.6719 7.88792 3.73049Z" fill="#068A48"/>
<path d="M30.27 26.1118C30.201 26.1314 30.162 26.19 30.182 26.2583C30.201 26.3267 30.27 26.3657 30.328 26.3462C30.397 26.3267 30.436 26.2583 30.416 26.1997C30.406 26.1411 30.338 26.1021 30.27 26.1118Z" fill="#068A48"/>
<path d="M8.44502 3.83766C8.43502 3.90602 8.36702 3.95484 8.29802 3.94508C8.22002 3.93531 8.17201 3.86696 8.18101 3.7986C8.19101 3.73025 8.25901 3.68142 8.32801 3.69119C8.40601 3.70095 8.45502 3.75954 8.44502 3.83766Z" fill="#068A48"/>
<path d="M30.1721 25.5552C30.1041 25.5649 30.0451 25.6333 30.0551 25.7017C30.0651 25.7798 30.1331 25.8286 30.2111 25.8091C30.2791 25.7993 30.3281 25.7309 30.3191 25.6626C30.3091 25.604 30.2401 25.5552 30.1721 25.5552Z" fill="#068A48"/>
<path d="M9.01102 3.86714C9.01102 3.94526 8.95303 4.01361 8.87503 4.01361C8.79603 4.01361 8.72804 3.94526 8.73804 3.86714C8.73804 3.78902 8.80603 3.73043 8.87503 3.73043C8.94303 3.72066 9.00202 3.78902 9.01102 3.86714Z" fill="#068A48"/>
<path d="M30.143 24.9985C30.065 24.9985 29.996 25.0571 29.996 25.1352C29.996 25.2134 30.065 25.2817 30.143 25.272C30.221 25.272 30.28 25.2036 30.28 25.1352C30.28 25.0669 30.221 24.9985 30.143 24.9985Z" fill="#068A48"/>
<path d="M9.56797 3.7792C9.58697 3.85732 9.53897 3.94521 9.45097 3.95497C9.36297 3.9745 9.28497 3.91591 9.27497 3.83779C9.26497 3.75967 9.31398 3.68155 9.39198 3.67179C9.45998 3.65226 9.53897 3.70108 9.56797 3.7792Z" fill="#068A48"/>
<path d="M30.221 24.4418C30.143 24.4222 30.055 24.4711 30.045 24.559C30.026 24.6468 30.084 24.725 30.162 24.7347C30.24 24.7445 30.319 24.6957 30.328 24.6175C30.348 24.5394 30.299 24.4613 30.221 24.4418Z" fill="#068A48"/>
<path d="M10.085 3.5642C10.134 3.64232 10.105 3.73997 10.017 3.77903C9.92903 3.81809 9.83204 3.77903 9.80204 3.70091C9.77304 3.62279 9.80204 3.5349 9.88004 3.49584C9.94904 3.46655 10.037 3.48608 10.085 3.5642Z" fill="#068A48"/>
<path d="M30.446 23.9244C30.367 23.8756 30.27 23.9049 30.231 23.9928C30.192 24.0806 30.231 24.1783 30.309 24.2076C30.387 24.2369 30.475 24.2076 30.514 24.1295C30.543 24.0611 30.514 23.9635 30.446 23.9244Z" fill="#068A48"/>
<path d="M10.5049 3.20312C10.5739 3.26171 10.583 3.36913 10.515 3.43748C10.437 3.50584 10.3299 3.49607 10.2709 3.42772C10.2219 3.35936 10.2219 3.26171 10.2809 3.20312C10.3389 3.14453 10.4369 3.14453 10.5049 3.20312Z" fill="#068A48"/>
<path d="M30.807 23.4949C30.748 23.4265 30.641 23.4168 30.572 23.4851C30.504 23.5632 30.514 23.6707 30.582 23.7195C30.651 23.7781 30.748 23.7683 30.807 23.7097C30.856 23.6707 30.865 23.5632 30.807 23.4949Z" fill="#068A48"/>
</g>
</svg>
