<svg width="34" height="34" viewBox="0 0 34 34" fill="none" xmlns="http://www.w3.org/2000/svg">
<path d="M0 34L34 34L9.5 24.5L0 0L0 34Z" fill="#EFEFEF"/>
<mask id="mask0_2002_1847" style="mask-type:luminance" maskUnits="userSpaceOnUse" x="0" y="2" width="32" height="32">
<path d="M0 34L32 34L32 2L0 2L0 34Z" fill="white"/>
</mask>
<g mask="url(#mask0_2002_1847)">
<path d="M9.56999 24.4301C9.74599 24.4887 9.91199 24.5473 10.078 24.6156C11.445 25.2113 12.441 26.3733 12.695 27.6526C12.812 28.2873 12.763 28.9123 12.548 29.4591C12.343 30.0059 11.962 30.4649 11.533 30.7481C11.103 31.041 10.605 31.1875 10.146 31.1875C9.67699 31.1875 9.24799 31.0313 8.92499 30.8067C8.26099 30.3575 7.97799 29.6349 8.03699 29.0685C8.09499 28.5021 8.38799 28.1213 8.65199 27.8967C8.91499 27.6721 9.16899 27.594 9.32599 27.5647C9.48199 27.5354 9.55999 27.5354 9.55999 27.5354C9.57999 27.5549 9.19899 27.5354 8.75899 28.0139C8.55399 28.2482 8.34899 28.6193 8.35899 29.088C8.35899 29.5372 8.65199 30.0743 9.19899 30.3868C9.72599 30.709 10.507 30.6797 11.132 30.1915C11.757 29.7325 12.089 28.7951 11.865 27.8381C11.64 26.8909 10.829 25.9827 9.70599 25.514C9.41399 25.3968 9.09099 25.2992 8.76899 25.2406C8.70999 24.9086 8.62299 24.5961 8.50499 24.3032C8.03699 23.1802 7.12799 22.3697 6.18099 22.1451C5.22399 21.9107 4.29699 22.2427 3.82799 22.8775C3.33999 23.5024 3.30999 24.2836 3.63299 24.8109C3.93499 25.3578 4.47199 25.641 4.93099 25.6507C5.39999 25.6605 5.77099 25.4554 6.00599 25.2504C6.47399 24.8109 6.46399 24.4301 6.48399 24.4496C6.48399 24.4496 6.49399 24.5277 6.45499 24.684C6.42499 24.8402 6.34699 25.0941 6.12299 25.3578C5.89799 25.6214 5.51699 25.9144 4.95099 25.973C4.38499 26.0316 3.66199 25.7484 3.21299 25.0844C2.98799 24.7621 2.82199 24.3324 2.83199 23.8637C2.83199 23.395 2.97799 22.9068 3.27099 22.4771C3.55399 22.0474 4.01299 21.6666 4.55999 21.4615C5.10699 21.2467 5.73199 21.1979 6.36699 21.3151C7.64599 21.5689 8.79799 22.5552 9.39399 23.9223C9.45299 24.0786 9.51099 24.2543 9.56999 24.4301Z" fill="#068A48"/>
<path d="M7.00202 26.9888C7.19702 26.9302 7.37302 26.8911 7.53902 26.8618C8.08502 26.7642 8.48602 26.774 8.74002 26.7935C8.99402 26.8228 9.11102 26.8423 9.11102 26.8423C9.11102 26.8423 8.98402 26.8521 8.74002 26.8618C8.49602 26.8814 8.10502 26.9204 7.58702 27.0669C7.28502 27.1548 6.93302 27.272 6.54302 27.4575C6.71802 27.0669 6.84502 26.7154 6.92302 26.4127C7.07002 25.8951 7.10902 25.5045 7.12802 25.2506C7.13802 25.0065 7.14802 24.8795 7.14802 24.8795C7.14802 24.8795 7.16802 24.9967 7.19702 25.2506C7.21602 25.5045 7.22602 25.9049 7.12802 26.4517C7.09902 26.6177 7.06002 26.7935 7.00202 26.9888Z" fill="#068A48"/>
<path d="M9.56002 29.3716C9.56002 29.3716 9.63802 29.3814 9.65802 29.3911H9.64802C9.58902 29.3716 9.56002 29.3716 9.56002 29.3716Z" fill="#068A48"/>
<path d="M4.62903 24.4399C4.62903 24.4399 4.61903 24.3618 4.60903 24.3423V24.3521C4.61903 24.4009 4.62903 24.4399 4.62903 24.4399Z" fill="#068A48"/>
<path d="M10.947 29.8696C10.859 29.9379 10.722 30.0453 10.488 30.1332C10.253 30.2113 9.91201 30.2797 9.51101 30.143C9.13001 30.0063 8.65202 29.6352 8.60302 28.9712C8.59302 28.6489 8.71002 28.3462 8.91502 28.1216C9.12102 27.897 9.42302 27.7505 9.72602 27.7798C10.312 27.8287 10.722 28.3657 10.615 28.8247C10.497 29.2641 10.126 29.4301 9.91202 29.4399C9.74602 29.4497 9.71602 29.4106 9.66702 29.3911C9.72602 29.4008 9.80402 29.4008 9.90202 29.3813C10.097 29.3325 10.38 29.1176 10.419 28.7954C10.458 28.4732 10.107 28.1216 9.71601 28.1314C9.33501 28.1216 8.99402 28.5513 9.01302 28.9712C9.04202 29.3911 9.35502 29.7035 9.64802 29.8403C9.94102 29.977 10.234 29.977 10.449 29.9477C10.654 29.8988 10.81 29.85 10.908 29.811C10.995 29.7719 11.054 29.7524 11.054 29.7524C11.054 29.7524 11.025 29.7914 10.947 29.8696Z" fill="#068A48"/>
<path d="M4.131 23.0533C4.053 23.1412 3.955 23.2779 3.867 23.5122C3.789 23.7466 3.711 24.0786 3.857 24.4887C3.994 24.8696 4.365 25.3481 5.029 25.3969C5.351 25.4067 5.654 25.2895 5.879 25.0844C6.103 24.8793 6.25 24.5766 6.22 24.2739C6.172 23.688 5.634 23.2779 5.175 23.3853C4.736 23.5025 4.57 23.8736 4.56 24.0884C4.551 24.2544 4.59 24.2837 4.609 24.3325C4.599 24.2739 4.599 24.1958 4.619 24.1079C4.668 23.9126 4.883 23.6294 5.205 23.5904C5.527 23.5513 5.879 23.9028 5.869 24.2934C5.879 24.6743 5.449 25.0161 5.029 24.9965C4.609 24.9672 4.297 24.645 4.16 24.3618C4.023 24.0688 4.023 23.7759 4.053 23.5611C4.082 23.3462 4.14 23.1802 4.17 23.0826C4.209 22.9947 4.228 22.9361 4.228 22.9361C4.228 22.9361 4.199 22.9654 4.131 23.0533Z" fill="#068A48"/>
<path d="M4.95093 29.0393C4.84293 29.3713 4.44303 30.3186 3.21303 31.7638C2.81203 32.2227 2.35293 32.6622 1.84593 32.9844C1.38693 33.2871 0.898028 33.4727 0.459028 33.541C0.537028 33.1016 0.722928 32.6133 1.01593 32.1544C1.33793 31.6466 1.76693 31.1876 2.23593 30.7873C3.67193 29.5471 4.61893 29.1467 4.95093 29.0393Z" fill="#068A48"/>
<path d="M4.56998 30.5627C5.05798 29.6154 5.70298 28.678 6.34698 28.1605C6.66898 27.8968 6.96198 27.721 7.17698 27.6234C7.39198 27.5257 7.51898 27.4867 7.51898 27.4867C7.51898 27.4867 7.42098 27.5746 7.27498 27.7503C7.12798 27.9163 6.93298 28.1702 6.73798 28.4925C6.32798 29.137 5.97598 30.0646 5.46798 31.0411C4.96098 32.0176 4.36498 32.6231 3.92598 32.8965C3.70098 33.0332 3.52498 33.1113 3.40798 33.1406C3.29098 33.1797 3.23198 33.1797 3.23198 33.1797C3.23198 33.1797 3.32998 32.9551 3.55398 32.545C3.82798 32.0176 4.14998 31.3927 4.56998 30.5627Z" fill="#068A48"/>
<path d="M3.42803 29.4298C4.37503 28.9415 5.31203 28.297 5.83003 27.6428C6.09303 27.3303 6.26903 27.0276 6.36703 26.8127C6.46403 26.5979 6.50403 26.471 6.50403 26.471C6.50403 26.471 6.41603 26.5686 6.24003 26.7151C6.07403 26.8616 5.82003 27.0569 5.49803 27.2522C4.85303 27.6623 3.92603 28.0138 2.94903 28.5216C1.97303 29.0294 1.36703 29.6251 1.09403 30.0645C0.95703 30.2891 0.879027 30.4551 0.850027 30.582C0.811027 30.6992 0.811029 30.7578 0.811029 30.7578C0.811029 30.7578 1.03503 30.6602 1.44503 30.4356C1.98203 30.1719 2.60703 29.8497 3.42803 29.4298Z" fill="#068A48"/>
<path d="M6.66902 29.6155C6.76702 29.5178 6.83592 29.469 6.83592 29.469C6.83592 29.469 6.76702 29.7912 6.85502 30.1916C6.92302 30.6017 7.13792 31.0509 7.35292 31.5978C7.55792 32.1641 7.60702 32.6133 7.58702 32.916C7.56802 33.2188 7.49992 33.375 7.49992 33.375C7.49992 33.375 7.33392 33.3164 7.11892 33.1016C6.90392 32.8868 6.62992 32.5547 6.39592 31.9591C6.15192 31.3634 6.13192 30.6017 6.34692 30.1233C6.44492 29.8889 6.57202 29.7229 6.66902 29.6155Z" fill="#068A48"/>
<path d="M4.375 27.3304C4.482 27.223 4.521 27.1644 4.521 27.1644C4.521 27.1644 4.199 27.2327 3.799 27.1546C3.388 27.0862 2.939 26.8714 2.392 26.6566C1.836 26.4418 1.377 26.3929 1.084 26.4124C0.780996 26.432 0.624996 26.5003 0.624996 26.5003C0.624996 26.5003 0.692995 26.6663 0.897995 26.8812C1.11299 27.1058 1.445 27.3792 2.041 27.6038C2.637 27.8479 3.388 27.8577 3.867 27.6526C4.101 27.555 4.277 27.428 4.375 27.3304Z" fill="#068A48"/>
<path d="M18.212 33.2675C18.563 33.1308 19.061 32.9355 19.725 32.5254C20.38 32.1153 21.005 31.5684 21.483 31.1388C21.962 30.7091 22.303 30.4357 22.303 30.4357C22.303 30.4357 22.176 30.8556 21.893 31.4512C21.61 32.0371 21.132 32.8476 20.272 33.3945C19.423 33.9218 18.641 33.912 18.222 33.7851C18.007 33.7167 17.86 33.6386 17.782 33.58C17.694 33.5214 17.665 33.4824 17.665 33.4824C17.665 33.4824 17.714 33.4628 17.811 33.4238C17.899 33.3749 18.046 33.3261 18.212 33.2675Z" fill="#068A48"/>
<path d="M0.731995 15.7881C0.868995 15.4366 1.064 14.9386 1.474 14.2745C1.885 13.6203 2.431 12.9953 2.861 12.5168C3.291 12.0383 3.564 11.6966 3.564 11.6966C3.564 11.6966 3.144 11.8235 2.549 12.1067C1.963 12.3899 1.152 12.8684 0.604996 13.7277C0.0779957 14.5773 0.0879963 15.3585 0.214996 15.7784C0.272996 15.9932 0.360994 16.1397 0.419994 16.2178C0.487994 16.3057 0.517998 16.335 0.517998 16.335C0.517998 16.335 0.546996 16.2861 0.575996 16.1885C0.624996 16.0908 0.673995 15.9444 0.731995 15.7881Z" fill="#068A48"/>
<path d="M32 33.4337L31.971 33.4044C31.971 33.3849 31.951 33.3165 31.844 33.17C31.795 33.0919 31.639 33.0236 31.551 32.9357C31.531 32.9161 31.522 32.9064 31.502 32.8868C31.15 32.5158 30.623 31.9396 29.783 31.2268C29.305 30.8264 28.67 30.3675 27.938 29.928C27.362 29.5081 26.659 29.0883 25.702 28.7269C24.51 28.2973 22.967 27.9946 21.171 28.1996C20.282 28.307 19.403 28.5316 18.593 28.8539C17.772 29.1761 17.04 29.6156 16.347 30.0355C14.98 30.9045 13.7 31.676 12.47 31.9494C11.249 32.2521 10.165 31.9982 9.531 31.6662C9.199 31.5002 8.984 31.3147 8.837 31.1877C8.691 31.051 8.623 30.9729 8.623 30.9729C8.623 30.9729 8.681 31.0608 8.818 31.1975C8.955 31.344 9.169 31.5393 9.492 31.7248C10.117 32.1056 11.22 32.4084 12.499 32.1545C15.136 31.7639 17.655 28.8832 21.21 28.6098C22.255 28.4926 23.172 28.5609 24.012 28.7074C23.7 28.6976 23.397 28.6683 23.065 28.7074C21.962 28.8246 20.819 29.2152 19.696 29.762C18.563 30.2991 17.518 30.9436 16.493 31.5002C15.468 32.0666 14.452 32.5451 13.417 32.8087C11.386 33.3556 9.218 32.8673 8.164 31.5686C7.646 30.9534 7.46 30.1624 7.48 29.4886C7.5 28.8051 7.705 28.2192 7.978 27.8188C8.251 27.4087 8.574 27.1645 8.808 27.0376C9.052 26.9204 9.189 26.8716 9.189 26.8716C9.189 26.8716 9.052 26.9009 8.789 26.9985C8.535 27.1059 8.173 27.311 7.851 27.7211C7.519 28.1215 7.236 28.7269 7.158 29.4593C7.07 30.1917 7.197 31.0901 7.763 31.8811C8.31 32.6525 9.208 33.2579 10.244 33.5509C11.298 33.8633 12.47 33.8926 13.632 33.6388C14.091 33.5411 14.54 33.3849 14.989 33.2189C15.116 33.2579 15.204 33.297 15.399 33.3165C16.093 33.4142 17.274 33.3165 18.7 32.5841C20.116 31.8518 21.278 30.8752 22.235 30.2991C22.713 30.0062 23.114 29.8011 23.407 29.6644C23.475 29.6546 23.543 29.6644 23.612 29.6546C23.436 29.7327 23.26 29.7523 23.094 29.8792C22.694 30.1722 22.333 30.6506 22.235 31.2561C22.137 31.842 22.294 32.4572 22.626 32.9259C22.958 33.4044 23.436 33.7266 23.944 33.8926C24.461 34.0489 24.998 34.0391 25.448 33.8633C25.916 33.6876 26.258 33.336 26.434 32.965C26.619 32.5841 26.639 32.1838 26.541 31.8713C26.463 31.6369 26.327 31.51 26.19 31.3733C26.58 31.5783 27.166 31.7639 28.016 31.8225C28.904 31.8713 29.715 31.9592 30.311 32.2131C30.506 32.3498 30.682 32.4767 30.838 32.5939C30.574 32.5158 30.311 32.4279 30.008 32.4376C29.578 32.4376 29.158 32.506 28.778 32.5255C28.397 32.5548 28.143 32.5451 27.899 32.4865C27.674 32.4376 27.489 32.3693 27.342 32.2912C27.196 32.2131 27.098 32.1252 27.03 32.0568C26.971 31.9885 26.932 31.9494 26.932 31.9494C26.942 31.9396 26.766 32.1349 26.942 32.6037C27.039 32.8282 27.235 33.0821 27.567 33.2774C27.879 33.4825 28.377 33.5899 28.856 33.5411C29.344 33.502 29.754 33.3751 30.115 33.2872C30.467 33.1896 30.789 33.1407 31.072 33.1505C31.356 33.1505 31.59 33.2189 31.746 33.2872C31.902 33.3653 31.99 33.4337 31.99 33.4337V33.4239L32 33.4337ZM23.231 29.6741C22.928 29.7718 22.577 29.8987 22.137 30.1233C21.112 30.6116 19.872 31.5197 18.514 32.2228C17.147 32.9161 16.083 33.1017 15.409 33.1114C15.37 33.1114 15.37 33.1114 15.331 33.1114C16.991 32.4474 18.544 31.4416 20.145 30.6702C21.219 30.1624 22.235 29.8011 23.202 29.6741C23.202 29.6741 23.221 29.6741 23.231 29.6741ZM29.471 31.6272C29.451 31.6272 29.442 31.6174 29.432 31.6076C29.002 31.5002 28.524 31.4514 28.055 31.4123C27.117 31.344 26.502 31.2366 26.112 31.1096C25.721 30.9924 25.545 30.9045 25.545 30.9045C25.545 30.9045 25.584 30.9436 25.594 30.9631C25.477 30.9338 25.399 30.9436 25.399 30.9436C25.399 30.9436 25.496 30.9631 25.633 31.012C25.711 31.0901 25.829 31.1975 26.014 31.3049C26.034 31.3049 26.063 31.3147 26.063 31.3147C26.209 31.4709 26.356 31.6467 26.414 31.9103C26.493 32.2033 26.444 32.5548 26.258 32.8771C26.073 33.1896 25.76 33.4727 25.36 33.5997C24.959 33.7266 24.491 33.7169 24.061 33.5606C23.622 33.4142 23.211 33.1114 22.948 32.7111C22.674 32.3107 22.557 31.8029 22.645 31.3244C22.723 30.8362 23.006 30.4553 23.338 30.1917C23.67 29.928 24.051 29.7718 24.403 29.6839C24.53 29.6546 24.637 29.6742 24.764 29.6546C25.135 29.6937 25.506 29.7523 25.838 29.8402C27.42 30.2796 28.582 31.0413 29.471 31.6272Z" fill="#068A48"/>
<path d="M0.556889 2.0001L0.585888 2.0294C0.604888 2.0294 0.683889 2.0587 0.819889 2.1564C0.897889 2.2052 0.97689 2.3614 1.05489 2.4591C1.07389 2.4786 1.08389 2.4884 1.11289 2.5079C1.48389 2.8595 2.05989 3.3868 2.77289 4.2266C3.17389 4.7051 3.63289 5.3398 4.07189 6.0722C4.48189 6.6483 4.90189 7.3514 5.26289 8.3083C5.69289 9.4997 5.99589 11.0426 5.79089 12.8393C5.69289 13.7377 5.46789 14.6068 5.14589 15.4271C4.82389 16.2473 4.38489 16.9797 3.96489 17.673C3.09589 19.0401 2.32389 20.3193 2.05089 21.5497C1.75789 22.7704 2.00199 23.8543 2.33399 24.489C2.49999 24.8112 2.68499 25.0358 2.81199 25.1823C2.94899 25.3288 3.02689 25.3971 3.02689 25.3971C3.02689 25.3971 2.93889 25.3386 2.80289 25.2018C2.66589 25.0651 2.46089 24.8503 2.28489 24.5281C1.90389 23.9031 1.60089 22.7997 1.85489 21.5204C2.24589 18.8839 5.12689 16.3645 5.39989 12.81C5.51689 11.7652 5.43889 10.8473 5.30189 10.0075C5.31189 10.3199 5.34089 10.6227 5.30189 10.9547C5.18489 12.0581 4.79489 13.2006 4.25789 14.3236C3.71089 15.4564 3.07599 16.5012 2.51899 17.5265C1.95299 18.5519 1.47489 19.5674 1.21089 20.6025C0.663888 22.6239 1.15189 24.8015 2.45089 25.8561C3.06589 26.3736 3.85689 26.5592 4.53089 26.5397C5.21489 26.5201 5.79089 26.3151 6.20089 26.0319C6.61089 25.7585 6.85489 25.4362 6.98189 25.2018C7.09889 24.9577 7.14789 24.821 7.14789 24.821C7.14789 24.821 7.09899 24.9187 7.00199 25.1726C6.89399 25.4264 6.68889 25.778 6.27889 26.11C5.87889 26.442 5.27289 26.7252 4.54089 26.8033C3.80789 26.8912 2.90989 26.7643 2.11889 26.1979C1.34789 25.651 0.741887 24.7527 0.448887 23.7176C0.145887 22.6825 0.106889 21.5107 0.360889 20.3486C0.458889 19.8897 0.614888 19.4405 0.780888 18.9913C0.741888 18.8546 0.702887 18.7667 0.683887 18.5714C0.585887 17.8683 0.683888 16.6965 1.40589 15.2708C2.13889 13.8451 3.12489 12.6928 3.69089 11.7261C3.98389 11.2574 4.19889 10.8473 4.32589 10.5543C4.33589 10.486 4.32589 10.4176 4.33589 10.3492C4.25789 10.525 4.23789 10.7008 4.12089 10.8668C3.82789 11.2672 3.34889 11.6285 2.74389 11.7261C2.14789 11.8238 1.53289 11.6773 1.06389 11.3355C0.595889 11.0035 0.263888 10.525 0.106888 10.0172C-0.0491122 9.5094 -0.0391096 8.9626 0.13689 8.5134C0.31189 8.0545 0.653887 7.7127 1.02489 7.5271C1.39589 7.3416 1.80689 7.3221 2.11889 7.4197C2.35289 7.4979 2.48999 7.6346 2.62699 7.7713C2.42199 7.3807 2.23589 6.7948 2.17789 5.9452C2.11889 5.0566 2.04089 4.2461 1.77689 3.6504C1.64089 3.4551 1.51389 3.2794 1.40589 3.1231C1.48389 3.3868 1.56199 3.6504 1.56199 3.9434C1.56199 4.373 1.49389 4.7929 1.46489 5.1738C1.43489 5.5546 1.44489 5.8085 1.50389 6.0526C1.55289 6.287 1.63099 6.4725 1.70899 6.6092C1.78699 6.7557 1.87489 6.8534 1.94289 6.9217C2.01189 6.9901 2.05089 7.0291 2.05089 7.0291C2.05989 7.0096 1.85489 7.1854 1.39589 7.0096C1.17189 6.9217 0.917889 6.7166 0.722889 6.3846C0.517889 6.0624 0.419988 5.5741 0.458988 5.0957C0.497988 4.6074 0.62499 4.1973 0.71299 3.836C0.81099 3.4844 0.858888 3.1622 0.849888 2.879C0.849888 2.5958 0.78099 2.3614 0.71299 2.2052C0.63499 2.049 0.565887 1.9611 0.565887 1.9611H0.57589L0.556889 2.0001ZM4.32589 10.7691C4.21889 11.0719 4.09189 11.4234 3.86689 11.8628C3.37889 12.8881 2.47089 14.1283 1.76689 15.4856C1.07389 16.8528 0.888887 17.9171 0.878887 18.5909C0.878887 18.63 0.878887 18.6398 0.878887 18.669C1.54289 17.009 2.54889 15.4564 3.31989 13.8549C3.83789 12.7807 4.18889 11.7652 4.32589 10.7984V10.7691ZM2.37289 4.5293C2.38289 4.539 2.38289 4.5586 2.38289 4.5586C2.48989 5.0078 2.53889 5.4863 2.57789 5.955C2.64589 6.8924 2.74389 7.5076 2.87089 7.8982C2.99789 8.2888 3.07589 8.4548 3.07589 8.4548C3.07589 8.4548 3.03689 8.4255 3.02689 8.406C3.05589 8.5232 3.04689 8.6013 3.04689 8.6013C3.04689 8.6013 3.02689 8.5036 2.97789 8.3669C2.89989 8.2888 2.80289 8.1716 2.68489 7.9861L2.67589 7.947C2.51889 7.7908 2.34389 7.6541 2.07989 7.5955C1.78689 7.5174 1.43489 7.5662 1.11289 7.7517C0.790888 7.9373 0.517888 8.2498 0.390888 8.6501C0.263888 9.0505 0.27289 9.5192 0.42989 9.9489C0.58589 10.3883 0.878887 10.7887 1.28889 11.0621C1.68889 11.3257 2.19689 11.4527 2.67589 11.3648C3.16389 11.2867 3.54499 11.0035 3.80799 10.6715C4.07199 10.3395 4.21889 9.9586 4.30589 9.6071C4.33589 9.4802 4.32589 9.363 4.33589 9.236C4.29689 8.865 4.23789 8.5037 4.14989 8.1619C3.71989 6.5799 2.94889 5.4081 2.37289 4.5293Z" fill="#068A48"/>
<path d="M11.777 31.5393C11.699 31.5686 11.611 31.5197 11.591 31.4416C11.572 31.3635 11.611 31.2756 11.689 31.2561C11.767 31.2365 11.845 31.2756 11.874 31.3537C11.894 31.4318 11.855 31.51 11.777 31.5393Z" fill="#068A48"/>
<path d="M2.46089 22.2235C2.43189 22.3017 2.47989 22.3798 2.55789 22.4091C2.63689 22.4286 2.71489 22.3896 2.74389 22.3114C2.76389 22.2333 2.72389 22.1552 2.64589 22.1259C2.56789 22.0966 2.47989 22.1454 2.46089 22.2235Z" fill="#068A48"/>
<path d="M12.519 31.1291C12.489 31.0412 12.5289 30.9533 12.6159 30.924C12.7039 30.8947 12.7919 30.9338 12.8309 31.0216C12.8609 31.0998 12.821 31.1974 12.734 31.2267C12.646 31.256 12.548 31.2169 12.519 31.1291Z" fill="#068A48"/>
<path d="M2.86098 21.4811C2.94898 21.5104 3.03698 21.4713 3.06598 21.3835C3.09598 21.3053 3.05598 21.2077 2.96898 21.1784C2.88998 21.1491 2.79298 21.1882 2.76398 21.276C2.73398 21.3542 2.78298 21.4518 2.86098 21.4811Z" fill="#068A48"/>
<path d="M13.417 30.7676C13.378 30.6797 13.417 30.5723 13.505 30.5332C13.593 30.4942 13.7 30.5332 13.739 30.6211C13.778 30.709 13.739 30.8164 13.651 30.8555C13.564 30.8945 13.466 30.8555 13.417 30.7676Z" fill="#068A48"/>
<path d="M3.23209 20.5732C3.32009 20.6123 3.4281 20.5732 3.4671 20.4854C3.5061 20.3975 3.4671 20.2901 3.3791 20.251C3.2911 20.2119 3.1831 20.251 3.1441 20.3389C3.0961 20.4268 3.13509 20.5342 3.23209 20.5732Z" fill="#068A48"/>
<path d="M14.3059 30.3574C14.2569 30.2598 14.2959 30.1523 14.3939 30.1035C14.4909 30.0547 14.6079 30.0938 14.6479 30.1914C14.6959 30.2891 14.6569 30.3965 14.5599 30.4453C14.4619 30.4941 14.3549 30.4551 14.3059 30.3574Z" fill="#068A48"/>
<path d="M3.64201 19.6845C3.74001 19.7334 3.84701 19.6943 3.89601 19.5967C3.94501 19.499 3.90601 19.3916 3.80801 19.3428C3.71101 19.2939 3.60301 19.333 3.55401 19.4307C3.50601 19.5283 3.54501 19.6455 3.64201 19.6845Z" fill="#068A48"/>
<path d="M15.185 29.9182C15.136 29.8205 15.175 29.6936 15.273 29.6448C15.37 29.5959 15.497 29.635 15.546 29.7327C15.595 29.8401 15.556 29.9573 15.458 30.0158C15.36 30.0647 15.233 30.0256 15.185 29.9182Z" fill="#068A48"/>
<path d="M4.07197 18.8154C4.17897 18.8642 4.29707 18.8252 4.34507 18.7275C4.39407 18.6299 4.35497 18.5029 4.25797 18.4541C4.15997 18.4053 4.03307 18.4443 3.98407 18.542C3.92607 18.6396 3.97397 18.7568 4.07197 18.8154Z" fill="#068A48"/>
<path d="M16.0539 29.4788C15.9949 29.3714 16.0439 29.2347 16.1509 29.1859C16.2589 29.1273 16.3949 29.1761 16.4439 29.2835C16.5029 29.391 16.4539 29.5277 16.3469 29.5765C16.2389 29.6351 16.1119 29.5863 16.0539 29.4788Z" fill="#068A48"/>
<path d="M4.52097 17.9461C4.62897 18.0047 4.76497 17.9559 4.81397 17.8485C4.87297 17.7411 4.82407 17.6044 4.71707 17.5555C4.60907 17.4969 4.47207 17.5458 4.42407 17.6532C4.36507 17.7508 4.40397 17.8875 4.52097 17.9461Z" fill="#068A48"/>
<path d="M16.923 29.0393C16.864 28.9221 16.913 28.7757 17.03 28.7268C17.147 28.6683 17.294 28.7268 17.343 28.844C17.401 28.9612 17.352 29.0979 17.235 29.1565C17.118 29.2053 16.981 29.1565 16.923 29.0393Z" fill="#068A48"/>
<path d="M4.95103 17.0675C5.06803 17.126 5.20503 17.0772 5.26303 16.96C5.32203 16.8429 5.27303 16.6964 5.15603 16.6476C5.03903 16.589 4.90203 16.6476 4.84303 16.755C4.78503 16.8722 4.83403 17.0089 4.95103 17.0675Z" fill="#068A48"/>
<path d="M17.811 28.6291C17.753 28.5021 17.811 28.3556 17.938 28.297C18.065 28.2385 18.212 28.297 18.27 28.424C18.319 28.5509 18.261 28.6974 18.143 28.756C18.017 28.8146 17.86 28.756 17.811 28.6291Z" fill="#068A48"/>
<path d="M5.36103 16.1886C5.48803 16.2472 5.63403 16.1886 5.69303 16.0617C5.75203 15.9347 5.69303 15.7883 5.56603 15.7297C5.43903 15.6808 5.29303 15.7394 5.23403 15.8566C5.17503 15.9836 5.24403 16.13 5.36103 16.1886Z" fill="#068A48"/>
<path d="M18.71 28.2582C18.661 28.1215 18.729 27.9653 18.866 27.9164C19.013 27.8676 19.159 27.9457 19.198 28.0824C19.247 28.2191 19.179 28.3656 19.042 28.4144C18.915 28.4633 18.768 28.3949 18.71 28.2582Z" fill="#068A48"/>
<path d="M5.74198 15.2802C5.87898 15.329 6.03498 15.2606 6.08398 15.1239C6.13198 14.9775 6.05398 14.831 5.91798 14.7822C5.78098 14.7333 5.63398 14.8114 5.58598 14.9384C5.53698 15.0849 5.59498 15.2313 5.74198 15.2802Z" fill="#068A48"/>
<path d="M19.6369 27.9458C19.5889 27.7993 19.6769 27.6431 19.8329 27.604C19.9889 27.565 20.1359 27.6431 20.1749 27.7993C20.2039 27.9458 20.1259 28.1021 19.9789 28.1411C19.8329 28.1802 19.6769 28.0923 19.6369 27.9458Z" fill="#068A48"/>
<path d="M6.05403 14.3625C6.20103 14.4113 6.35702 14.3234 6.39602 14.1672C6.43502 14.0207 6.34702 13.8645 6.20102 13.8254C6.05402 13.7863 5.89802 13.8742 5.85902 14.0207C5.82002 14.1574 5.90803 14.3137 6.05403 14.3625Z" fill="#068A48"/>
<path d="M20.585 27.7112C20.555 27.555 20.6531 27.389 20.8291 27.3694C20.9951 27.3499 21.141 27.4573 21.171 27.6233C21.19 27.7796 21.083 27.9358 20.926 27.9553C20.76 27.9651 20.614 27.8772 20.585 27.7112Z" fill="#068A48"/>
<path d="M6.28899 13.4151C6.44499 13.4444 6.61099 13.337 6.62999 13.171C6.64999 13.005 6.54309 12.8487 6.37709 12.8292C6.22009 12.8097 6.06409 12.9171 6.04509 13.0733C6.02509 13.2296 6.12299 13.3761 6.28899 13.4151Z" fill="#068A48"/>
<path d="M21.551 27.5747C21.542 27.4087 21.669 27.2525 21.844 27.2525C22.02 27.2525 22.167 27.3794 22.167 27.5552C22.167 27.7212 22.03 27.8677 21.874 27.8677C21.708 27.8677 21.561 27.7407 21.551 27.5747Z" fill="#068A48"/>
<path d="M6.41601 12.4487C6.58201 12.4585 6.73801 12.3315 6.73801 12.1557C6.74801 11.98 6.61101 11.8335 6.43501 11.8335C6.26901 11.8335 6.12301 11.9604 6.12301 12.1264C6.12301 12.2925 6.25001 12.4292 6.41601 12.4487Z" fill="#068A48"/>
<path d="M31.326 32.0176C31.385 31.959 31.473 31.959 31.531 32.0176C31.59 32.0664 31.6 32.1641 31.541 32.2227C31.482 32.2812 31.395 32.2812 31.336 32.2227C31.268 32.1641 31.268 32.0762 31.326 32.0176Z" fill="#068A48"/>
<path d="M1.982 2.674C2.041 2.6154 2.041 2.5275 1.982 2.4689C1.924 2.4103 1.836 2.4103 1.777 2.4689C1.719 2.5275 1.719 2.6251 1.777 2.6837C1.826 2.7228 1.914 2.7228 1.982 2.674Z" fill="#068A48"/>
<path d="M30.584 31.3342C30.643 31.2658 30.75 31.2561 30.818 31.3244C30.887 31.383 30.887 31.4807 30.828 31.549C30.77 31.6174 30.662 31.6174 30.604 31.5588C30.535 31.5002 30.525 31.4025 30.584 31.3342Z" fill="#068A48"/>
<path d="M2.66591 3.40592C2.73391 3.34732 2.73391 3.23992 2.67591 3.18132C2.61691 3.11302 2.50991 3.11302 2.45091 3.17162C2.38291 3.23022 2.38301 3.33762 2.44101 3.39622C2.49001 3.46452 2.59691 3.46452 2.66591 3.40592Z" fill="#068A48"/>
<path d="M29.8219 30.6799C29.8809 30.6018 29.9979 30.592 30.0759 30.6604C30.1539 30.7287 30.1539 30.8361 30.0959 30.9045C30.0269 30.9826 29.9199 30.9924 29.8419 30.924C29.7739 30.8654 29.7639 30.758 29.8219 30.6799Z" fill="#068A48"/>
<path d="M3.3199 4.16769C3.3979 4.10909 3.4079 3.99189 3.3399 3.91379C3.2709 3.83569 3.1639 3.82589 3.0859 3.89419C3.0079 3.96259 2.9979 4.06999 3.0659 4.14809C3.1349 4.22629 3.2419 4.23599 3.3199 4.16769Z" fill="#068A48"/>
<path d="M29.031 30.0649C29.09 29.977 29.217 29.9575 29.295 30.0258C29.383 30.0844 29.402 30.2113 29.334 30.2895C29.276 30.3774 29.149 30.3969 29.07 30.3285C28.983 30.2699 28.963 30.1528 29.031 30.0649Z" fill="#068A48"/>
<path d="M3.93488 4.96848C4.02288 4.90988 4.04288 4.78288 3.97388 4.69498C3.90588 4.60718 3.78888 4.59738 3.71088 4.65598C3.62288 4.72428 3.61288 4.84148 3.67188 4.91958C3.72988 5.00748 3.84688 5.02708 3.93488 4.96848Z" fill="#068A48"/>
<path d="M28.201 29.4886C28.26 29.4007 28.387 29.3714 28.485 29.43C28.582 29.4983 28.602 29.6253 28.543 29.7132C28.475 29.8011 28.348 29.8304 28.26 29.7718C28.172 29.7132 28.143 29.5862 28.201 29.4886Z" fill="#068A48"/>
<path d="M4.50199 5.78889C4.59899 5.73029 4.61899 5.60339 4.55999 5.50569C4.50199 5.40809 4.36499 5.38859 4.27699 5.44709C4.18899 5.50569 4.15999 5.63269 4.21799 5.73029C4.27699 5.82799 4.40399 5.85729 4.50199 5.78889Z" fill="#068A48"/>
<path d="M27.3421 28.9708C27.4011 28.8634 27.5371 28.8244 27.6451 28.8927C27.7521 28.9513 27.7911 29.088 27.7231 29.1954C27.6551 29.3028 27.5281 29.3321 27.4201 29.2736C27.3231 29.215 27.2831 29.0782 27.3421 28.9708Z" fill="#068A48"/>
<path d="M5.01901 6.65802C5.12701 6.59942 5.16601 6.46272 5.09701 6.35532C5.03901 6.24792 4.90201 6.20882 4.79501 6.27722C4.68701 6.34552 4.65801 6.47252 4.71701 6.57992C4.77501 6.67752 4.91201 6.71662 5.01901 6.65802Z" fill="#068A48"/>
<path d="M26.444 28.5216C26.502 28.4044 26.639 28.3556 26.756 28.4044C26.873 28.4727 26.922 28.6095 26.864 28.7266C26.805 28.8438 26.668 28.8926 26.551 28.8341C26.444 28.7755 26.385 28.6388 26.444 28.5216Z" fill="#068A48"/>
<path d="M5.46812 7.55624C5.58612 7.50744 5.63412 7.36094 5.58612 7.24374C5.52712 7.12664 5.39013 7.07773 5.27313 7.13633C5.15613 7.19493 5.10712 7.33163 5.16612 7.44883C5.21512 7.55623 5.35112 7.60504 5.46812 7.55624Z" fill="#068A48"/>
<path d="M25.5061 28.1506C25.5551 28.0139 25.7021 27.9456 25.8381 28.0042C25.9751 28.053 26.034 28.1995 25.985 28.3264C25.936 28.4534 25.789 28.512 25.663 28.4729C25.536 28.4143 25.4671 28.2776 25.5061 28.1506Z" fill="#068A48"/>
<path d="M5.849 8.48418C5.976 8.43528 6.045 8.28888 5.996 8.16188C5.947 8.03498 5.8 7.96658 5.673 8.01538C5.547 8.06428 5.488 8.21068 5.527 8.33768C5.586 8.46458 5.722 8.53298 5.849 8.48418Z" fill="#068A48"/>
<path d="M24.549 27.8479C24.588 27.7112 24.735 27.6233 24.881 27.6721C25.018 27.7112 25.106 27.8576 25.057 27.9944C25.018 28.1311 24.872 28.2092 24.735 28.1701C24.598 28.1311 24.52 27.9944 24.549 27.8479Z" fill="#068A48"/>
<path d="M6.14203 9.4407C6.28903 9.4016 6.36703 9.2551 6.32803 9.1184C6.28903 8.972 6.14203 8.8938 5.99603 8.9329C5.85903 8.972 5.78103 9.1184 5.81003 9.2551C5.85903 9.4016 6.00603 9.4797 6.14203 9.4407Z" fill="#068A48"/>
<path d="M23.563 27.6526C23.592 27.4964 23.729 27.3987 23.895 27.4182C24.051 27.4475 24.149 27.6038 24.11 27.7502C24.081 27.9065 23.934 27.9944 23.788 27.9748C23.641 27.9455 23.543 27.7991 23.563 27.6526Z" fill="#068A48"/>
<path d="M6.34692 10.4272C6.50292 10.4077 6.60102 10.2612 6.57202 10.105C6.54302 9.94871 6.39602 9.85111 6.24002 9.88041C6.08402 9.90971 5.99602 10.0561 6.01502 10.2026C6.05402 10.3491 6.19092 10.4467 6.34692 10.4272Z" fill="#068A48"/>
<path d="M22.567 27.5552C22.567 27.3891 22.713 27.272 22.879 27.2817C23.045 27.2915 23.172 27.438 23.153 27.604C23.133 27.7602 22.997 27.8872 22.84 27.8676C22.684 27.8579 22.557 27.7114 22.567 27.5552Z" fill="#068A48"/>
<path d="M6.44507 11.4331C6.61107 11.4233 6.72797 11.2866 6.71797 11.1206C6.69897 10.9546 6.56197 10.8277 6.39597 10.8472C6.23997 10.8667 6.12297 11.0034 6.13197 11.1597C6.14197 11.3159 6.27907 11.4331 6.44507 11.4331Z" fill="#068A48"/>
<path d="M11.181 29.5078C11.201 29.4688 11.249 29.459 11.288 29.4785C11.327 29.4981 11.347 29.5566 11.318 29.5957C11.288 29.6348 11.24 29.6445 11.201 29.625C11.171 29.5957 11.161 29.5371 11.181 29.5078Z" fill="#068A48"/>
<path d="M4.49198 22.8092C4.52098 22.7896 4.54098 22.7408 4.52098 22.7018C4.49198 22.6627 4.44298 22.6529 4.40398 22.6725C4.36498 22.7018 4.35498 22.7506 4.37498 22.7896C4.40398 22.8189 4.45298 22.8287 4.49198 22.8092Z" fill="#068A48"/>
<path d="M11.376 29.0196C11.386 28.9708 11.435 28.9415 11.484 28.9513C11.532 28.961 11.562 29.0098 11.552 29.0587C11.542 29.1075 11.493 29.1368 11.445 29.127C11.386 29.1173 11.366 29.0684 11.376 29.0196Z" fill="#068A48"/>
<path d="M4.96998 22.6236C5.01898 22.6138 5.04898 22.565 5.03898 22.5162C5.02898 22.4674 4.97998 22.4381 4.93098 22.4478C4.88298 22.4576 4.85298 22.5162 4.86298 22.565C4.88298 22.6041 4.93098 22.6334 4.96998 22.6236Z" fill="#068A48"/>
<path d="M11.513 28.395C11.562 28.395 11.611 28.4341 11.62 28.4927C11.62 28.5513 11.581 28.6001 11.523 28.6001C11.474 28.6001 11.425 28.561 11.425 28.5024C11.415 28.4536 11.454 28.4048 11.513 28.395Z" fill="#068A48"/>
<path d="M5.59497 22.4868C5.59497 22.4282 5.55597 22.3891 5.49797 22.3794C5.43897 22.3794 5.38997 22.4184 5.38997 22.477C5.38997 22.5356 5.43897 22.5747 5.48797 22.5747C5.54697 22.5844 5.58597 22.5454 5.59497 22.4868Z" fill="#068A48"/>
<path d="M11.386 27.858C11.445 27.8385 11.5031 27.8678 11.5231 27.9264C11.5421 27.9849 11.503 28.0435 11.454 28.0631C11.396 28.0728 11.337 28.0435 11.327 27.9947C11.298 27.9361 11.327 27.8775 11.386 27.858Z" fill="#068A48"/>
<path d="M6.142 22.6042C6.162 22.5456 6.132 22.4871 6.074 22.4675C6.015 22.448 5.957 22.4871 5.937 22.5359C5.927 22.5945 5.95701 22.6531 6.00601 22.6628C6.06401 22.6921 6.123 22.6628 6.142 22.6042Z" fill="#068A48"/>
<path d="M11.142 27.3498C11.2 27.3205 11.269 27.3401 11.298 27.3889C11.327 27.4475 11.308 27.5158 11.249 27.5451C11.191 27.5744 11.122 27.5549 11.093 27.4963C11.074 27.4573 11.093 27.3889 11.142 27.3498Z" fill="#068A48"/>
<path d="M6.63999 22.8483C6.66999 22.7897 6.64999 22.7213 6.60099 22.692C6.54299 22.6627 6.47399 22.6823 6.44499 22.7409C6.41599 22.7995 6.43499 22.8678 6.49399 22.8971C6.54299 22.9166 6.61099 22.9069 6.63999 22.8483Z" fill="#068A48"/>
<path d="M10.82 26.9105C10.868 26.8616 10.947 26.8714 10.995 26.93C11.044 26.9788 11.034 27.057 10.976 27.1058C10.917 27.1448 10.849 27.1351 10.8 27.0862C10.761 27.0277 10.761 26.9495 10.82 26.9105Z" fill="#068A48"/>
<path d="M7.08899 23.1805C7.12799 23.1317 7.12798 23.0535 7.06998 23.0047C7.02098 22.9559 6.94298 22.9657 6.89398 23.0242C6.85498 23.0828 6.86498 23.1512 6.91398 23.2C6.97198 23.2391 7.04999 23.2293 7.08899 23.1805Z" fill="#068A48"/>
<path d="M10.4191 26.5202C10.4681 26.4616 10.5461 26.4518 10.6051 26.5104C10.6631 26.5592 10.6631 26.6471 10.6151 26.6959C10.5661 26.7448 10.488 26.7545 10.429 26.7057C10.38 26.6569 10.3701 26.5788 10.4191 26.5202Z" fill="#068A48"/>
<path d="M7.48001 23.5807C7.53901 23.5319 7.54801 23.4537 7.49001 23.3952C7.44101 23.3366 7.35301 23.3366 7.30401 23.3854C7.25501 23.4342 7.24601 23.5221 7.29401 23.5709C7.34301 23.6198 7.42101 23.6295 7.48001 23.5807Z" fill="#068A48"/>
<path d="M10.146 26.1589C10.214 26.198 10.234 26.2858 10.185 26.3542C10.146 26.4128 10.058 26.4323 9.99897 26.3933C9.94097 26.3542 9.91097 26.2761 9.95097 26.2077C9.98997 26.1394 10.077 26.1198 10.146 26.1589Z" fill="#068A48"/>
<path d="M7.83202 23.8543C7.79202 23.7859 7.70502 23.7664 7.63602 23.8152C7.57802 23.8543 7.55802 23.9422 7.59702 24.0008C7.63602 24.0594 7.71402 24.0887 7.78302 24.0496C7.85102 24.0008 7.88002 23.9129 7.83202 23.8543Z" fill="#068A48"/>
<path d="M9.45298 25.973C9.48198 25.8949 9.56998 25.8558 9.64798 25.8949C9.72598 25.9242 9.75498 26.0218 9.72598 26.0902C9.68698 26.1683 9.60898 26.1976 9.53998 26.1586C9.45298 26.1293 9.42298 26.0414 9.45298 25.973Z" fill="#068A48"/>
<path d="M8.02712 24.5474C8.10512 24.5181 8.14412 24.4302 8.10512 24.3521C8.07612 24.274 7.97812 24.2447 7.91012 24.274C7.84112 24.313 7.81212 24.3912 7.84112 24.4595C7.87112 24.5376 7.94912 24.5767 8.02712 24.5474Z" fill="#068A48"/>
<path d="M9.10102 25.6998C9.18902 25.7193 9.23802 25.8072 9.20802 25.8951C9.17902 25.9732 9.10102 26.0221 9.02302 26.0025C8.94502 25.983 8.89602 25.8951 8.90602 25.817C8.93502 25.7291 9.01302 25.6705 9.10102 25.6998Z" fill="#068A48"/>
<path d="M8.30003 24.8894C8.28103 24.8015 8.19303 24.7527 8.11503 24.782C8.03703 24.8113 7.98803 24.8894 8.00703 24.9675C8.02703 25.0456 8.11503 25.0945 8.19303 25.0847C8.27103 25.0652 8.32003 24.9773 8.30003 24.8894Z" fill="#068A48"/>
<path d="M8.54398 25.5923C8.64198 25.6021 8.70098 25.6802 8.69098 25.7681C8.68098 25.856 8.60298 25.9244 8.51498 25.9146C8.42698 25.9048 8.36898 25.8267 8.36898 25.7388C8.36898 25.6509 8.44698 25.5728 8.54398 25.5923Z" fill="#068A48"/>
<path d="M8.40801 25.4556C8.39801 25.3579 8.32001 25.2993 8.23201 25.3091C8.14401 25.3189 8.07601 25.397 8.08501 25.4849C8.09501 25.5728 8.17301 25.6313 8.26101 25.6313C8.34901 25.6313 8.41701 25.5532 8.40801 25.4556Z" fill="#068A48"/>
<path d="M24.1589 31.2949C24.1489 31.2558 24.1779 31.207 24.2269 31.1972C24.2759 31.1875 24.315 31.2265 24.325 31.2656C24.325 31.3144 24.295 31.3535 24.256 31.3632C24.208 31.373 24.1679 31.3339 24.1589 31.2949Z" fill="#068A48"/>
<path d="M2.695 9.84138C2.744 9.85118 2.783 9.82188 2.793 9.77298C2.803 9.72418 2.763 9.68518 2.724 9.67538C2.676 9.67538 2.637 9.70468 2.627 9.74368C2.627 9.78278 2.656 9.83158 2.695 9.84138Z" fill="#068A48"/>
<path d="M24.706 31.2755C24.706 31.2267 24.764 31.1876 24.813 31.1974C24.862 31.2071 24.891 31.256 24.881 31.3048C24.862 31.3536 24.823 31.3829 24.774 31.3731C24.725 31.3634 24.696 31.3243 24.706 31.2755Z" fill="#068A48"/>
<path d="M2.72399 9.2944C2.77299 9.2846 2.81199 9.2358 2.80299 9.187C2.79299 9.1381 2.74399 9.0991 2.69499 9.1186C2.64599 9.1284 2.61699 9.1772 2.62699 9.226C2.62699 9.2651 2.67599 9.3041 2.72399 9.2944Z" fill="#068A48"/>
<path d="M25.213 31.4513C25.243 31.4025 25.311 31.3927 25.35 31.4318C25.399 31.4708 25.409 31.5392 25.37 31.5782C25.331 31.6173 25.272 31.6173 25.233 31.588C25.194 31.5587 25.184 31.5001 25.213 31.4513Z" fill="#068A48"/>
<path d="M2.53891 8.77701C2.58791 8.74781 2.59691 8.67941 2.55791 8.63061C2.51891 8.58171 2.45091 8.58171 2.41191 8.62081C2.37291 8.65991 2.37291 8.71851 2.40191 8.75751C2.44091 8.79661 2.48991 8.81611 2.53891 8.77701Z" fill="#068A48"/>
<path d="M25.497 31.9981C25.487 31.9493 25.5059 31.8907 25.5649 31.8614C25.6229 31.8321 25.6819 31.8614 25.7109 31.9298C25.7209 31.9981 25.6919 32.0567 25.6329 32.0665C25.5749 32.0762 25.516 32.047 25.497 31.9981Z" fill="#068A48"/>
<path d="M1.99199 8.4939C2.04099 8.5134 2.09899 8.4841 2.12899 8.4353C2.15799 8.3767 2.12899 8.3181 2.05999 8.2888C1.99199 8.2693 1.93299 8.3083 1.92399 8.3669C1.91399 8.4255 1.95299 8.4841 1.99199 8.4939Z" fill="#068A48"/>
<path d="M25.702 32.5548C25.672 32.6231 25.594 32.6524 25.545 32.6134C25.487 32.5743 25.477 32.5157 25.487 32.4669C25.506 32.4181 25.565 32.3888 25.623 32.3985C25.692 32.4083 25.731 32.4767 25.702 32.5548Z" fill="#068A48"/>
<path d="M1.4451 8.29863C1.3771 8.32793 1.348 8.40603 1.387 8.45483C1.426 8.50363 1.484 8.53293 1.533 8.51343C1.582 8.49393 1.6111 8.43533 1.6011 8.37673C1.5821 8.30833 1.5141 8.26933 1.4451 8.29863Z" fill="#068A48"/>
<path d="M25.3211 32.838C25.3601 32.8966 25.3401 32.9747 25.2721 33.0138C25.2041 33.0528 25.1251 33.0138 25.1061 32.9454C25.0861 32.8771 25.1061 32.8087 25.1641 32.7892C25.2131 32.7599 25.2821 32.7794 25.3211 32.838Z" fill="#068A48"/>
<path d="M1.16201 8.66972C1.10301 8.63062 1.02501 8.65012 0.986008 8.71852C0.947008 8.78692 0.986008 8.86502 1.05501 8.88452C1.12301 8.90402 1.19101 8.87472 1.21101 8.82592C1.23001 8.77712 1.21101 8.70872 1.16201 8.66972Z" fill="#068A48"/>
<path d="M24.813 33.0039C24.813 33.082 24.754 33.1406 24.676 33.1406C24.598 33.1406 24.54 33.0723 24.549 33.0039C24.559 32.9356 24.618 32.877 24.676 32.877C24.745 32.877 24.803 32.9356 24.813 33.0039Z" fill="#068A48"/>
<path d="M0.986008 9.18689C0.908008 9.17719 0.850006 9.23579 0.850006 9.32359C0.850006 9.40179 0.918008 9.46039 0.986008 9.45059C1.06401 9.44079 1.11301 9.38219 1.11301 9.31389C1.11301 9.25529 1.06401 9.19669 0.986008 9.18689Z" fill="#068A48"/>
<path d="M24.266 32.9551C24.247 33.0332 24.168 33.0723 24.081 33.043C24.002 33.0137 23.973 32.9258 24.002 32.8575C24.041 32.7891 24.12 32.7501 24.178 32.7794C24.247 32.7989 24.286 32.877 24.266 32.9551Z" fill="#068A48"/>
<path d="M1.04499 9.72389C0.966986 9.74349 0.927989 9.82159 0.956989 9.90949C0.985989 9.98759 1.07399 10.0267 1.14299 9.98759C1.21099 9.95829 1.24999 9.87039 1.22099 9.81179C1.19099 9.74349 1.11299 9.70439 1.04499 9.72389Z" fill="#068A48"/>
<path d="M23.543 32.5351C23.602 32.4765 23.69 32.4765 23.749 32.5254C23.807 32.5644 23.817 32.6523 23.768 32.7207C23.719 32.789 23.622 32.8086 23.553 32.75C23.495 32.6914 23.485 32.5937 23.543 32.5351Z" fill="#068A48"/>
<path d="M1.45509 10.4465C1.51409 10.3879 1.51409 10.3 1.47509 10.2414C1.42609 10.1828 1.33809 10.1731 1.26909 10.2121C1.20109 10.2609 1.19109 10.3586 1.24009 10.4269C1.30909 10.5051 1.40609 10.5148 1.45509 10.4465Z" fill="#068A48"/>
<path d="M23.4361 32.135C23.4751 32.2033 23.4561 32.2912 23.3871 32.3401C23.3091 32.3889 23.2111 32.3694 23.1631 32.2815C23.1141 32.1936 23.1531 32.0959 23.2411 32.0666C23.3191 32.0373 23.4071 32.0764 23.4361 32.135Z" fill="#068A48"/>
<path d="M1.85501 10.5539C1.78701 10.5246 1.69901 10.5442 1.65001 10.6125C1.60101 10.6809 1.62101 10.7883 1.70901 10.8274C1.79701 10.8762 1.89401 10.8371 1.92401 10.7492C1.95301 10.6614 1.92401 10.593 1.85501 10.5539Z" fill="#068A48"/>
<path d="M23.329 31.6757C23.329 31.7538 23.27 31.8222 23.182 31.8417C23.094 31.8613 23.006 31.7831 23.006 31.6757C23.006 31.5683 23.094 31.5 23.182 31.5097C23.27 31.5292 23.329 31.5976 23.329 31.6757Z" fill="#068A48"/>
<path d="M2.31398 10.6616C2.23598 10.6616 2.16799 10.7202 2.14799 10.8081C2.12899 10.896 2.20698 10.9839 2.31398 10.9839C2.42198 10.9839 2.48999 10.896 2.47999 10.8081C2.47099 10.73 2.39198 10.6616 2.31398 10.6616Z" fill="#068A48"/>
<path d="M23.124 31.0704C23.172 30.9727 23.28 30.9337 23.358 30.9825C23.446 31.0313 23.4751 31.1387 23.4461 31.2071C23.4071 31.2852 23.319 31.3243 23.221 31.295C23.133 31.2754 23.085 31.168 23.124 31.0704Z" fill="#068A48"/>
<path d="M2.93001 10.8666C3.02701 10.8275 3.05601 10.7103 3.00801 10.6322C2.95901 10.5541 2.86101 10.5248 2.78301 10.5541C2.70501 10.5932 2.66611 10.6811 2.69511 10.7689C2.72411 10.8666 2.83201 10.9154 2.93001 10.8666Z" fill="#068A48"/>
<path d="M28.719 31.2949C28.748 31.2559 28.797 31.2461 28.836 31.2656C28.875 31.2852 28.885 31.3437 28.865 31.3828C28.846 31.4219 28.797 31.4316 28.748 31.4121C28.709 31.3828 28.699 31.334 28.719 31.2949Z" fill="#068A48"/>
<path d="M2.695 5.27111C2.734 5.25151 2.744 5.20271 2.724 5.15391C2.705 5.11481 2.646 5.09531 2.607 5.12461C2.568 5.14411 2.558 5.20271 2.578 5.24181C2.607 5.28081 2.656 5.30031 2.695 5.27111Z" fill="#068A48"/>
<path d="M28.221 31.0316C28.25 30.9925 28.299 30.973 28.348 30.9925C28.397 31.0121 28.406 31.0707 28.387 31.1097C28.367 31.1585 28.309 31.1683 28.27 31.1488C28.221 31.1292 28.201 31.0804 28.221 31.0316Z" fill="#068A48"/>
<path d="M2.95911 5.76941C3.00811 5.74981 3.02701 5.69131 2.99801 5.64241C2.97801 5.59361 2.92011 5.57411 2.88111 5.60341C2.83211 5.62291 2.82211 5.68151 2.84211 5.73031C2.86111 5.77911 2.92011 5.78891 2.95911 5.76941Z" fill="#068A48"/>
<path d="M27.7131 30.7972C27.7331 30.7484 27.791 30.7191 27.84 30.7484C27.899 30.7679 27.918 30.8265 27.899 30.8753C27.879 30.9242 27.8211 30.9437 27.7721 30.9242C27.7131 30.9046 27.6941 30.846 27.7131 30.7972Z" fill="#068A48"/>
<path d="M3.20299 6.27688C3.25199 6.25738 3.28099 6.19878 3.25199 6.14988C3.23199 6.10108 3.17399 6.08158 3.12499 6.10108C3.07599 6.12058 3.05599 6.17918 3.07599 6.22808C3.08599 6.27688 3.14399 6.30618 3.20299 6.27688Z" fill="#068A48"/>
<path d="M27.1859 30.5918C27.2049 30.5332 27.2739 30.5039 27.3229 30.5235C27.3809 30.543 27.4099 30.6113 27.3909 30.6602C27.3709 30.7188 27.3029 30.7383 27.2539 30.7188C27.1959 30.709 27.1659 30.6406 27.1859 30.5918Z" fill="#068A48"/>
<path d="M3.40801 6.80421C3.46701 6.78471 3.49601 6.72611 3.47601 6.66751C3.45701 6.60891 3.38801 6.57961 3.34001 6.60891C3.28101 6.62841 3.26201 6.68701 3.28101 6.74561C3.29101 6.80421 3.34901 6.82371 3.40801 6.80421Z" fill="#068A48"/>
<path d="M26.659 30.4163C26.678 30.3577 26.737 30.3187 26.805 30.3382C26.864 30.3577 26.893 30.4163 26.873 30.4847C26.854 30.5433 26.785 30.5823 26.727 30.5628C26.668 30.5433 26.629 30.4749 26.659 30.4163Z" fill="#068A48"/>
<path d="M3.58401 7.34161C3.64201 7.32211 3.68101 7.26351 3.66201 7.19511C3.64201 7.13651 3.57401 7.09751 3.51501 7.11701C3.45701 7.13651 3.42801 7.20491 3.43701 7.26351C3.45701 7.32211 3.52501 7.36111 3.58401 7.34161Z" fill="#068A48"/>
<path d="M26.1121 30.2695C26.1211 30.2011 26.1901 30.1621 26.2581 30.1719C26.3271 30.1914 26.3661 30.2597 26.3461 30.3281C26.3361 30.3867 26.2681 30.4257 26.2001 30.416C26.1311 30.3964 26.0921 30.3281 26.1121 30.2695Z" fill="#068A48"/>
<path d="M3.73001 7.88817C3.79901 7.86857 3.83801 7.80997 3.81801 7.74167C3.79901 7.67327 3.73001 7.63427 3.67201 7.65377C3.60301 7.67327 3.56401 7.74167 3.58401 7.80027C3.59401 7.85887 3.66201 7.89787 3.73001 7.88817Z" fill="#068A48"/>
<path d="M25.555 30.1623C25.565 30.094 25.633 30.0452 25.702 30.0549C25.78 30.0647 25.828 30.133 25.819 30.2014C25.809 30.2698 25.741 30.3186 25.672 30.3088C25.594 30.2991 25.545 30.2405 25.555 30.1623Z" fill="#068A48"/>
<path d="M3.8279 8.44482C3.8959 8.43512 3.9549 8.36672 3.9449 8.29832C3.9349 8.22022 3.8669 8.17143 3.7889 8.19093C3.7209 8.20073 3.6719 8.26913 3.6809 8.33743C3.6909 8.39603 3.7599 8.44482 3.8279 8.44482Z" fill="#068A48"/>
<path d="M24.989 30.1329C24.989 30.0547 25.047 29.9864 25.125 29.9864C25.204 29.9864 25.272 30.0547 25.262 30.1329C25.262 30.211 25.194 30.2696 25.125 30.2696C25.057 30.2793 24.998 30.211 24.989 30.1329Z" fill="#068A48"/>
<path d="M3.85703 9.00146C3.93503 9.00146 4.00403 8.94287 4.00403 8.86477C4.00403 8.78657 3.93503 8.71827 3.85703 8.72797C3.77903 8.72797 3.72003 8.79637 3.72003 8.86477C3.72003 8.93307 3.77903 9.00146 3.85703 9.00146Z" fill="#068A48"/>
<path d="M24.432 30.2208C24.413 30.1427 24.461 30.0548 24.549 30.045C24.637 30.0255 24.715 30.0841 24.725 30.1622C24.735 30.2403 24.686 30.3185 24.608 30.3282C24.54 30.3477 24.461 30.2989 24.432 30.2208Z" fill="#068A48"/>
<path d="M3.77899 9.5582C3.85699 9.5778 3.94499 9.5289 3.95499 9.441C3.97399 9.3532 3.91599 9.275 3.83799 9.2653C3.75999 9.2555 3.68099 9.3043 3.67199 9.3825C3.65199 9.4606 3.70099 9.5387 3.77899 9.5582Z" fill="#068A48"/>
<path d="M23.915 30.4358C23.866 30.3577 23.895 30.26 23.983 30.221C24.071 30.1819 24.168 30.221 24.198 30.2991C24.227 30.3772 24.198 30.4651 24.12 30.5042C24.051 30.5335 23.963 30.5139 23.915 30.4358Z" fill="#068A48"/>
<path d="M3.554 10.0756C3.633 10.1244 3.73 10.0951 3.769 10.0072C3.808 9.91942 3.769 9.82172 3.691 9.79242C3.613 9.76312 3.525 9.79242 3.486 9.87052C3.457 9.93892 3.486 10.0365 3.554 10.0756Z" fill="#068A48"/>
<path d="M23.4951 30.7969C23.4261 30.7383 23.417 30.6309 23.485 30.5625C23.563 30.4942 23.6701 30.5039 23.7291 30.5723C23.7781 30.6406 23.7781 30.7383 23.7191 30.7969C23.6611 30.8555 23.5631 30.8555 23.4951 30.7969Z" fill="#068A48"/>
<path d="M3.193 10.5051C3.252 10.5735 3.359 10.5832 3.428 10.5149C3.496 10.4368 3.486 10.3293 3.418 10.2805C3.349 10.2219 3.252 10.2317 3.193 10.2903C3.144 10.3293 3.135 10.4368 3.193 10.5051Z" fill="#068A48"/>
</g>
</svg>
