<svg width="30" height="30" viewBox="0 0 30 30" fill="none" xmlns="http://www.w3.org/2000/svg">
<path d="M30 15.001C30 16.8849 27.4881 18.2543 26.8093 19.8918C26.105 21.5898 26.8856 24.3287 25.6061 25.6081C24.3267 26.8875 21.5879 26.1069 19.8898 26.8093C18.2524 27.4881 16.8829 30 14.999 30C13.1151 30 11.7457 27.4881 10.1082 26.8093C8.41017 26.105 5.67134 26.8856 4.39191 25.6061C3.11249 24.3267 3.89305 21.5879 3.19074 19.8898C2.5119 18.2524 0 16.8829 0 14.999C0 13.1151 2.5119 11.7457 3.19074 10.1082C3.89501 8.41017 3.11444 5.67134 4.39387 4.39191C5.6733 3.11249 8.41213 3.89305 10.1102 3.19074C11.7476 2.5119 13.1171 0 15.001 0C16.8849 0 18.2543 2.5119 19.8918 3.19074C21.5898 3.89501 24.3287 3.11444 25.6081 4.39387C26.8875 5.6733 26.1069 8.41213 26.8093 10.1102C27.4881 11.7476 30 13.1171 30 15.001Z" fill="#068A48"/>
</svg>
