<svg width="52" height="52" viewBox="0 0 52 52" fill="none" xmlns="http://www.w3.org/2000/svg">
<path d="M45.2226 40.3301L45.5782 35.8882C45.6681 34.7698 46.1085 33.7083 46.8365 32.8546L49.7255 29.4599C50.5482 28.4948 51 27.2682 51 26C51 24.7318 50.5482 23.5052 49.7255 22.54L46.8338 19.1482C46.1043 18.294 45.663 17.2315 45.5726 16.1118L45.2198 11.6671C45.1182 10.4031 44.5698 9.21657 43.6729 8.32015C42.776 7.42372 41.5892 6.876 40.3252 6.77512L35.8834 6.41954C34.7653 6.33073 33.7037 5.89131 32.85 5.1639L29.4582 2.27482C28.4926 1.45196 27.2655 1 25.9969 1C24.7284 1 23.5013 1.45196 22.5357 2.27482L19.1439 5.1639C18.2883 5.89172 17.2272 6.33064 16.1077 6.42232L11.6631 6.77789M45.2198 40.3329C45.1196 41.5967 44.5724 42.7835 43.6765 43.6805C42.7806 44.5775 41.5944 45.126 40.3308 45.2277M40.328 45.2249L35.8834 45.5777C34.7651 45.6677 33.7036 46.108 32.85 46.8361L29.4582 49.7252C28.4926 50.548 27.2655 51 25.9969 51C24.7284 51 23.5013 50.548 22.5357 49.7252L19.1467 46.8361C18.2912 46.1079 17.2277 45.6685 16.1077 45.5805L11.6631 45.2249M11.6687 45.2249C10.4054 45.124 9.21928 44.5766 8.3229 43.6807C7.42651 42.7848 6.87843 41.5989 6.77684 40.3357L6.42127 35.8909C6.33131 34.7726 5.89097 33.7111 5.16289 32.8574L2.27391 29.4655C1.4516 28.4997 1 27.2726 1 26.0042C1 24.7357 1.4516 23.5086 2.27391 22.5428L5.16289 19.1509C5.89348 18.2953 6.3296 17.2341 6.41849 16.1146L6.77406 11.6699M6.77684 11.6754C6.87663 10.4102 7.42428 9.22208 8.32141 8.32441C9.21854 7.42675 10.4063 6.8784 11.6715 6.77789" stroke="#068A48" stroke-width="2" stroke-linecap="round" stroke-linejoin="round"/>
</svg>
