<svg width="165" height="168" viewBox="0 0 165 168" fill="none" xmlns="http://www.w3.org/2000/svg">
<rect width="165" height="168" rx="25" fill="#EFEFEF"/>
<path d="M73.8118 106.613C74.3172 107.933 74.9889 109.243 75.8817 110.389L75.8815 110.389C77.547 112.525 79.9796 114.092 83.5374 114.092H93.6088C101.865 114.092 106.53 105.641 106.53 98.3703V90.6978C106.53 89.7638 106.15 88.9189 105.539 88.3068C104.927 87.6946 104.081 87.3167 103.148 87.3167C101.28 87.3167 99.7674 88.8298 99.7674 90.6978V87.0934C99.7674 86.1594 99.388 85.3145 98.7773 84.7024C98.1651 84.0902 97.3188 83.7123 96.3863 83.7123C95.4523 83.7123 94.6074 84.0902 93.9952 84.7024C93.3831 85.3145 93.0052 86.1594 93.0052 87.0934V86.7507C93.0052 85.8167 92.6258 84.9718 92.0151 84.3597C91.4029 83.7475 90.5566 83.3696 89.624 83.3696C87.756 83.3696 86.2429 84.8841 86.2429 86.7507V74.3565C86.2415 72.4914 84.7284 70.9783 82.8618 70.9783C81.9293 70.9783 81.0829 71.3562 80.4708 71.9698C79.8587 72.5819 79.4807 73.4268 79.4807 74.3594V92.4977C79.4807 92.4977 79.3227 91.3466 78.0338 89.0232C76.9991 87.1581 74.6498 86.4856 72.7846 87.5201C70.921 88.5548 70.2484 90.9042 71.2816 92.7678C72.2731 94.5553 72.2759 98.5544 72.2759 98.6003C72.2759 98.6003 72.296 102.685 73.8292 106.661L73.8118 106.613Z" fill="#FFCBBE"/>
<path d="M96.6557 112.479C97.9639 112.479 99.1817 112.266 100.305 111.88C98.4514 113.255 96.2081 114.092 93.6085 114.092C93.6085 114.092 87.7203 114.092 83.5375 114.092C81.7584 114.092 80.261 113.701 78.9996 113.042C77.7383 112.383 76.7139 111.458 75.8811 110.389C74.9883 109.243 74.317 107.934 73.8115 106.614C72.2962 102.654 72.2763 98.6011 72.2763 98.6011C72.2763 98.5544 72.2729 94.5553 71.2821 92.7684C70.2489 90.9048 70.9213 88.5556 72.785 87.5203C73.3494 87.2063 73.9595 87.0504 74.563 87.0371C73.7247 88.2116 73.5822 89.8104 74.3281 91.1552C75.3201 92.9421 75.3223 96.9411 75.3223 96.9868C75.3223 96.9868 75.3424 101.04 76.8586 105C77.3641 106.321 78.0354 107.63 78.9283 108.776C79.761 109.844 80.7853 110.77 82.0467 111.429C83.308 112.087 84.8044 112.479 86.5834 112.479H96.6557Z" fill="#EAAC9D"/>
<path d="M94.129 92.7699C94.7495 92.7699 95.2525 92.2668 95.2525 91.6463V87.0931C95.2525 86.1605 95.6306 85.3152 96.2431 84.7027C96.5969 84.3489 97.0289 84.0739 97.5101 83.9042C97.1585 83.7802 96.7805 83.7122 96.3865 83.7122C95.4538 83.7122 94.6086 84.0902 93.9961 84.7027C93.3836 85.3152 93.0055 86.1605 93.0055 87.0931V91.6464C93.0055 92.2668 93.5085 92.7699 94.129 92.7699Z" fill="#EAAC9D"/>
<path d="M100.891 91.821C101.512 91.821 102.015 91.3179 102.015 90.6975V90.6973C102.015 89.7645 102.393 88.9194 103.005 88.3069C103.359 87.9531 103.791 87.6781 104.272 87.5085C103.921 87.3845 103.543 87.3164 103.149 87.3164C102.216 87.3164 101.371 87.6945 100.758 88.3069C100.146 88.9194 99.7676 89.7647 99.7676 90.6973V90.6975C99.7676 91.3179 100.271 91.821 100.891 91.821Z" fill="#EAAC9D"/>
<path d="M80.6044 99.1417C81.2249 99.1417 81.7279 98.6386 81.7279 98.0181V74.3595C81.7279 73.4268 82.1059 72.5816 82.7184 71.9691C83.0723 71.6152 83.5042 71.3402 83.9855 71.1706C83.6338 71.0467 83.2559 70.9785 82.8618 70.9785C81.9291 70.9785 81.0839 71.3566 80.4714 71.9691C79.8589 72.5816 79.4808 73.4268 79.4808 74.3595V98.018C79.4808 98.6386 79.9839 99.1417 80.6044 99.1417Z" fill="#EAAC9D"/>
<path d="M87.3667 92.4272C87.9872 92.4272 88.4903 91.9242 88.4903 91.3037V86.7504C88.4903 85.8176 88.8683 84.9724 89.4808 84.3599C89.8347 84.0061 90.2666 83.7311 90.7478 83.5614C90.3962 83.4374 90.0183 83.3694 89.6242 83.3694C88.6915 83.3694 87.8463 83.7474 87.2338 84.3599C86.6213 84.9724 86.2432 85.8177 86.2432 86.7504V91.3037C86.2432 91.9242 86.7461 92.4272 87.3667 92.4272Z" fill="#EAAC9D"/>
<path d="M64.7194 77.5303C71.2424 77.5303 76.5302 72.2424 76.5302 65.7195C76.5302 59.1966 71.2424 53.9087 64.7194 53.9087C58.1965 53.9087 52.9086 59.1966 52.9086 65.7195C52.9086 72.2424 58.1965 77.5303 64.7194 77.5303Z" fill="#DD636E"/>
<path d="M66.2634 77.4299C65.7584 77.496 65.2422 77.5297 64.7198 77.5297C58.1972 77.5297 52.9092 72.2416 52.9092 65.7191C52.9092 59.1953 58.1974 53.9072 64.7198 53.9072C65.2422 53.9072 65.7584 53.9409 66.2634 54.007C60.4703 54.7626 55.9964 59.7177 55.9964 65.7191C55.9964 71.719 60.4703 76.6742 66.2634 77.4299Z" fill="#DA4A54"/>
<path d="M100.795 77.53C107.318 77.53 112.605 72.2422 112.605 65.7192C112.605 59.1963 107.318 53.9084 100.795 53.9084C94.2717 53.9084 88.9838 59.1963 88.9838 65.7192C88.9838 72.2422 94.2717 77.53 100.795 77.53Z" fill="#80CB8E"/>
<path d="M102.338 77.4299C101.833 77.496 101.317 77.5297 100.794 77.5297C94.2718 77.5297 88.9838 72.2416 88.9838 65.7191C88.9838 59.1953 94.2719 53.9072 100.794 53.9072C101.317 53.9072 101.833 53.9409 102.338 54.007C96.5449 54.7626 92.071 59.7177 92.071 65.7191C92.0712 71.719 96.545 76.6742 102.338 77.4299Z" fill="#6EC17D"/>
<path d="M103.148 86.4078C102.228 86.4078 101.375 86.699 100.676 87.1942V87.0932C100.676 85.9495 100.23 84.8725 99.4196 84.0586C98.6089 83.2495 97.5317 82.804 96.3864 82.804C95.2404 82.804 94.1633 83.2498 93.3538 84.0594C93.2791 84.1341 93.2075 84.211 93.139 84.2902C92.9967 84.0876 92.8358 83.8958 92.6571 83.7168C91.8476 82.9071 90.7706 82.4614 89.6246 82.4614C88.7045 82.4614 87.8511 82.7526 87.1518 83.2478V74.356C87.1502 71.9926 85.2261 70.0698 82.8626 70.0698C81.7156 70.0698 80.6379 70.5167 79.8288 71.3275C79.0193 72.137 78.5734 73.2136 78.5734 74.359V88.1729C77.1948 86.1885 74.5016 85.529 72.3439 86.7257C70.0467 88.002 69.214 90.91 70.4881 93.2086C71.2101 94.5098 71.3682 97.5415 71.3682 98.6045C71.3691 98.7767 71.4076 102.87 72.9636 106.939C73.5535 108.48 74.2941 109.829 75.1654 110.947C76.1401 112.197 77.2887 113.172 78.5791 113.847C80.0434 114.612 81.7115 115 83.5371 115H93.6086C101.63 115 106.587 107.593 107.339 100.277C107.39 99.7777 107.027 99.3316 106.528 99.2803C106.029 99.2302 105.583 99.592 105.532 100.091C104.863 106.597 100.553 113.183 93.6086 113.183H83.5371C82.0074 113.183 80.6223 112.865 79.4203 112.237C78.3615 111.684 77.4117 110.874 76.598 109.83C75.8377 108.854 75.1857 107.663 74.6603 106.289C73.2262 102.54 73.185 98.6336 73.1848 98.5998C73.1848 98.1621 73.1536 94.2684 72.0767 92.3276C71.288 90.9047 71.8037 89.1038 73.2256 88.3138C74.6494 87.5242 76.4505 88.0404 77.2404 89.4642C78.2653 91.3118 78.5256 92.3555 78.5728 92.5763V98.5872C78.5728 99.0888 78.9794 99.4954 79.481 99.4954C79.9826 99.4954 80.3892 99.0888 80.3892 98.5872L80.3898 74.359C80.3898 73.6988 80.6467 73.0784 81.1138 72.6114C81.5805 72.1438 82.2015 71.8863 82.8626 71.8863C84.2252 71.8863 85.3345 72.9948 85.3354 74.3566V92.022C85.3354 92.5236 85.742 92.9302 86.2436 92.9302C86.7451 92.9302 87.1518 92.5236 87.1518 92.022V86.7507C87.1518 85.3872 88.261 84.2779 89.6246 84.2779C90.2855 84.2779 90.9063 84.5349 91.3722 85.0008C91.8399 85.4693 92.0973 86.0907 92.0973 86.7508L92.0968 90.9216C92.0968 91.4232 92.5035 91.8298 93.0051 91.8298C93.5066 91.8298 93.9133 91.4232 93.9133 90.9216V87.1029C93.9133 87.0997 93.9138 87.0967 93.9138 87.0935C93.9138 86.4326 94.1711 85.8114 94.6383 85.3441C95.1047 84.8776 95.7256 84.6208 96.3865 84.6208C97.0473 84.6208 97.6688 84.8779 98.1347 85.3429C98.602 85.812 98.8593 86.4337 98.8593 87.0935L98.8592 90.6977C98.8592 91.1993 99.2658 91.6059 99.7674 91.6059C100.175 91.6059 100.52 91.3374 100.635 90.9676C100.661 90.8822 100.676 90.7914 100.676 90.6973C100.676 89.3338 101.785 88.2246 103.148 88.2246C103.809 88.2246 104.431 88.4819 104.897 88.9485C105.364 89.4163 105.621 90.0374 105.621 90.6973V96.5535C105.621 97.0551 106.028 97.4617 106.529 97.4617C107.031 97.4617 107.438 97.0551 107.438 96.5535V90.6973C107.438 89.5529 106.992 88.4761 106.182 87.6647C105.372 86.854 104.294 86.4078 103.148 86.4078Z" fill="black"/>
<path d="M69.9026 76.3759C69.7187 75.9092 69.1913 75.6801 68.7246 75.8638C67.4485 76.3666 66.1012 76.6216 64.7199 76.6216C58.7077 76.6216 53.8164 71.7309 53.8164 65.7194C53.8164 59.7078 58.7077 54.8172 64.7199 54.8172C70.7314 54.8172 75.6221 59.7078 75.6221 65.7194C75.6221 69.0094 74.1589 72.0892 71.6079 74.1691C71.2192 74.486 71.1609 75.0581 71.4778 75.4468C71.7947 75.8356 72.3668 75.8938 72.7556 75.5769C75.7317 73.1506 77.4385 69.5577 77.4385 65.7194C77.4385 58.7063 71.733 53.0007 64.7199 53.0007C57.7061 53.0007 52 58.7063 52 65.7194C52 72.7325 57.7061 78.438 64.7199 78.438C66.3301 78.438 67.9015 78.1405 69.3905 77.5538C69.8572 77.37 70.0864 76.8425 69.9026 76.3759Z" fill="black"/>
<path d="M69.9571 60.4813C69.6024 60.1267 69.0274 60.1267 68.6728 60.4813L64.7195 64.4346L60.7662 60.4813C60.4115 60.1267 59.8365 60.1267 59.4819 60.4813C59.1272 60.836 59.1272 61.4111 59.4819 61.7657L63.4352 65.719L59.4819 69.6722C59.1272 70.0269 59.1272 70.602 59.4819 70.9566C59.6592 71.1339 59.8917 71.2226 60.1241 71.2226C60.3564 71.2226 60.589 71.134 60.7662 70.9566L64.7195 67.0033L68.6728 70.9566C68.8501 71.1339 69.0826 71.2226 69.315 71.2226C69.5473 71.2226 69.7799 71.134 69.9571 70.9566C70.3118 70.6019 70.3118 70.0268 69.9571 69.6722L66.0039 65.719L69.9571 61.7657C70.3119 61.411 70.3119 60.8359 69.9571 60.4813Z" fill="black"/>
<path d="M100.795 53C93.7813 53 88.0756 58.7058 88.0756 65.719C88.0756 72.7323 93.7814 78.438 100.795 78.438C107.808 78.438 113.514 72.7323 113.514 65.719C113.514 58.7058 107.808 53 100.795 53ZM100.795 76.6216C94.7829 76.6216 89.8921 71.7307 89.8921 65.719C89.8921 59.7072 94.783 54.8164 100.795 54.8164C106.806 54.8164 111.697 59.7074 111.697 65.719C111.697 71.7307 106.806 76.6216 100.795 76.6216Z" fill="black"/>
<path d="M106.322 59.1799C105.873 58.9554 105.328 59.1375 105.104 59.5862L100.019 69.7595L96.1385 65.8791C95.7838 65.5244 95.2087 65.5244 94.8542 65.8791C94.4995 66.2338 94.4995 66.8089 94.8542 67.1635L99.6257 71.935C99.7973 72.1067 100.029 72.201 100.268 72.201C100.316 72.201 100.365 72.1972 100.414 72.1893C100.702 72.1424 100.95 71.9599 101.08 71.6989L106.728 60.3982C106.953 59.9497 106.771 59.4042 106.322 59.1799Z" fill="black"/>
</svg>
