<svg width="18" height="18" viewBox="0 0 18 18" fill="none" xmlns="http://www.w3.org/2000/svg">
<path d="M7.949 17.9559C6.811 17.8359 5.757 17.5169 4.787 16.9989C3.817 16.4816 2.977 15.8219 2.267 15.0199C1.55633 14.2186 1.00067 13.3006 0.6 12.2659C0.2 11.2313 0 10.1426 0 8.99995C0 6.68661 0.757666 4.67661 2.273 2.96995C3.789 1.26461 5.68933 0.289279 7.974 0.0439453V1.04395C5.97 1.32728 4.30667 2.21995 2.984 3.72195C1.66067 5.22395 0.999 6.98328 0.999 8.99995C0.999 11.0166 1.65733 12.7759 2.974 14.2779C4.29067 15.7799 5.949 16.6726 7.949 16.9559V17.9559ZM8.949 13.3139L4.636 8.99395L5.349 8.28094L8.449 11.3809V4.69795H9.449V11.3809L12.543 8.28695L13.257 9.00595L8.949 13.3139ZM9.949 17.9559V16.9559C10.6657 16.8559 11.3533 16.6739 12.012 16.4099C12.6707 16.1459 13.283 15.7906 13.849 15.3439L14.607 16.0639C13.9137 16.5773 13.1747 16.9896 12.39 17.3009C11.6053 17.6123 10.791 17.8306 9.949 17.9559ZM13.9 2.69395C13.316 2.26061 12.695 1.90228 12.037 1.61895C11.379 1.33561 10.6913 1.14395 9.974 1.04395V0.0439453C10.8167 0.157279 11.627 0.372612 12.405 0.689945C13.183 1.00728 13.917 1.42295 14.607 1.93695L13.9 2.69395ZM16.007 14.6139L15.299 13.8999C15.7323 13.3333 16.0823 12.7209 16.349 12.0629C16.6157 11.4049 16.799 10.7173 16.899 9.99995H17.911C17.803 10.8426 17.5883 11.6573 17.267 12.4439C16.945 13.2306 16.525 13.9539 16.007 14.6139ZM16.899 7.99995C16.799 7.28328 16.6157 6.59595 16.349 5.93795C16.0823 5.27995 15.7323 4.66728 15.299 4.09995L16.045 3.34795C16.5377 4.03461 16.9403 4.77094 17.253 5.55694C17.5663 6.34361 17.7857 7.15795 17.911 7.99995H16.899Z" fill="white"/>
</svg>
