<svg width="34" height="33" viewBox="0 0 34 33" fill="none" xmlns="http://www.w3.org/2000/svg">
<path d="M30.7097 0.5H13.1613V5.99828H15.3548V2.69931H30.7097C31.3677 2.69931 31.8065 3.13918 31.8065 3.79897V15.8952C31.8065 16.555 31.3677 16.9948 30.7097 16.9948H16.4516V24.6924H10.6387L6.58065 27.8814V24.6924H3.29032C2.63226 24.6924 2.19355 24.2526 2.19355 23.5928V11.4966C2.19355 10.8368 2.63226 10.3969 3.29032 10.3969H17.5484V8.1976H3.29032C1.42581 8.1976 0 9.62715 0 11.4966V23.5928C0 25.4622 1.42581 26.8918 3.29032 26.8918H4.3871V32.5L11.2968 26.8918H18.6452V19.1942H30.7097C32.5742 19.1942 34 17.7646 34 15.8952V3.79897C34 1.92955 32.5742 0.5 30.7097 0.5Z" fill="#F6F6F6"/>
<path d="M4.6064 22.3832H7.23866L7.89672 20.6237H11.2967L11.9548 22.3832H14.587L10.858 12.5962H8.22575L4.6064 22.3832ZM9.54188 15.3454L10.6387 18.7543H8.44511L9.54188 15.3454Z" fill="#F6F6F6"/>
<path d="M19.7419 15.8952C20.9484 15.8952 22.5935 15.5653 24.129 14.7955C25.6645 15.5653 27.4194 15.8952 28.5161 15.8952V13.6959C28.5161 13.6959 27.4194 13.6959 26.2129 13.256C27.529 11.9364 28.5161 9.95705 28.5161 7.09794V5.99828H25.2258V3.79897H23.0323V5.99828H19.7419V8.1976H26.2129C25.9935 10.177 25.1161 11.3866 24.129 12.1564C23.471 11.6065 22.8129 10.8368 22.3742 9.84708H20.071C20.5097 11.2766 21.1677 12.3763 22.0452 13.256C20.9484 13.6959 19.9613 13.6959 19.7419 13.6959V15.8952Z" fill="#F6F6F6"/>
</svg>
