<svg width="161" height="191" viewBox="0 0 161 191" fill="none" xmlns="http://www.w3.org/2000/svg">
<path d="M80.8968 31.4415L81.2459 51.356L81.4593 71.29L81.6342 111.138L81.4593 150.987L81.2654 170.921L80.8968 190.835L80.5474 170.921L80.334 150.987L80.1788 111.138L80.3534 71.29L80.5474 51.356L80.8968 31.4415Z" fill="#131313"/>
<path d="M1.30002e-05 100.713L20.0638 100.366L40.147 100.154L80.2942 100L120.441 100.154L140.524 100.366L160.608 100.713L140.524 101.059L120.441 101.271L80.2942 101.445L40.147 101.271L20.0638 101.059L1.30002e-05 100.713Z" fill="#131313"/>
<path d="M80.5068 31.5839L76.1215 38.0168C75.9275 38.3057 76.2573 38.6716 76.5678 38.479L80.8173 35.9751C80.9337 35.9174 81.0695 35.9174 81.1666 35.9751L84.931 38.3633C85.2414 38.5559 85.5907 38.19 85.3773 37.9011L81.0501 31.5648C80.9143 31.3915 80.6232 31.3913 80.5068 31.5839Z" fill="#048A48"/>
<path d="M80.5068 31.5839L76.1215 38.0168C75.9275 38.3057 76.2573 38.6716 76.5678 38.479L80.8173 35.9751C80.9337 35.9174 81.0695 35.9174 81.1666 35.9751L84.931 38.3633C85.2414 38.5559 85.5907 38.19 85.3773 37.9011L81.0501 31.5648C80.9143 31.3915 80.6232 31.3913 80.5068 31.5839Z" stroke="#131313" stroke-width="0.485103" stroke-miterlimit="13.3333" stroke-linecap="round" stroke-linejoin="round"/>
<path d="M69.4617 5.8553V23.0928C69.4617 23.2854 69.617 23.4395 69.811 23.4395L92.8823 23.4395C93.0764 23.4395 93.2317 23.2854 93.2317 23.0928V5.8553C93.2317 5.72049 93.1347 5.58567 93.0183 5.52789L81.4921 0.867024C81.4145 0.828505 81.3177 0.828505 81.2207 0.867024L69.6945 5.52789C69.5393 5.58567 69.4617 5.72049 69.4617 5.8553Z" fill="#564F57"/>
<path d="M72.6928 23.0896V4.31128L69.6853 5.52466C69.5495 5.58243 69.4717 5.69802 69.4717 5.8521V23.0896C69.4717 23.2822 69.627 23.4362 69.8211 23.4362H73.0422C72.8482 23.4555 72.6928 23.2822 72.6928 23.0896Z" fill="#444044"/>
<path d="M84.2773 14.6034L87.0134 15.8167V8.67132L84.2773 7.43872V14.6034Z" fill="#048A48"/>
<path d="M84.2773 14.6034L87.0134 15.8167V8.67132L84.2773 7.43872V14.6034Z" stroke="#131313" stroke-width="0.970205" stroke-miterlimit="13.3333" stroke-linecap="round" stroke-linejoin="round"/>
<path d="M93.2329 16.407V5.85268C93.2329 5.71786 93.1553 5.58301 93.0195 5.52523L81.4936 0.864339C81.4159 0.825819 81.3189 0.825819 81.2219 0.864339L69.6957 5.52523C69.5599 5.58301 69.4823 5.6986 69.4823 5.85268V23.0902C69.4823 23.2828 69.6376 23.4368 69.8317 23.4368L92.9032 23.4368C93.0972 23.4368 93.2523 23.2828 93.2523 23.0902V20.5094" stroke="#131313" stroke-width="0.970205" stroke-miterlimit="13.3333" stroke-linecap="round" stroke-linejoin="round"/>
<path d="M81.3474 4.86304L69.4526 9.65874V12.7403L81.3474 7.94462L93.2421 12.7403V9.65874L81.3474 4.86304Z" fill="#048A48"/>
<path d="M81.3474 4.86304L69.4526 9.65874V12.7403L81.3474 7.94462L93.2421 12.7403V9.65874L81.3474 4.86304Z" stroke="#131313" stroke-width="0.970205" stroke-miterlimit="13.3333" stroke-linecap="round" stroke-linejoin="round"/>
<path d="M81.2117 0.866661L69.6858 5.52753C69.55 5.58531 69.4724 5.70086 69.4724 5.85494V23.0924C69.4724 23.285 69.6275 23.4391 69.8216 23.4391L81.3477 23.4391V0.847412C81.3089 0.847412 81.2506 0.866661 81.2117 0.866661Z" stroke="#131313" stroke-width="0.970205" stroke-miterlimit="13.3333" stroke-linecap="round" stroke-linejoin="round"/>
<path d="M69.4617 9.66359V12.7452L81.3564 7.94947V4.86792L69.4617 9.66359Z" fill="#048A48"/>
<path d="M72.6928 8.35718L69.4717 9.66686V12.7484L72.6928 11.4388V8.35718Z" fill="#048A48"/>
<path d="M69.4617 9.66359V12.7452L81.3564 7.94947V4.86792L69.4617 9.66359Z" stroke="#131313" stroke-width="0.970205" stroke-miterlimit="13.3333" stroke-linecap="round" stroke-linejoin="round"/>
</svg>
