<svg width="152" height="152" viewBox="0 0 152 152" fill="none" xmlns="http://www.w3.org/2000/svg">
<g clip-path="url(#clip0_2001_1577)">
<path d="M64.009 6.02482V23.2978C64.009 23.4909 64.1644 23.6452 64.3584 23.6452H87.4297C87.6237 23.6452 87.7791 23.4909 87.7791 23.2978V6.02482C87.7791 5.88972 87.6821 5.75462 87.5656 5.69673L76.0395 1.02626C75.9619 0.987665 75.8651 0.987665 75.768 1.02626L64.2419 5.69673C64.0866 5.75462 64.009 5.88972 64.009 6.02482Z" fill="#564F57"/>
<path d="M67.2402 23.2948V4.47778L64.2327 5.69366C64.0969 5.75156 64.019 5.86738 64.019 6.02178V23.2948C64.019 23.4878 64.1744 23.6421 64.3684 23.6421H67.5896C67.3955 23.6614 67.2402 23.4878 67.2402 23.2948Z" fill="#444044"/>
<path d="M78.8247 14.791L81.5608 16.0068V8.8467L78.8247 7.61157V14.791Z" fill="#048A48"/>
<path d="M78.8247 14.791L81.5608 16.0068V8.8467L78.8247 7.61157V14.791Z" stroke="#131313" stroke-width="0.970205" stroke-miterlimit="13.3333" stroke-linecap="round" stroke-linejoin="round"/>
<path d="M87.7802 16.5982V6.02219C87.7802 5.88709 87.7026 5.75197 87.5667 5.69407L76.0408 1.02358C75.9632 0.984978 75.8662 0.984978 75.7691 1.02358L64.243 5.69407C64.1071 5.75197 64.0295 5.86779 64.0295 6.02219V23.2952C64.0295 23.4882 64.1849 23.6425 64.3789 23.6425H87.4504C87.6445 23.6425 87.7996 23.4882 87.7996 23.2952V20.709" stroke="#131313" stroke-width="0.970205" stroke-miterlimit="13.3333" stroke-linecap="round" stroke-linejoin="round"/>
<path d="M75.8947 5.03052L64 9.83609V12.924L75.8947 8.11844L87.7894 12.924V9.83609L75.8947 5.03052Z" fill="#048A48"/>
<path d="M75.8947 5.03052L64 9.83609V12.924L75.8947 8.11844L87.7894 12.924V9.83609L75.8947 5.03052Z" stroke="#131313" stroke-width="0.970205" stroke-miterlimit="13.3333" stroke-linecap="round" stroke-linejoin="round"/>
<path d="M75.7591 1.02589L64.2332 5.69634C64.0974 5.75425 64.0198 5.87004 64.0198 6.02443V23.2975C64.0198 23.4904 64.1749 23.6449 64.3689 23.6449H75.8951V1.00659C75.8563 1.00659 75.7979 1.02589 75.7591 1.02589Z" stroke="#131313" stroke-width="0.970205" stroke-miterlimit="13.3333" stroke-linecap="round" stroke-linejoin="round"/>
<path d="M64.009 9.84095V12.9289L75.9038 8.1233V5.0354L64.009 9.84095Z" fill="#048A48"/>
<path d="M67.2402 8.53174L64.019 9.84412V12.9321L67.2402 11.6197V8.53174Z" fill="#048A48"/>
<path d="M64.009 9.84095V12.9289L75.9038 8.1233V5.0354L64.009 9.84095Z" stroke="#131313" stroke-width="0.970205" stroke-miterlimit="13.3333" stroke-linecap="round" stroke-linejoin="round"/>
<path d="M75.8872 76.4099L75.5379 70.8186L75.3244 65.222L75.1692 54.0339L75.3244 42.846L75.5379 37.2493L75.8872 31.6526L76.2364 37.2493L76.4499 42.846L76.6245 54.0339L76.4499 65.222L76.2364 70.8186L75.8872 76.4099Z" fill="#131313"/>
<path d="M75.4873 31.8049L71.1019 38.251C70.9079 38.5405 71.2377 38.9072 71.5482 38.7142L75.7977 36.2052C75.9142 36.1473 76.05 36.1473 76.147 36.2052L79.9114 38.5983C80.2219 38.7913 80.5711 38.4246 80.3577 38.1351L76.0306 31.7858C75.8948 31.6121 75.6037 31.6118 75.4873 31.8049Z" fill="#048A48"/>
<path d="M75.4873 31.8049L71.1019 38.251C70.9079 38.5405 71.2377 38.9072 71.5482 38.7142L75.7977 36.2052C75.9142 36.1473 76.05 36.1473 76.147 36.2052L79.9114 38.5983C80.2219 38.7913 80.5711 38.4246 80.3577 38.1351L76.0306 31.7858C75.8948 31.6121 75.6037 31.6118 75.4873 31.8049Z" stroke="#131313" stroke-width="0.485103" stroke-miterlimit="13.3333" stroke-linecap="round" stroke-linejoin="round"/>
</g>
<g clip-path="url(#clip1_2001_1577)">
<path d="M64.009 6.02482V23.2978C64.009 23.4909 64.1644 23.6452 64.3584 23.6452H87.4297C87.6237 23.6452 87.7791 23.4909 87.7791 23.2978V6.02482C87.7791 5.88972 87.6821 5.75462 87.5656 5.69673L76.0395 1.02626C75.9619 0.987665 75.8651 0.987665 75.768 1.02626L64.2419 5.69673C64.0866 5.75462 64.009 5.88972 64.009 6.02482Z" fill="#564F57"/>
<path d="M67.2402 23.2948V4.47778L64.2327 5.69366C64.0969 5.75156 64.019 5.86738 64.019 6.02178V23.2948C64.019 23.4878 64.1744 23.6421 64.3684 23.6421H67.5896C67.3955 23.6614 67.2402 23.4878 67.2402 23.2948Z" fill="#444044"/>
<path d="M78.8247 14.791L81.5608 16.0068V8.8467L78.8247 7.61157V14.791Z" fill="#048A48"/>
<path d="M78.8247 14.791L81.5608 16.0068V8.8467L78.8247 7.61157V14.791Z" stroke="#131313" stroke-width="0.970205" stroke-miterlimit="13.3333" stroke-linecap="round" stroke-linejoin="round"/>
<path d="M87.7996 20.709L87.7802 6.02219C87.7802 5.88709 87.7026 5.75197 87.5667 5.69407L76.0408 1.02358C75.9632 0.984978 75.8662 0.984978 75.7691 1.02358L64.243 5.69407C64.1071 5.75197 64.0295 5.86779 64.0295 6.02219V23.2952C64.0295 23.4882 64.1849 23.6425 64.3789 23.6425H87.4504C87.6445 23.6425 87.7996 23.4882 87.7996 23.2952V20.709Z" stroke="#131313" stroke-width="0.970205" stroke-miterlimit="13.3333" stroke-linecap="round" stroke-linejoin="round"/>
<path d="M75.8947 5.03052L64 9.83609V12.924L75.8947 8.11844L87.7894 12.924V9.83609L75.8947 5.03052Z" fill="#048A48"/>
<path d="M75.8947 5.03052L64 9.83609V12.924L75.8947 8.11844L87.7894 12.924V9.83609L75.8947 5.03052Z" stroke="#131313" stroke-width="0.970205" stroke-miterlimit="13.3333" stroke-linecap="round" stroke-linejoin="round"/>
<path d="M75.7591 1.02589L64.2332 5.69634C64.0974 5.75425 64.0198 5.87004 64.0198 6.02443V23.2975C64.0198 23.4904 64.1749 23.6449 64.3689 23.6449H75.8951V1.00659C75.8563 1.00659 75.7979 1.02589 75.7591 1.02589Z" stroke="#131313" stroke-width="0.970205" stroke-miterlimit="13.3333" stroke-linecap="round" stroke-linejoin="round"/>
<path d="M64.009 9.84095V12.9289L75.9038 8.1233V5.0354L64.009 9.84095Z" fill="#048A48"/>
<path d="M67.2402 8.53174L64.019 9.84412V12.9321L67.2402 11.6197V8.53174Z" fill="#048A48"/>
<path d="M64.009 9.84095V12.9289L75.9038 8.1233V5.0354L64.009 9.84095Z" stroke="#131313" stroke-width="0.970205" stroke-miterlimit="13.3333" stroke-linecap="round" stroke-linejoin="round"/>
<path d="M75.8872 76.4099L75.5379 70.8186L75.3244 65.222L75.1692 54.0339L75.3244 42.846L75.5379 37.2493L75.8872 31.6526L76.2364 37.2493L76.4499 42.846L76.6245 54.0339L76.4499 65.222L76.2364 70.8186L75.8872 76.4099Z" fill="#131313"/>
<path d="M75.4873 31.8049L71.1019 38.251C70.9079 38.5405 71.2377 38.9072 71.5482 38.7142L75.7977 36.2052C75.9142 36.1473 76.05 36.1473 76.147 36.2052L79.9114 38.5983C80.2219 38.7913 80.5711 38.4246 80.3577 38.1351L76.0306 31.7858C75.8948 31.6121 75.6037 31.6118 75.4873 31.8049Z" fill="#048A48"/>
<path d="M75.4873 31.8049L71.1019 38.251C70.9079 38.5405 71.2377 38.9072 71.5482 38.7142L75.7977 36.2052C75.9142 36.1473 76.05 36.1473 76.147 36.2052L79.9114 38.5983C80.2219 38.7913 80.5711 38.4246 80.3577 38.1351L76.0306 31.7858C75.8948 31.6121 75.6037 31.6118 75.4873 31.8049Z" stroke="#131313" stroke-width="0.485103" stroke-miterlimit="13.3333" stroke-linecap="round" stroke-linejoin="round"/>
</g>
<path d="M76.1758 76.4724L81.7974 76.125L87.4244 75.9127L98.6731 75.7583L109.922 75.9127L115.549 76.125L121.176 76.4724L115.549 76.8197L109.922 77.0321L98.6731 77.2058L87.4244 77.0321L81.7974 76.8197L76.1758 76.4724Z" fill="#131313"/>
<path d="M75.8242 76.4973L70.2026 76.8447L64.5756 77.0571L53.3269 77.2114L42.0783 77.0571L36.4513 76.8447L30.8242 76.4973L36.4513 76.15L42.0783 75.9376L53.3269 75.764L64.5756 75.9376L70.2026 76.15L75.8242 76.4973Z" fill="#131313"/>
<path d="M75.9124 76.5847L76.2617 82.176L76.4752 87.7727L76.6304 98.9607L76.4752 110.149L76.2617 115.745L75.9124 121.342L75.5632 115.745L75.3497 110.149L75.1751 98.9607L75.3497 87.7727L75.5632 82.176L75.9124 76.5847Z" fill="#131313"/>
<line x1="54" y1="76.5" x2="99" y2="76.5" stroke="#131313"/>
<line x1="54" y1="76.5" x2="99" y2="76.5" stroke="#131313"/>
<line x1="76" y1="99.5" x2="76" y2="54.5" stroke="#131313"/>
<line x1="76" y1="99.5" x2="76" y2="54.5" stroke="#131313"/>
<defs>
<clipPath id="clip0_2001_1577">
<rect width="26" height="76.5847" fill="white" transform="translate(63)"/>
</clipPath>
<clipPath id="clip1_2001_1577">
<rect width="26" height="76.5847" fill="white" transform="translate(63)"/>
</clipPath>
</defs>
</svg>
