<svg width="22" height="24" viewBox="0 0 22 24" fill="none" xmlns="http://www.w3.org/2000/svg">
<path fill-rule="evenodd" clip-rule="evenodd" d="M18 20.1313L20 22.3418L21.4831 21L2.48307 0L1 1.34183L3.56344 4.1751C1.39833 5.82429 0 8.43467 0 11.3728V20.3418H18V20.1313ZM16 17.9208L4.91151 5.66507C3.14802 6.94181 2 9.02271 2 11.3728V18.3418H16V17.9208Z" fill="#212121"/>
<path d="M18 11.3728V15.1502L16 12.9397V11.3728C16 7.48978 12.866 4.34183 9 4.34183C8.74884 4.34183 8.50073 4.35525 8.25641 4.38113L6.68439 2.64358C7.42328 2.44681 8.19946 2.34183 9 2.34183C13.97 2.34183 18 6.3848 18 11.3728Z" fill="#212121"/>
<path d="M11.5 21.3418C11.5 22.0049 11.2366 22.6407 10.7678 23.1096C10.299 23.5784 9.66302 23.8418 9 23.8418C8.33698 23.8418 7.70105 23.5784 7.23224 23.1096C6.76337 22.6407 6.5 22.0049 6.5 21.3418H11.5Z" fill="#212121"/>
</svg>
