<svg width="165" height="168" viewBox="0 0 165 168" fill="none" xmlns="http://www.w3.org/2000/svg">
<rect width="165" height="168" rx="25" fill="#EFEFEF"/>
<mask id="mask0_2001_21" style="mask-type:luminance" maskUnits="userSpaceOnUse" x="48" y="50" width="69" height="69">
<path d="M48 50H117V119H48V50Z" fill="white"/>
</mask>
<g mask="url(#mask0_2001_21)">
<path d="M115.989 84.5C115.989 102.996 100.996 117.989 82.5 117.989C64.0044 117.989 49.0107 102.996 49.0107 84.5C49.0107 66.0044 64.0044 51.0107 82.5 51.0107C100.996 51.0107 115.989 66.0044 115.989 84.5Z" fill="#81D261"/>
<path d="M54.4688 84.5C54.4688 66.9233 68.01 52.5108 85.229 51.1219C84.3288 51.0493 83.4188 51.0107 82.5 51.0107C64.0044 51.0107 49.0107 66.0044 49.0107 84.5C49.0107 102.996 64.0044 117.989 82.5 117.989C83.4188 117.989 84.3288 117.951 85.229 117.878C68.01 116.489 54.4688 102.077 54.4688 84.5Z" fill="#4FC123"/>
<path d="M111.17 67.1822C105.302 57.4893 94.6579 51.0107 82.5005 51.0107C64.0049 51.0107 49.0113 66.0044 49.0113 84.5C49.0113 102.996 64.0049 117.989 82.5005 117.989C100.996 117.989 115.99 102.996 115.99 84.5C115.99 79.8433 115.038 75.4091 113.321 71.3798" stroke="black" stroke-miterlimit="10" stroke-linecap="round" stroke-linejoin="round"/>
<path d="M110.477 84.5001C110.477 99.9511 97.9511 112.477 82.5 112.477C67.049 112.477 54.5234 99.9511 54.5234 84.5001C54.5234 69.0491 67.049 56.5235 82.5 56.5235C97.9511 56.5235 110.477 69.0491 110.477 84.5001Z" fill="white"/>
<path d="M58.7557 84.5001C58.7557 69.7611 70.1536 57.6845 84.6163 56.6027C83.9175 56.5504 83.212 56.5235 82.4999 56.5235C67.0489 56.5235 54.5234 69.0491 54.5234 84.5001C54.5234 99.9511 67.0489 112.477 82.4999 112.477C83.212 112.477 83.9175 112.45 84.6163 112.398C70.1536 111.316 58.7557 99.2392 58.7557 84.5001Z" fill="#F3F0F3"/>
<path d="M80.1416 56.6232C65.7944 57.821 54.5233 69.8435 54.5233 84.5C54.5233 99.951 67.049 112.477 82.5 112.477C97.951 112.477 110.477 99.951 110.477 84.5C110.477 69.8435 99.2055 57.821 84.8584 56.6232" stroke="black" stroke-miterlimit="10" stroke-linecap="round" stroke-linejoin="round"/>
<path d="M68.9297 77.2077V97.0332C68.9297 97.2566 69.1107 97.4375 69.334 97.4375H95.666C95.8892 97.4375 96.0703 97.2566 96.0703 97.0332V77.2077C96.0703 77.0431 95.9706 76.8952 95.8183 76.8332L82.6523 71.4802C82.5547 71.4404 82.4454 71.4404 82.3477 71.4802L69.1818 76.8332C69.0295 76.8952 68.9297 77.0431 68.9297 77.2077Z" fill="#554E56"/>
<path d="M72.6095 97.0332V75.4394L69.1818 76.833C69.0295 76.895 68.9297 77.0431 68.9297 77.2077V97.0332C68.9297 97.2565 69.1107 97.4375 69.334 97.4375H73.0138C72.7905 97.4375 72.6095 97.2565 72.6095 97.0332Z" fill="#433F43"/>
<path d="M85.8516 87.2729L88.9688 88.6777V80.457L85.8516 79.0291V87.2729Z" fill="#FED402"/>
<path d="M85.8516 87.2729L88.9688 88.6777V80.457L85.8516 79.0291V87.2729Z" stroke="black" stroke-miterlimit="10" stroke-linecap="round" stroke-linejoin="round"/>
<path d="M96.0703 89.3516V77.2077C96.0703 77.0431 95.9707 76.895 95.8183 76.8331L82.6523 71.4802C82.5546 71.4404 82.4453 71.4404 82.3478 71.4802L69.1817 76.8331C69.0294 76.895 68.9297 77.0431 68.9297 77.2077V97.0332C68.9297 97.2565 69.1108 97.4375 69.334 97.4375H95.666C95.8891 97.4375 96.0703 97.2565 96.0703 97.0332V94.0684" stroke="black" stroke-miterlimit="10" stroke-linecap="round" stroke-linejoin="round"/>
<path d="M82.5 76.0563L68.9298 81.5737V85.1077L82.5 79.5902L96.0703 85.1077V81.5737L82.5 76.0563Z" fill="#FAC600"/>
<path d="M82.5 76.0563L68.9298 81.5737V85.1077L82.5 79.5902L96.0703 85.1077V81.5737L82.5 76.0563Z" stroke="black" stroke-miterlimit="10" stroke-linecap="round" stroke-linejoin="round"/>
<path d="M82.3477 71.4802L69.1818 76.8332C69.0294 76.8952 68.9298 77.0431 68.9298 77.2077V97.0332C68.9298 97.2566 69.1108 97.4375 69.3341 97.4375H82.5V71.4502C82.4483 71.4502 82.3965 71.4603 82.3477 71.4802Z" stroke="black" stroke-miterlimit="10" stroke-linecap="round" stroke-linejoin="round"/>
<path d="M68.9297 81.5907V85.1248L82.5 79.6072V76.0734L68.9297 81.5907Z" fill="#FED402"/>
<path d="M72.6095 80.0946L68.9297 81.5908V85.1248L72.6095 83.6286V80.0946Z" fill="#FAC600"/>
<path d="M68.9297 81.5907V85.1248L82.5 79.6072V76.0734L68.9297 81.5907Z" stroke="black" stroke-miterlimit="10" stroke-linecap="round" stroke-linejoin="round"/>
<path d="M82.1576 60.8882L76.7117 68.936C76.4642 69.3016 76.8851 69.7483 77.2649 69.5233L82.54 66.396C82.6744 66.3164 82.842 66.3192 82.9737 66.4035L87.6342 69.3845C88.0124 69.6265 88.451 69.1764 88.1994 68.8044L82.8424 60.8882C82.6784 60.6459 82.3216 60.6459 82.1576 60.8882Z" fill="#FD4755"/>
<path d="M82.1576 60.8882L76.7117 68.936C76.4642 69.3016 76.8851 69.7483 77.2649 69.5233L82.54 66.396C82.6744 66.3164 82.842 66.3192 82.9737 66.4035L87.6342 69.3845C88.0124 69.6265 88.451 69.1764 88.1994 68.8044L82.8424 60.8882C82.6784 60.6459 82.3216 60.6459 82.1576 60.8882Z" stroke="black" stroke-miterlimit="10" stroke-linecap="round" stroke-linejoin="round"/>
<path d="M82.5 107.859V112.477" stroke="black" stroke-miterlimit="10" stroke-linecap="round" stroke-linejoin="round"/>
<path d="M108.577 84.5H110.477" stroke="black" stroke-miterlimit="10" stroke-linecap="round" stroke-linejoin="round"/>
<path d="M54.5234 84.5H56.4229" stroke="black" stroke-miterlimit="10" stroke-linecap="round" stroke-linejoin="round"/>
<path d="M65.9826 101.017L62.7175 104.283" stroke="black" stroke-miterlimit="10" stroke-linecap="round" stroke-linejoin="round"/>
<path d="M102.283 64.7177L99.0173 67.9829" stroke="black" stroke-miterlimit="10" stroke-linecap="round" stroke-linejoin="round"/>
<path d="M99.0173 101.017L102.283 104.283" stroke="black" stroke-miterlimit="10" stroke-linecap="round" stroke-linejoin="round"/>
<path d="M62.7176 64.7177L65.9827 67.9829" stroke="black" stroke-miterlimit="10" stroke-linecap="round" stroke-linejoin="round"/>
<path d="M76.7117 102.424H88.2882" stroke="black" stroke-miterlimit="10" stroke-linecap="round" stroke-linejoin="round"/>
<path d="M60.4311 84.694L63.5468 87.6983C63.7179 87.8634 64.0034 87.7421 64.0034 87.5044V81.4957C64.0034 81.2579 63.7179 81.1367 63.5468 81.3017L60.4311 84.306C60.3213 84.4119 60.3213 84.5881 60.4311 84.694Z" fill="#FD4755"/>
<path d="M60.4311 84.694L63.5468 87.6983C63.7179 87.8634 64.0034 87.7421 64.0034 87.5044V81.4957C64.0034 81.2579 63.7179 81.1367 63.5468 81.3017L60.4311 84.306C60.3213 84.4119 60.3213 84.5881 60.4311 84.694Z" stroke="black" stroke-miterlimit="10" stroke-linecap="round" stroke-linejoin="round"/>
<path d="M104.569 84.6939L101.453 87.6983C101.282 87.8635 100.997 87.7421 100.997 87.5043V81.4957C100.997 81.2578 101.282 81.1367 101.453 81.3016L104.569 84.306C104.679 84.4119 104.679 84.588 104.569 84.6939Z" fill="#FD4755"/>
<path d="M104.569 84.6939L101.453 87.6983C101.282 87.8635 100.997 87.7421 100.997 87.5043V81.4957C100.997 81.2578 101.282 81.1367 101.453 81.3016L104.569 84.306C104.679 84.4119 104.679 84.588 104.569 84.6939Z" stroke="black" stroke-miterlimit="10" stroke-linecap="round" stroke-linejoin="round"/>
</g>
</svg>
