<svg width="165" height="168" viewBox="0 0 165 168" fill="none" xmlns="http://www.w3.org/2000/svg">
<rect width="165" height="168" rx="25" fill="#EFEFEF"/>
<path d="M100.708 89.7244C102.138 90.4334 106.026 92.2974 106.769 92.2517C107.661 92.1831 107.398 88.4893 107.398 88.4893L105.797 87.1399L100.708 89.7244Z" fill="#EDBC74"/>
<path d="M104.917 88.5466L106.072 87.9633C105.854 87.8719 105.637 87.7689 105.431 87.666L101.349 89.7245C102.652 90.3649 106.003 91.9773 107.135 92.2175C107.158 91.9773 107.192 91.7372 107.238 91.5084C106.529 91.2111 105.706 90.8452 104.94 90.4907C104.128 90.1018 104.105 88.9468 104.917 88.5466Z" fill="#D8A664"/>
<path d="M84.4923 96.5974L111.012 109.223V106.318C110.68 103.31 106.323 102.418 106.323 102.418C104.654 98.1755 100.171 97.1806 100.171 97.1806C98.0209 92.7207 92.6232 92.4919 92.6232 92.4919L84.4923 96.5974Z" fill="#EDBC74"/>
<path d="M92.6232 92.5032C92.6232 92.5032 93.7667 92.5604 95.2191 93.0407C92.3601 94.4816 92.4059 98.5756 95.2991 99.9479L111.023 107.438V109.234L84.4923 96.5972L92.6232 92.5032Z" fill="#D8A664"/>
<path d="M111.012 109.794C110.932 109.794 110.84 109.771 110.772 109.737L84.2521 97.1118C84.0577 97.0204 83.9319 96.8259 83.9319 96.6087C83.9319 96.3914 84.0463 96.197 84.2407 96.0941L92.3716 92C92.4631 91.9543 92.5545 91.9314 92.646 91.9429C92.8747 91.9543 98.2267 92.2288 100.571 96.7116C101.589 96.9975 105.145 98.2554 106.746 101.949C107.81 102.224 111.264 103.356 111.584 106.272V109.234C111.584 109.428 111.481 109.611 111.321 109.714C111.229 109.76 111.126 109.794 111.012 109.794ZM85.7845 96.5858L110.452 108.33V106.329C110.177 103.836 106.255 102.99 106.22 102.99C106.026 102.956 105.877 102.818 105.809 102.635C104.276 98.7357 100.102 97.7522 100.056 97.7408C99.8849 97.7065 99.7477 97.5921 99.6676 97.432C97.8722 93.704 93.5723 93.1551 92.7375 93.075L85.7845 96.5858Z" fill="#231E1E"/>
<path d="M113.356 77.8769C113.356 77.8769 106.46 81.8337 98.0552 84.624C88.4491 87.7918 83.8061 92.5147 82.7426 97.1462L82.754 70.9926C82.8227 69.7461 83.5889 66.2124 89.5698 65.1832C96.8658 63.9024 103.933 58.5847 103.933 58.5847L113.356 77.8769Z" fill="#F2F2F2"/>
<path d="M103.933 58.5847C103.933 58.5847 103.281 59.0765 102.183 59.7855L107.547 70.7638C109.457 74.6749 107.753 79.3979 103.784 81.1819C101.417 82.2454 98.6041 83.389 95.5965 84.3839C89.3182 86.4652 85.167 89.2098 82.7426 92.1488V97.1577C83.7947 92.5262 88.4491 87.8032 98.0437 84.624C106.449 81.8451 113.345 77.8769 113.345 77.8769L103.933 58.5847Z" fill="#E6E6E6"/>
<path d="M82.7426 97.718C82.7198 97.718 82.6969 97.718 82.674 97.718C82.3881 97.6837 82.1708 97.4435 82.1708 97.1576L82.1823 71.004C82.2509 69.7689 82.9828 65.7549 89.4669 64.6228C96.5342 63.3877 103.521 58.1844 103.59 58.1273C103.727 58.0243 103.899 57.99 104.07 58.0243C104.231 58.0586 104.379 58.173 104.448 58.3331L113.871 77.6253C113.997 77.8998 113.905 78.22 113.642 78.3686C113.574 78.4029 106.598 82.3826 98.2267 85.1615C89.7413 87.9747 84.4351 92.286 83.2915 97.2834C83.2344 97.535 83.0057 97.718 82.7426 97.718ZM103.716 59.4424C101.886 60.7232 95.9167 64.6457 89.6613 65.7435C84.0006 66.727 83.3716 70.0319 83.3144 71.0268V94.1043C85.6016 89.9645 90.6333 86.4652 97.8722 84.0751C104.894 81.7536 110.932 78.563 112.613 77.6367L103.716 59.4424Z" fill="#231E1E"/>
<path d="M65.566 89.3128C64.1366 90.0218 60.2484 91.8858 59.5051 91.8401C58.6131 91.7715 58.8761 88.0777 58.8761 88.0777L60.4771 86.7283L65.566 89.3128Z" fill="#EDBC74"/>
<path d="M60.4657 86.7283L60.0083 87.1171L61.9981 88.1234C62.7986 88.5351 62.7872 89.6901 61.9638 90.0675C60.9803 90.525 59.8825 91.0167 59.0591 91.3255C59.162 91.6114 59.2992 91.8172 59.4936 91.8286C60.237 91.8744 64.1251 90.0103 65.5546 89.3013L60.4657 86.7283Z" fill="#D8A664"/>
<path d="M59.5165 92.4118C59.5051 92.4118 59.4822 92.4118 59.4708 92.4118C58.4987 92.3317 58.1099 90.868 58.3043 88.0433C58.3158 87.8946 58.3844 87.746 58.4987 87.6545L60.0998 86.2936C60.2713 86.145 60.5229 86.1221 60.7287 86.225L65.8291 88.8095C66.0235 88.9124 66.1379 89.1068 66.1379 89.3241C66.1379 89.5414 66.0121 89.7358 65.8177 89.8273C62.3412 91.5427 60.2141 92.4118 59.5165 92.4118ZM59.425 88.3521C59.3564 89.6215 59.4479 90.8908 59.6423 91.2568C60.1341 91.1653 61.7923 90.502 64.2853 89.3013L60.5458 87.4029L59.425 88.3521Z" fill="#231E1E"/>
<path d="M81.0044 96.8032L54.4847 109.44V106.535C54.8164 103.527 59.1734 102.636 59.1734 102.636C60.843 98.3928 65.3259 97.3979 65.3259 97.3979C67.4758 92.9379 72.8735 92.7092 72.8735 92.7092L81.0044 96.8032Z" fill="#EDBC74"/>
<path d="M72.8849 92.7092C72.8849 92.7092 71.7414 92.7664 70.289 93.2467C73.148 94.6876 73.1022 98.7816 70.209 100.154L54.4847 107.644V109.44L81.0044 96.8147L72.8849 92.7092Z" fill="#D8A664"/>
<path d="M54.4848 110C54.3818 110 54.2789 109.966 54.176 109.908C54.0159 109.806 53.913 109.623 53.913 109.428V106.535C54.2332 103.562 57.6982 102.429 58.7503 102.155C60.3513 98.4612 63.9079 97.2033 64.9256 96.9174C67.27 92.4346 72.6219 92.1601 72.8507 92.1487C72.9421 92.1487 73.0451 92.1716 73.1251 92.2059L81.256 96.2999C81.4504 96.4028 81.5762 96.5972 81.5647 96.8145C81.5647 97.0318 81.4389 97.2262 81.2445 97.3177L54.7249 109.943C54.6563 109.989 54.5648 110 54.4848 110ZM72.7592 93.2808C71.9244 93.3609 67.6245 93.9212 65.8291 97.6379C65.749 97.798 65.6118 97.9123 65.4403 97.9466C65.3945 97.9581 61.2204 98.9416 59.688 102.841C59.6194 103.024 59.4593 103.15 59.2764 103.184C59.242 103.196 55.3196 104.03 55.0451 106.592V108.536L79.7121 96.7916L72.7592 93.2808Z" fill="#231E1E"/>
<path d="M82.7541 71.004L82.7426 97.1462C81.702 92.5147 77.0476 87.7917 67.453 84.6126C59.0476 81.8337 52.1519 77.8654 52.1519 77.8654L61.575 58.5732C61.575 58.5732 68.6423 63.8909 75.9383 65.1717C81.9192 66.2238 82.674 69.7803 82.7541 71.004Z" fill="#F2F2F2"/>
<path d="M69.7287 84.0522C66.7211 83.0573 63.9193 81.9138 61.5407 80.8502C57.561 79.0777 55.8571 74.3547 57.7783 70.4322L63.0616 59.6139C62.1239 58.9964 61.5635 58.5847 61.5635 58.5847L52.1404 77.8769C52.1404 77.8769 59.0362 81.8337 67.4415 84.624C77.0362 87.8032 81.6906 92.5262 82.7312 97.1577V92.0344C80.3526 89.004 76.1556 86.1793 69.7287 84.0522Z" fill="#E6E6E6"/>
<path d="M82.7426 97.718C82.4796 97.718 82.2509 97.535 82.1937 97.272C81.0615 92.2745 75.7668 87.9747 67.27 85.15C58.899 82.3826 51.9346 78.4029 51.8545 78.3572C51.5915 78.2085 51.5 77.8883 51.6258 77.6138L61.0489 58.3216C61.1289 58.173 61.2662 58.0586 61.4263 58.0129C61.5864 57.9786 61.7693 58.0129 61.9066 58.1158C61.9752 58.173 68.9625 63.3648 76.0298 64.6113C82.4796 65.7206 83.2458 69.746 83.3258 70.9468V70.9811L83.3144 97.1462C83.3144 97.4321 83.0971 97.6837 82.8112 97.7065C82.7884 97.718 82.7655 97.718 82.7426 97.718ZM52.8952 77.6367C54.5762 78.563 60.6029 81.7422 67.6359 84.0751C74.8748 86.4766 79.9065 89.9759 82.1823 94.1043L82.1937 71.0268C82.1022 69.7346 81.2903 66.6926 75.8468 65.7549C69.5914 64.6571 63.6219 60.7346 61.7922 59.4538L52.8952 77.6367Z" fill="#231E1E"/>
<path d="M85.5901 72.0903C85.4643 72.0903 85.3385 72.0445 85.2356 71.9645C84.9955 71.7701 84.9497 71.4041 85.1556 71.164C86.2534 69.8146 88.0831 68.1678 90.5647 68.0191C92.7604 67.8819 98.3753 65.4461 101.383 63.9366C101.669 63.7993 102 63.9137 102.149 64.1882C102.286 64.474 102.172 64.8171 101.898 64.9544C101.818 64.9887 93.8468 68.9569 90.6333 69.1513C88.5634 69.2771 86.9967 70.7066 86.0361 71.8844C85.9103 72.0217 85.7502 72.0903 85.5901 72.0903Z" fill="#231E1E"/>
<path d="M85.0984 79.3406C85.0298 79.3406 84.9497 79.3292 84.8811 79.2949C84.5952 79.1805 84.4465 78.8489 84.5723 78.5516C84.641 78.38 86.3563 74.286 90.5533 74.0344C92.7718 73.8972 99.4503 71.0497 103.144 69.2771C103.419 69.1399 103.773 69.2542 103.899 69.5401C104.036 69.826 103.91 70.1691 103.636 70.2949C103.544 70.3406 93.8582 74.9607 90.6219 75.1551C87.1225 75.3724 85.6816 78.8146 85.6244 78.9632C85.5329 79.2034 85.3157 79.3406 85.0984 79.3406Z" fill="#231E1E"/>
<path d="M85.5902 85.596C85.4987 85.596 85.4072 85.5732 85.3271 85.5274C85.0527 85.3788 84.9383 85.0357 85.087 84.7612C85.1899 84.5782 87.5228 80.2098 91.6168 79.9582C93.8239 79.821 101.177 76.5618 105.294 74.5376C105.58 74.4004 105.923 74.5147 106.06 74.8006C106.197 75.0865 106.083 75.4182 105.797 75.5668C105.694 75.624 94.9103 80.9188 91.6854 81.1018C88.2204 81.3076 86.1734 85.1386 86.0933 85.2987C85.9904 85.4817 85.7846 85.596 85.5902 85.596Z" fill="#231E1E"/>
<path d="M79.8036 72.0674C79.6435 72.0674 79.472 71.9988 79.369 71.8616C78.4199 70.6951 76.8417 69.2771 74.7833 69.1513C71.5698 68.9569 63.5991 65.0001 63.519 64.9544C63.2331 64.8171 63.1302 64.474 63.2674 64.1882C63.4047 63.9137 63.7477 63.7993 64.0336 63.9366C67.0527 65.4461 72.6562 67.8819 74.8519 68.0191C77.322 68.1678 79.1403 69.8031 80.2496 71.1411C80.444 71.3813 80.4097 71.7472 80.1695 71.9416C80.0666 72.0331 79.9294 72.0674 79.8036 72.0674Z" fill="#231E1E"/>
<path d="M80.3868 78.8945C80.181 78.8945 79.9751 78.7801 79.8722 78.5743C79.8036 78.4485 78.2369 75.3837 74.7833 75.1778C71.5469 74.9834 61.8722 70.3634 61.7693 70.3176C61.4834 70.1804 61.3691 69.8373 61.5063 69.5628C61.6435 69.277 61.9866 69.1626 62.2611 69.2998C65.9434 71.0724 72.6219 73.9199 74.8519 74.0571C78.9573 74.3087 80.8214 77.9339 80.89 78.0825C81.0272 78.3684 80.9129 78.7001 80.6384 78.8487C80.5583 78.8716 80.4783 78.8945 80.3868 78.8945Z" fill="#231E1E"/>
<path d="M79.8265 85.596C79.6206 85.596 79.4262 85.4817 79.3233 85.2987C79.2318 85.1386 77.1619 81.3076 73.7312 81.1018C70.5063 80.9074 59.7338 75.6126 59.6194 75.5668C59.3335 75.4296 59.2192 75.0865 59.3564 74.8006C59.4936 74.5147 59.8367 74.4004 60.1226 74.5376C64.2395 76.5618 71.5927 79.8324 73.7998 79.9582C77.7909 80.1983 80.0895 84.2924 80.3297 84.7612C80.4783 85.0357 80.3754 85.3788 80.0895 85.5274C80.0095 85.5732 79.918 85.596 79.8265 85.596Z" fill="#231E1E"/>
<path d="M106.769 92.8234C106.06 92.8234 103.945 91.9543 100.457 90.2389C100.262 90.1474 100.136 89.953 100.136 89.7357C100.136 89.5185 100.251 89.3241 100.445 89.2211L105.546 86.6366C105.751 86.5337 105.992 86.5566 106.175 86.7053L107.776 88.0547C107.89 88.1576 107.97 88.2948 107.97 88.4435C108.164 91.2681 107.776 92.7319 106.815 92.812C106.792 92.812 106.781 92.8234 106.769 92.8234ZM101.989 89.7129C104.562 90.9479 106.14 91.5769 106.632 91.6684C106.815 91.3025 106.918 90.0216 106.849 88.7637L105.729 87.8145L101.989 89.7129Z" fill="#231E1E"/>
<path d="M82.7426 97.1462H79.4034L47.3374 80.8616C46.777 80.5757 46.5598 79.8896 46.8342 79.3407L56.6118 59.8884C56.7834 59.5682 57.0807 59.3394 57.4466 59.2823L61.5635 58.5732L52.1404 77.8654C52.1404 77.8654 59.0362 81.8222 67.4415 84.6126C77.0476 87.7917 81.6906 92.5147 82.7426 97.1462Z" fill="#26B3B7"/>
<path d="M82.7426 97.1461H79.4034L47.3374 80.8615C46.777 80.5756 46.5598 79.8895 46.8342 79.3406L56.6118 59.8883C56.7834 59.5681 57.0807 59.3394 57.4466 59.2822L58.7846 59.0535C58.7389 59.0992 58.7046 59.1564 58.6703 59.2136L48.9041 78.6659C48.6182 79.2262 48.8469 79.9009 49.4073 80.1868L81.4618 96.4714H82.5597C82.6283 96.7001 82.6969 96.9174 82.7426 97.1461Z" fill="#1B9E9E"/>
<path d="M82.7426 97.718H79.4034C79.3119 97.718 79.2204 97.6952 79.1404 97.6608L47.0858 81.3648C46.251 80.9303 45.9079 79.9125 46.331 79.0777L56.1087 59.6368C56.3717 59.1336 56.8291 58.8134 57.3552 58.7219L61.472 58.0129C61.6779 57.9786 61.8952 58.0587 62.021 58.2302C62.1468 58.4017 62.1696 58.6305 62.0781 58.8249L52.8952 77.6368C54.5763 78.5631 60.6029 81.7536 67.6359 84.0751C76.5216 87.0141 82.0794 91.6113 83.303 97.0204C83.3373 97.192 83.303 97.3635 83.1886 97.5007C83.0743 97.638 82.9142 97.718 82.7426 97.718ZM79.5406 96.5744H81.9993C80.547 91.8629 75.3551 87.8261 67.27 85.1501C58.899 82.3712 51.9231 78.3915 51.8545 78.3572C51.5915 78.2085 51.5 77.8883 51.6258 77.6139L60.5572 59.328L57.5267 59.8427C57.3437 59.877 57.1951 59.9799 57.1036 60.1514L47.3488 79.5923C47.2802 79.7295 47.2688 79.8782 47.3145 80.0268C47.3603 80.1755 47.4632 80.2899 47.6004 80.3585L79.5406 96.5744Z" fill="#231E1E"/>
<path d="M118.651 79.3407C118.937 79.901 118.708 80.5872 118.148 80.8616L86.0819 97.1462H82.7426C83.7947 92.5147 88.4491 87.7917 98.0323 84.6126C106.438 81.8222 113.333 77.8654 113.333 77.8654L103.91 58.5732L108.027 59.2708C108.382 59.328 108.69 59.5567 108.851 59.8769L118.651 79.3407Z" fill="#26B3B7"/>
<path d="M118.148 80.8615L86.0819 97.1461H83.3831C83.4174 96.9517 83.4745 96.7573 83.5432 96.5628H84.1493L116.215 80.2783C116.776 79.9924 117.004 79.3062 116.718 78.7573L106.929 59.305C106.895 59.2364 106.849 59.1678 106.804 59.1106L108.336 59.3851C108.565 59.4765 108.748 59.6595 108.873 59.8882L118.651 79.3405C118.926 79.8894 118.697 80.5756 118.148 80.8615Z" fill="#1B9E9E"/>
<path d="M86.0705 97.7178H82.7426C82.5711 97.7178 82.411 97.6378 82.2966 97.5005C82.1937 97.3633 82.148 97.1918 82.1823 97.0202C83.4059 91.6111 88.9637 87.0139 97.8493 84.0749C104.871 81.742 110.909 78.5514 112.59 77.6366L103.407 58.8361C103.316 58.6417 103.339 58.413 103.464 58.2414C103.59 58.0699 103.796 57.9784 104.013 58.0242L108.13 58.7218C108.668 58.8132 109.125 59.1563 109.365 59.6366L119.143 79.0775C119.566 79.9123 119.223 80.9415 118.399 81.3646L86.3335 97.6492C86.2534 97.695 86.1619 97.7178 86.0705 97.7178ZM83.486 96.5743H85.9447L117.896 80.3583C118.171 80.2211 118.285 79.878 118.148 79.5921L108.37 60.1512C108.29 59.9911 108.13 59.8768 107.959 59.8425L104.928 59.3278L113.859 77.6251C113.985 77.8996 113.894 78.2198 113.631 78.3685C113.562 78.4028 106.586 82.3939 98.2153 85.1613C90.1187 87.8373 84.9269 91.8741 83.486 96.5743Z" fill="#231E1E"/>
</svg>
