<svg width="165" height="168" viewBox="0 0 165 168" fill="none" xmlns="http://www.w3.org/2000/svg">
<rect width="165" height="168" rx="25" fill="#EFEFEF"/>
<mask id="mask0_2001_22" style="mask-type:luminance" maskUnits="userSpaceOnUse" x="54" y="56" width="57" height="57">
<path d="M54 56H111V113H54V56Z" fill="white"/>
</mask>
<g mask="url(#mask0_2001_22)">
<path d="M103.166 94.973C102.223 92.5984 102.362 89.9303 103.548 87.667L106.291 82.4319C106.855 81.3551 107.104 80.1407 107.007 78.9289L106.621 74.0744C106.532 72.9612 106.194 71.8821 105.632 70.9172L104.516 69.0012C103.885 67.9196 102.521 67.5162 101.404 68.0811C101.176 68.1965 100.975 68.3461 100.802 68.5191L100.802 68.5177L97.4709 59.7177C97.0261 58.5432 95.7037 57.9626 94.5381 58.4301C93.4041 58.8849 92.8427 60.1635 93.2753 61.3061L96.6199 70.1401L97.1 71.4088L92.236 58.5609C91.8178 57.4562 90.6157 56.864 89.4851 57.2057C88.2396 57.5821 87.5733 58.9343 88.0337 60.1512L88.4889 61.3546C88.0567 60.2138 86.7722 59.6499 85.6398 60.1041C84.5528 60.5401 84.0047 61.7572 84.3989 62.86L88.4575 74.2172L85.0317 65.0483C83.513 65.5936 82.5 67.0336 82.5 68.6473V86.8866C82.5 90.2821 84.1163 93.4747 86.8528 95.4848L91.9498 111.891H109.887L103.166 94.973Z" fill="#FFCAA7"/>
<path d="M55.1133 111.891H73.0502L78.1471 95.4848C80.8837 93.4747 82.5001 90.2821 82.5001 86.8866V68.6473C82.5001 67.0336 81.4871 65.5936 79.9682 65.0483L76.5424 74.2172L80.6011 62.86C80.9952 61.7572 80.4473 60.5401 79.3602 60.1041C78.2278 59.6499 76.9433 60.2138 76.5112 61.3547L76.9664 60.1512C77.4267 58.9343 76.7604 57.5821 75.515 57.2057C74.3844 56.864 73.1822 57.4562 72.764 58.5609L67.9 71.4088L68.3802 70.1401L71.7247 61.3061C72.1572 60.1635 71.5958 58.8849 70.4619 58.4301C69.2962 57.9626 67.974 58.5432 67.5292 59.7177L64.1977 68.5177L64.1983 68.5191C64.025 68.3461 63.8241 68.1966 63.5959 68.0811C62.4786 67.5162 61.1146 67.9196 60.4844 69.0014L59.368 70.9172C58.8058 71.8821 58.4678 72.9612 58.3792 74.0744L57.9927 78.9289C57.8963 80.1407 58.1446 81.3551 58.7087 82.4319L61.4519 87.667C62.6379 89.9303 62.7774 92.5984 61.8341 94.973L55.1133 111.891Z" fill="#FFCAA7"/>
<path d="M85.0318 65.0483C83.513 65.5936 82.5 67.0336 82.5 68.6473V86.8867C82.5 90.2821 84.1164 93.4747 86.8529 95.4848L91.9499 111.891H109.887L108.176 107.584" stroke="black" stroke-miterlimit="10" stroke-linecap="round" stroke-linejoin="round"/>
<path d="M88.4576 74.2173L84.3989 62.8601C84.0048 61.7573 84.5529 60.5402 85.6399 60.1041C86.7726 59.6499 88.0575 60.2142 88.4894 61.3557L92.8263 72.8192" stroke="black" stroke-miterlimit="10" stroke-linecap="round" stroke-linejoin="round"/>
<path d="M96.6199 70.1401L93.2753 61.3061C92.8428 60.1636 93.4043 58.8849 94.5381 58.4301C95.7037 57.9626 97.0261 58.5432 97.4709 59.7177L100.802 68.5178" stroke="black" stroke-miterlimit="10" stroke-linecap="round" stroke-linejoin="round"/>
<path d="M92.3414 71.5381L88.0338 60.1512C87.5734 58.9344 88.2397 57.5821 89.4851 57.2057C90.6158 56.864 91.8179 57.4562 92.2361 58.5609L97.1001 71.4088" stroke="black" stroke-miterlimit="10" stroke-linecap="round" stroke-linejoin="round"/>
<path d="M93.7017 82.8128C95.0772 80.0491 97.9303 78.1502 101.227 78.1502V74.5564L100.192 70.8244C99.8907 69.738 100.398 68.5899 101.404 68.0811C102.522 67.5162 103.885 67.9196 104.516 69.0012L105.632 70.9172C106.194 71.8822 106.532 72.9612 106.621 74.0743L107.007 78.9289C107.104 80.1407 106.856 81.3551 106.291 82.4319L103.548 87.6669C102.362 89.9302 102.223 92.5983 103.166 94.9731L104.477 98.2717" stroke="black" stroke-miterlimit="10" stroke-linecap="round" stroke-linejoin="round"/>
<path d="M84.4962 76.8633C83.2515 77.6701 82.5 79.0526 82.5 80.5359" stroke="black" stroke-miterlimit="10" stroke-linecap="round" stroke-linejoin="round"/>
<path d="M79.9684 65.0483C81.4872 65.5936 82.5002 67.0336 82.5002 68.6473V86.8867C82.5002 90.2821 80.8838 93.4747 78.1473 95.4848L73.0503 111.891H55.1135L61.8341 94.973C62.7775 92.5984 62.638 89.9303 61.452 87.667L58.7088 82.4319C58.1446 81.3551 57.8963 80.1407 57.9929 78.9289L58.3793 74.0744C58.4679 72.9612 58.8059 71.8822 59.368 70.9172L60.4844 69.0012C61.1147 67.9196 62.4786 67.5161 63.596 68.0811C64.6022 68.5899 65.1095 69.738 64.8081 70.8245L63.7732 74.5564V78.1502C67.0699 78.1502 69.923 80.0491 71.2985 82.8128" stroke="black" stroke-miterlimit="10" stroke-linecap="round" stroke-linejoin="round"/>
<path d="M76.5424 74.2173L80.6011 62.8601C80.9952 61.7573 80.4471 60.5402 79.3601 60.1041C78.2273 59.6499 76.9425 60.2142 76.5105 61.3557L72.1736 72.8192" stroke="black" stroke-miterlimit="10" stroke-linecap="round" stroke-linejoin="round"/>
<path d="M68.3802 70.1401L71.7247 61.3061C72.1572 60.1636 71.5958 58.8849 70.4619 58.4301C69.2963 57.9626 67.9739 58.5432 67.5292 59.7177L64.1976 68.5178" stroke="black" stroke-miterlimit="10" stroke-linecap="round" stroke-linejoin="round"/>
<path d="M72.6587 71.5381L76.9663 60.1512C77.4266 58.9344 76.7603 57.5821 75.5149 57.2057C74.3843 56.864 73.1821 57.4562 72.764 58.5609L67.9 71.4088" stroke="black" stroke-miterlimit="10" stroke-linecap="round" stroke-linejoin="round"/>
<path d="M80.5038 76.8633C81.7485 77.6701 82.5 79.0526 82.5 80.5359" stroke="black" stroke-miterlimit="10" stroke-linecap="round" stroke-linejoin="round"/>
</g>
</svg>
